<svg width="1000" height="1000" viewBox="0 0 1000 1000" fill="none" xmlns="http://www.w3.org/2000/svg">
<path d="M980.69 843H19.3203C8.39035 843 1.96035 828.7 7.85035 818.08C8.07035 817.68 8.32035 817.3 8.56035 816.92C17.7503 802.87 195.02 531.76 254.6 445.74C273.6 418.3 303.62 406.77 325.12 431.5L440.25 563.97C445.9 570.48 455.03 570 460.18 562.95L662.33 263.67C694.71 219.32 753.62 232.58 773.42 286.23C822.18 418.35 983.25 797.1 992.98 819.96C993.29 820.68 993.58 821.41 993.77 822.18C996.43 832.4 989.96 842.99 980.68 842.99L980.69 843Z" fill="#E8E8E8"/>
<path d="M486.31 332.19C483.48 333.33 478.52 334.48 473.04 335.52C457.37 338.5 445.4 351.2 443.13 366.99C441.69 377 439.87 387.24 437.88 392.89C434.46 402.48 418.68 402.65 415.02 393.13C412.84 387.28 410.57 376.86 408.71 366.98C405.95 352.32 394.71 340.75 380.16 337.47C374.05 336.09 368.35 334.67 365.22 333.54C355.91 330.02 355.79 318.46 365.03 314.79C367.9 313.64 373.05 312.4 378.71 311.24C394.14 308.08 405.93 295.62 408.23 280.04C409.71 269.98 411.6 259.6 413.7 253.85C417.05 244.34 432.83 244.18 436.44 253.62C438.68 259.46 440.88 269.91 442.66 279.9C445.34 294.91 456.88 306.79 471.81 309.89C477.66 311.1 483.07 312.4 486.11 313.55C495.42 316.97 495.54 328.59 486.3 332.2L486.31 332.19Z" fill="#E8E8E8"/>
<path d="M538.02 235.3C536.47 235.92 533.77 236.55 530.77 237.12C522.21 238.75 515.67 245.68 514.43 254.31C513.64 259.78 512.65 265.37 511.56 268.46C509.69 273.7 501.07 273.79 499.07 268.59C497.88 265.4 496.64 259.7 495.63 254.31C494.12 246.3 487.98 239.98 480.04 238.19C476.7 237.44 473.59 236.66 471.88 236.04C466.79 234.12 466.73 227.8 471.77 225.8C473.34 225.17 476.15 224.49 479.24 223.86C487.67 222.13 494.11 215.33 495.36 206.82C496.17 201.33 497.2 195.65 498.35 192.51C500.18 187.31 508.8 187.23 510.77 192.38C511.99 195.57 513.2 201.28 514.17 206.73C515.63 214.93 521.94 221.42 530.09 223.11C533.29 223.77 536.24 224.48 537.9 225.11C542.99 226.98 543.05 233.32 538.01 235.3H538.02Z" fill="#E8E8E8"/>
</svg>
