<svg width="237" height="152" viewBox="0 0 237 152" fill="none" xmlns="http://www.w3.org/2000/svg">
<path d="M161.474 104.848V104.973C161.537 117.606 171.859 127.934 184.408 127.934C192.837 127.934 200.225 123.304 204.179 116.391H233.876C227.695 136.398 209.111 151 187.28 151H181.557C154.731 151 132.838 128.961 132.838 101.957V84.6523C132.838 57.6481 154.731 35.609 181.557 35.609H187.28C214.106 35.609 235.999 57.6481 235.999 84.6523V101.957C235.999 102.941 235.999 103.863 235.937 104.848H161.474ZM161.474 104.848L161.537 104.952M161.474 104.952V104.827M100.664 74.1983C109.717 67.3897 115.627 56.4749 115.627 44.2612V38.5C115.627 17.8646 98.8533 1 78.375 1H6.47237C3.43393 1 0.999023 3.47208 0.999023 6.50979V145.49C0.999023 148.549 3.45474 151 6.47237 151H84.0981C104.597 151 121.35 134.115 121.35 113.5V107.739C121.35 93.074 112.922 80.3366 100.664 74.2193V74.1983ZM35.1294 29.8268H69.0308C76.4396 29.8268 83.4322 34.2053 85.9295 41.2235C88.3644 48.074 86.2833 54.9875 81.9129 59.366C78.8121 62.4875 74.4625 64.4357 69.7592 64.4357H35.1294C32.0909 64.4357 29.656 61.9637 29.656 58.926V35.3366C29.656 32.278 32.1118 29.8268 35.1294 29.8268ZM87.6568 117.061C84.556 120.183 80.2064 122.131 75.5031 122.131H35.1294C32.0909 122.131 29.656 119.659 29.656 116.622V93.0322C29.656 89.9735 32.1118 87.5224 35.1294 87.5224H74.7539C82.1627 87.5224 89.1552 91.9009 91.6526 98.919C94.0875 105.77 92.0064 112.683 87.636 117.061H87.6568ZM165.616 81.7612C163.306 81.7612 161.453 79.6243 161.911 77.3408C163.971 66.7402 173.295 58.6746 184.408 58.6746C190.714 58.6746 196.437 61.2723 200.578 65.4832C203.762 68.6466 206.031 72.7528 206.926 77.3408C207.363 79.6243 205.531 81.7612 203.221 81.7612H165.616ZM207.342 104.848V104.973H161.495V104.848H207.342ZM155.501 3.49302H213.336C216.358 3.49302 218.809 5.95984 218.809 9.00281V18.5559C218.809 21.5988 216.358 24.0657 213.336 24.0657H155.501C152.478 24.0657 150.028 21.5988 150.028 18.5559V9.00281C150.028 5.95984 152.478 3.49302 155.501 3.49302Z" stroke="white" stroke-width="2" stroke-miterlimit="10"/>
</svg>
