<svg width="117" height="152" viewBox="0 0 117 152" fill="none" xmlns="http://www.w3.org/2000/svg">
<path d="M113.973 78.5719L110.36 79.8137L108.544 80.3405C99.1183 83.5578 90.6106 88.5436 83.5367 95.1286C74.8378 103.332 68.5096 114.018 65.7947 126.135L61.2636 148.769C60.7283 151.628 56.5605 151.798 55.834 148.938L50.0411 126.116C46.963 114.714 40.8068 104.009 32.2991 95.6366C25.5885 89.0328 17.444 83.6895 8.57298 80.6603L6.2214 79.7761L2.95213 78.7036C0.237302 77.8194 0.409369 74.0753 3.1242 73.3603C4.21396 73.191 5.11253 73.0029 6.03022 72.6454C27.9401 65.8722 44.6114 47.34 49.869 25.233L50.4043 23.6338L55.6619 3.14485C56.3884 0.285051 60.5563 0.285051 61.0916 3.14485L65.2594 23.4644L65.6227 25.2518C70.517 48.4312 87.7237 65.891 110.551 72.4949C111.641 72.8523 112.731 73.0217 113.82 73.3792C115.273 73.7366 116 74.809 116 76.0508C116 77.1232 115.273 78.1956 114.012 78.5531L113.973 78.5719Z" stroke="white" stroke-miterlimit="10"/>
</svg>
