<?xml version="1.0" encoding="UTF-8"?><svg id="_ícones" xmlns="http://www.w3.org/2000/svg" viewBox="0 0 1000 1000"><defs><style>.cls-1{fill:#010101;}</style></defs><g id="caneta"><path class="cls-1" d="m992.84,197.31c0,23.57-8.96,47.19-26.96,65.19l-76.82,77-130.7-130.7,76.86-76.82c36.06-36.06,94.51-36.06,130.57,0,18.05,18.05,27.05,41.67,27.05,65.33Z"/><path class="cls-1" d="m853.9,374.75l-412.91,414-215.8,104.78c-12.62,6.11-25.92-7.15-19.82-19.77l104.28-216.34,413.5-413.41,130.75,130.75Z"/><path class="cls-1" d="m169.37,808.83c-3.58,1.44-9.86,2.9-16.79,4.22-19.84,3.77-34.99,19.84-37.87,39.83-1.82,12.67-4.12,25.63-6.65,32.79-4.33,12.14-24.3,12.35-28.94.3-2.76-7.4-5.63-20.6-7.98-33.1-3.49-18.55-17.72-33.2-36.14-37.35-7.74-1.74-14.95-3.54-18.91-4.98-11.79-4.46-11.94-19.09-.25-23.74,3.63-1.45,10.15-3.03,17.32-4.49,19.53-4,34.46-19.77,37.36-39.49,1.87-12.73,4.27-25.88,6.92-33.16,4.24-12.04,24.21-12.25,28.79-.3,2.83,7.39,5.62,20.62,7.88,33.26,3.39,19,18,34.04,36.91,37.96,7.41,1.54,14.25,3.18,18.1,4.64,11.79,4.33,11.94,19.04.24,23.61Z"/><path class="cls-1" d="m210.81,638.43c-2.07.84-5.7,1.68-9.72,2.44-11.48,2.18-20.25,11.49-21.92,23.05-1.05,7.33-2.39,14.83-3.85,18.98-2.51,7.03-14.06,7.15-16.75.17-1.6-4.28-3.26-11.92-4.62-19.16-2.02-10.74-10.26-19.22-20.92-21.62-4.48-1.01-8.65-2.05-10.94-2.88-6.82-2.58-6.91-11.05-.14-13.74,2.1-.84,5.87-1.75,10.02-2.6,11.3-2.32,19.94-11.44,21.62-22.86,1.08-7.37,2.47-14.98,4-19.19,2.46-6.97,14.01-7.09,16.66-.17,1.64,4.28,3.25,11.93,4.56,19.25,1.96,11,10.42,19.7,21.36,21.97,4.29.89,8.25,1.84,10.48,2.68,6.82,2.51,6.91,11.02.14,13.66Z"/></g></svg>