<svg width="187" height="152" viewBox="0 0 187 152" fill="none" xmlns="http://www.w3.org/2000/svg">
<path d="M186 18.5367C186 23.0112 184.318 27.4953 180.94 30.9125L166.522 45.5303L141.991 20.7179L156.417 6.13428C163.185 -0.711426 174.155 -0.711426 180.923 6.13428C184.311 9.56093 186 14.045 186 18.5367Z" stroke="white" stroke-width="2"/>
<path d="M159.923 52.2222L82.4246 130.817L41.9216 150.708C39.553 151.868 37.0568 149.351 38.2017 146.955L57.7737 105.885L135.383 27.4023L159.923 52.2241V52.2222Z" stroke="white" stroke-width="2"/>
<path d="M31.4449 134.629C30.773 134.902 29.5943 135.179 28.2936 135.43C24.5699 136.146 21.7265 139.196 21.1859 142.991C20.8443 145.397 20.4126 147.857 19.9378 149.216C19.1251 151.521 15.377 151.561 14.5061 149.273C13.9881 147.868 13.4494 145.363 13.0084 142.99C12.3533 139.468 9.68255 136.687 6.22534 135.899C4.77264 135.569 3.41941 135.227 2.67617 134.953C0.463333 134.107 0.43518 131.329 2.62925 130.447C3.31055 130.171 4.53428 129.871 5.88 129.594C9.54553 128.835 12.3477 125.841 12.892 122.097C13.243 119.681 13.6934 117.184 14.1908 115.802C14.9866 113.517 18.7347 113.477 19.5943 115.745C20.1255 117.148 20.6491 119.66 21.0733 122.059C21.7096 125.666 24.4517 128.522 28.0009 129.266C29.3916 129.558 30.6754 129.87 31.398 130.147C33.6108 130.969 33.639 133.761 31.443 134.629H31.4449Z" stroke="white" stroke-width="2"/>
<path d="M39.2227 102.28C38.8342 102.439 38.1529 102.599 37.3984 102.743C35.2437 103.157 33.5977 104.924 33.2843 107.119C33.0872 108.51 32.8357 109.934 32.5617 110.722C32.0906 112.057 29.9228 112.079 29.4179 110.754C29.1176 109.942 28.806 108.491 28.5508 107.117C28.1716 105.078 26.6251 103.468 24.6244 103.013C23.7835 102.821 23.0009 102.623 22.5711 102.466C21.291 101.976 21.2741 100.368 22.5448 99.8574C22.9389 99.6979 23.6465 99.5252 24.4254 99.3638C26.5463 98.9234 28.1679 97.192 28.4832 95.024C28.6859 93.6249 28.9468 92.1802 29.234 91.381C29.6957 90.0578 31.8635 90.035 32.3608 91.3487C32.6686 92.1612 32.9708 93.6135 33.2167 95.0031C33.5846 97.0914 35.1724 98.743 37.2257 99.174C38.0309 99.3429 38.7741 99.5233 39.1927 99.6827C40.4727 100.159 40.4896 101.775 39.2189 102.276L39.2227 102.28Z" stroke="white" stroke-width="2"/>
</svg>
