<svg width="515" height="500" viewBox="0 0 515 500" fill="none" xmlns="http://www.w3.org/2000/svg">
<path d="M15.1964 15.2043C-5.06548 35.4662 -5.06548 68.3173 15.1964 88.5792L183.949 257.332L29.8602 411.421C9.59828 431.683 9.59828 464.534 29.8602 484.796C50.1221 505.058 82.9732 505.058 103.235 484.796L257.324 330.707L411.421 484.804C431.683 505.065 464.534 505.065 484.796 484.804C505.058 464.542 505.058 431.691 484.796 411.429L330.699 257.332L499.46 88.5713C519.721 68.3094 519.721 35.4584 499.46 15.1964C479.198 -5.06548 446.347 -5.06548 426.085 15.1964L257.324 183.957L88.5713 15.2043C68.3094 -5.05764 35.4584 -5.05764 15.1964 15.2043Z" fill="#E8E8E8"/>
</svg>
