<svg width="172" height="152" viewBox="0 0 172 152" fill="none" xmlns="http://www.w3.org/2000/svg">
<path d="M157.649 32.3175L158.063 32.5981C158.193 32.4055 158.174 32.1482 158.015 31.9775C157.857 31.8069 157.602 31.768 157.4 31.8837L157.649 32.3175ZM156.422 32.7301L156.36 32.2339L156.353 32.2348L156.422 32.7301ZM155.69 27.203L155.759 27.6983L155.76 27.6982L155.69 27.203ZM156.041 27.1772L156.035 27.6771C156.206 27.6793 156.366 27.5942 156.459 27.4515C156.553 27.3088 156.568 27.1282 156.498 26.9725L156.041 27.1772ZM153.284 22.5859L152.89 22.893L152.89 22.8932L153.284 22.5859ZM146.181 16.6504L145.948 17.0927L145.948 17.093L146.181 16.6504ZM137.985 14.1933L138.033 13.6956C137.863 13.6792 137.697 13.7506 137.591 13.8849C137.486 14.0193 137.457 14.198 137.513 14.359L137.985 14.1933ZM137.593 19.0441L137.155 18.8035L137.154 18.8049L137.593 19.0441ZM129.177 21.5274L129.409 21.0848L129.409 21.0848L129.177 21.5274ZM125.887 16.2292L126.387 16.2212C126.385 16.0525 126.297 15.8965 126.154 15.8064C126.012 15.7163 125.833 15.7043 125.68 15.7744L125.887 16.2292ZM114.452 26.9082L114.014 26.6685L114.013 26.669L114.452 26.9082ZM123.33 58.5464L123.563 58.104L123.563 58.104L123.33 58.5464ZM130.505 60.883L130.433 61.3778C130.695 61.4161 130.942 61.2429 130.995 60.983L130.505 60.883ZM134.909 56.0043L134.858 55.5069L134.856 55.5071L134.909 56.0043ZM140.422 60.1608L139.959 60.3492C140.056 60.5872 140.317 60.7131 140.564 60.6403L140.422 60.1608ZM155.053 48.2895L154.614 48.0501L154.614 48.0502L155.053 48.2895ZM157.889 33.9339L158.386 33.8761L158.386 33.8741L157.889 33.9339ZM157.644 32.3242L157.23 32.0436C157.157 32.1523 157.129 32.2856 157.152 32.4148L157.644 32.3242ZM123.464 48.1834L123.026 47.9426L123.024 47.9457L123.464 48.1834ZM121.961 48.625L122.195 48.1833L122.193 48.1819L121.961 48.625ZM121.5 47.1492L121.938 47.3895L121.941 47.3843L121.5 47.1492ZM123.014 46.7055L122.779 47.1469L122.782 47.1489L123.014 46.7055ZM121.652 31.8725L121.214 31.6321L121.213 31.6337L121.652 31.8725ZM118.566 32.7826L118.333 33.2251L118.334 33.2259L118.566 32.7826ZM117.628 29.7525L118.067 29.9928L118.068 29.99L117.628 29.7525ZM137.246 37.3793L137.685 37.6186C137.778 37.449 137.764 37.2412 137.651 37.085C137.537 36.9288 137.343 36.8521 137.153 36.888L137.246 37.3793ZM131.119 34.1528L131.558 34.3921L131.558 34.3913L131.119 34.1528ZM135.816 32.7632L136.05 32.3212L136.049 32.3206L135.816 32.7632ZM137.241 37.3803L136.802 37.1398C136.709 37.3094 136.722 37.5175 136.836 37.6741C136.95 37.8306 137.144 37.9076 137.334 37.8716L137.241 37.3803ZM150.233 43.781L149.795 43.5401L149.794 43.5417L150.233 43.781ZM147.849 44.4882L147.614 44.9295L147.615 44.9303L147.849 44.4882ZM147.124 42.1442L146.686 41.9033L146.684 41.9066L147.124 42.1442ZM20.865 150.773L21.0348 150.303L21.0344 150.302L20.865 150.773ZM27.56 146.518L28.0057 146.745L28.0057 146.744L27.56 146.518ZM38.8759 120.521L38.4369 120.281L38.4367 120.282L38.8759 120.521ZM75.3843 72.9985L75.2595 73.4826L75.2595 73.4826L75.3843 72.9985ZM76.4953 82.2365L76.0983 81.9325L76.0982 81.9326L76.4953 82.2365ZM63.0856 114.284L62.9254 114.758L62.9368 114.762L63.0856 114.284ZM69.1538 111.798L68.7378 111.521C68.7307 111.532 68.724 111.543 68.7177 111.554L69.1538 111.798ZM91.0817 83.9886L91.4017 84.3728L91.4017 84.3727L91.0817 83.9886ZM99.4166 90.0046L99.688 90.4245C99.7026 90.4151 99.7166 90.405 99.7301 90.3941L99.4166 90.0046ZM73.4979 124.596L73.9424 124.825L73.9424 124.825L73.4979 124.596ZM67.2341 144.151L66.7384 144.216L66.7384 144.217L67.2341 144.151ZM74.497 146.965L74.1806 146.578L74.1803 146.578L74.497 146.965ZM81.0111 134.377L81.4739 134.566L81.4741 134.565L81.0111 134.377ZM93.3625 113.843L92.9827 113.518L92.9825 113.518L93.3625 113.843ZM167.888 52.5938L167.421 52.416L167.421 52.416L167.888 52.5938ZM118.701 5.26626L118.491 4.81284L118.491 4.81287L118.701 5.26626ZM8.56777 103.378L9.01082 103.61C9.01762 103.597 9.02385 103.584 9.02948 103.57L8.56777 103.378ZM16.6592 109.661L16.9995 110.028C17.0136 110.015 17.0269 110.001 17.0393 109.986L16.6592 109.661ZM51.6154 72.1258L52.0291 71.8449C52.0151 71.8244 51.9996 71.8049 51.9828 71.7866L51.6154 72.1258ZM51.0867 78.7574L51.4189 79.131C51.4275 79.1234 51.4357 79.1155 51.4437 79.1074L51.0867 78.7574ZM103.286 59.0429L102.969 58.6564C102.828 58.7718 102.761 58.9546 102.794 59.1336L103.286 59.0429ZM117.047 70.9577L116.658 70.644L116.657 70.6442L117.047 70.9577ZM125.74 80.7527L126.118 81.0795L126.118 81.0794L125.74 80.7527ZM161.133 49.1428L160.683 48.9262L160.683 48.9262L161.133 49.1428ZM124.646 10.7061L124.454 10.2445L124.454 10.2445L124.646 10.7061ZM102.021 26.4452L102.261 26.8836L102.261 26.8836L102.021 26.4452ZM60.5216 50.7451L60.8778 51.096L60.8781 51.0958L60.5216 50.7451ZM68.226 56.2356L67.9025 55.8543L67.9024 55.8544L68.226 56.2356ZM104.232 39.8504L103.792 40.0868L103.792 40.0873L104.232 39.8504ZM92.2825 56.4262L91.8451 56.1839L91.845 56.1841L92.2825 56.4262ZM103.287 59.0485L103.604 59.4351C103.745 59.3197 103.812 59.1369 103.779 58.9579L103.287 59.0485ZM59.6495 124.389L60.1412 124.299L59.6495 124.389ZM52.4504 125.753L52.9422 125.662L52.4504 125.753ZM11.0256 120.891L10.5339 120.982L11.0256 120.891ZM6.98309 126.864L7.07614 127.355L6.98309 126.864ZM1.08662 122.774L0.5949 122.865L1.08662 122.774ZM5.12911 116.802L5.22217 117.293L5.12911 116.802ZM105.042 111.595C104.843 111.787 104.838 112.103 105.03 112.302C105.222 112.5 105.539 112.505 105.737 112.314L105.042 111.595ZM145.522 86.6831C145.741 86.5157 145.784 86.202 145.616 85.9823C145.449 85.7627 145.135 85.7202 144.916 85.8876L145.522 86.6831ZM102.635 114.385C102.873 114.246 102.954 113.94 102.815 113.702C102.676 113.463 102.37 113.382 102.131 113.521L102.635 114.385ZM97.3897 119.453C97.3668 119.728 97.5714 119.97 97.8466 119.992C98.1218 120.015 98.3634 119.811 98.3863 119.536L97.3897 119.453ZM51.2729 35.5501C51.0443 35.705 50.9845 36.0159 51.1394 36.2445C51.2942 36.4731 51.6051 36.5329 51.8337 36.378L51.2729 35.5501ZM67.0331 26.3041C67.2749 26.1709 67.363 25.8668 67.2297 25.6249C67.0964 25.383 66.7924 25.295 66.5505 25.4283L67.0331 26.3041ZM22.0923 65.2042C21.9347 65.4309 21.9906 65.7425 22.2173 65.9002C22.444 66.0579 22.7556 66.0019 22.9133 65.7752L22.0923 65.2042ZM46.4643 40.7522C46.6825 40.583 46.7224 40.2689 46.5532 40.0507C46.3841 39.8324 46.07 39.7926 45.8517 39.9617L46.4643 40.7522ZM53.9911 140.405C54.1507 141.272 53.5866 142.095 52.7474 142.254L52.9335 143.236C54.3252 142.973 55.2317 141.62 54.9745 140.224L53.9911 140.405ZM52.7474 142.254C51.9102 142.412 51.0945 141.854 50.9352 140.989L49.9517 141.171C50.2092 142.568 51.5398 143.5 52.9335 143.236L52.7474 142.254ZM50.9352 140.989C50.7755 140.123 51.3397 139.3 52.1789 139.141L51.9927 138.158C50.601 138.422 49.6946 139.775 49.9517 141.171L50.9352 140.989ZM52.1789 139.141C53.016 138.982 53.8318 139.541 53.9911 140.405L54.9745 140.224C54.717 138.827 53.3865 137.894 51.9927 138.158L52.1789 139.141ZM157.4 31.8837C157.09 32.0615 156.738 32.1867 156.36 32.2339L156.484 33.2262C157.003 33.1615 157.481 32.9902 157.897 32.7513L157.4 31.8837ZM156.353 32.2348C154.882 32.4379 153.642 31.5249 153.484 30.3226L152.493 30.4531C152.736 32.301 154.57 33.4905 156.49 33.2254L156.353 32.2348ZM153.484 30.3226C153.325 29.1171 154.286 27.9017 155.759 27.6983L155.622 26.7077C153.703 26.9726 152.25 28.6084 152.493 30.4531L153.484 30.3226ZM155.76 27.6982C155.863 27.6837 155.954 27.6761 156.035 27.6771L156.048 26.6772C155.899 26.6753 155.753 26.6894 155.621 26.7078L155.76 27.6982ZM156.498 26.9725C155.751 25.3089 154.809 23.7288 153.679 22.2785L152.89 22.8932C153.969 24.2784 154.871 25.7892 155.585 27.3818L156.498 26.9725ZM153.679 22.2787C151.771 19.8286 149.331 17.7408 146.413 16.2077L145.948 17.093C148.737 18.5582 151.067 20.5525 152.89 22.893L153.679 22.2787ZM146.414 16.208C143.743 14.8011 140.902 13.9724 138.033 13.6956L137.937 14.691C140.678 14.9554 143.393 15.7472 145.948 17.0927L146.414 16.208ZM137.513 14.359C138.012 15.7794 137.934 17.3845 137.155 18.8035L138.031 19.2847C138.954 17.6038 139.045 15.702 138.457 14.0276L137.513 14.359ZM137.154 18.8049C135.671 21.5267 132.205 22.5541 129.409 21.0848L128.944 21.97C132.211 23.6872 136.281 22.4969 138.032 19.2834L137.154 18.8049ZM129.409 21.0848C127.509 20.0869 126.419 18.1916 126.387 16.2212L125.387 16.2372C125.425 18.5655 126.714 20.7985 128.944 21.9701L129.409 21.0848ZM125.68 15.7744C120.909 17.953 116.741 21.6775 114.014 26.6685L114.891 27.148C117.512 22.3514 121.516 18.7752 126.095 16.684L125.68 15.7744ZM114.013 26.669C107.584 38.4697 111.627 52.948 123.097 58.9888L123.563 58.104C112.619 52.3407 108.711 38.492 114.892 27.1475L114.013 26.669ZM123.097 58.9887C125.443 60.2256 127.918 61.0105 130.433 61.3778L130.577 60.3882C128.172 60.037 125.806 59.2866 123.563 58.104L123.097 58.9887ZM130.995 60.983C131.513 58.4432 133.077 56.7031 134.963 56.5014L134.856 55.5071C132.374 55.7726 130.582 58.0034 130.015 60.783L130.995 60.983ZM134.961 56.5016C136.928 56.2997 138.924 57.8061 139.959 60.3492L140.885 59.9723C139.76 57.2067 137.442 55.2417 134.858 55.5069L134.961 56.5016ZM140.564 60.6403C146.67 58.8372 152.162 54.6362 155.492 48.5289L154.614 48.0502C151.414 53.9182 146.14 57.951 140.281 59.6812L140.564 60.6403ZM155.492 48.529C158.052 43.8356 158.949 38.7132 158.386 33.8761L157.393 33.9917C157.932 38.6268 157.073 43.5411 154.614 48.0501L155.492 48.529ZM158.386 33.8741C158.319 33.3241 158.236 32.7772 158.136 32.2336L157.152 32.4148C157.249 32.938 157.329 33.4643 157.393 33.9937L158.386 33.8741ZM158.058 32.6048L158.063 32.5981L157.235 32.0369L157.23 32.0436L158.058 32.6048ZM123.024 47.9457C122.871 48.228 122.5 48.3451 122.195 48.1833L121.727 49.0666C122.503 49.4786 123.483 49.2004 123.904 48.421L123.024 47.9457ZM122.193 48.1819C121.888 48.0227 121.788 47.6633 121.938 47.3895L121.061 46.9089C120.636 47.6855 120.941 48.6555 121.729 49.068L122.193 48.1819ZM121.941 47.3843C122.092 47.1009 122.466 46.9802 122.779 47.1469L123.249 46.2642C122.467 45.848 121.479 46.1247 121.058 46.9142L121.941 47.3843ZM122.782 47.1489C123.075 47.3015 123.182 47.6581 123.026 47.9426L123.902 48.4242C124.33 47.6449 124.031 46.6722 123.245 46.2621L122.782 47.1489ZM121.213 31.6337C120.756 32.4736 119.675 32.7975 118.797 32.3393L118.334 33.2259C119.679 33.9273 121.365 33.4479 122.092 32.1113L121.213 31.6337ZM118.798 32.3401C117.927 31.8813 117.608 30.8304 118.067 29.9928L117.19 29.5122C116.455 30.8533 116.98 32.5131 118.333 33.2251L118.798 32.3401ZM118.068 29.99C118.524 29.1457 119.604 28.8226 120.482 29.2848L120.948 28.3999C119.602 27.6914 117.914 28.1715 117.188 29.515L118.068 29.99ZM120.482 29.2848C121.354 29.7437 121.673 30.7945 121.214 31.6321L122.091 32.1128C122.826 30.7717 122.301 29.1119 120.948 28.3999L120.482 29.2848ZM136.807 37.14C136.04 38.5476 134.236 39.0898 132.781 38.3212L132.314 39.2053C134.243 40.2248 136.651 39.5159 137.685 37.6186L136.807 37.14ZM132.781 38.3212C131.33 37.5539 130.794 35.7935 131.558 34.3921L130.68 33.9135C129.642 35.817 130.383 38.1844 132.314 39.2053L132.781 38.3212ZM131.558 34.3913C132.324 32.98 134.129 32.4413 135.583 33.2058L136.049 32.3206C134.122 31.3083 131.713 32.0095 130.679 33.9143L131.558 34.3913ZM135.582 33.2053C137.035 33.9729 137.575 35.7319 136.802 37.1398L137.679 37.6209C138.728 35.7085 137.98 33.3417 136.05 32.3212L135.582 33.2053ZM137.334 37.8716L137.339 37.8706L137.153 36.888L137.148 36.889L137.334 37.8716ZM149.794 43.5417C149.467 44.1405 148.702 44.3734 148.082 44.0461L147.615 44.9303C148.712 45.5096 150.08 45.1062 150.672 44.0202L149.794 43.5417ZM148.084 44.0469C147.468 43.7189 147.242 42.9785 147.564 42.3818L146.684 41.9066C146.091 43.0058 146.524 44.3486 147.614 44.9295L148.084 44.0469ZM147.563 42.3851C147.889 41.7906 148.655 41.5571 149.276 41.8847L149.743 41.0005C148.646 40.4213 147.279 40.8243 146.686 41.9033L147.563 42.3851ZM149.276 41.8847C149.895 42.2117 150.116 42.9558 149.795 43.5401L150.671 44.0218C151.27 42.9326 150.84 41.5802 149.743 41.0005L149.276 41.8847ZM20.6952 151.243C22.5514 151.913 24.185 151.181 25.4128 150.132C26.6363 149.087 27.536 147.668 28.0057 146.745L27.1143 146.291C26.6781 147.149 25.8506 148.443 24.7632 149.372C23.68 150.298 22.4191 150.802 21.0348 150.303L20.6952 151.243ZM28.0057 146.744C29.6237 143.562 31.4473 138.902 33.3614 134.139C35.2827 129.358 37.2988 124.465 39.3151 120.76L38.4367 120.282C36.388 124.046 34.3513 128.994 32.4335 133.766C30.5085 138.556 28.7066 143.159 27.1143 146.291L28.0057 146.744ZM39.315 120.76C43.0605 113.885 49.2254 101.287 55.9378 90.7575C59.2934 85.494 62.7645 80.7828 66.112 77.5812C69.4909 74.3496 72.5957 72.7963 75.2595 73.4826L75.509 72.5143C72.2916 71.6853 68.8245 73.6031 65.4208 76.8585C61.9857 80.1439 58.4634 84.9356 55.0946 90.22C48.3582 100.787 42.1502 113.465 38.4369 120.281L39.315 120.76ZM75.2595 73.4826C76.7737 73.8728 77.5805 75.1347 77.7138 76.7786C77.848 78.4338 77.2775 80.3927 76.0983 81.9325L76.8922 82.5405C78.2115 80.8179 78.8661 78.6165 78.7105 76.6978C78.5541 74.7676 77.5563 73.0417 75.509 72.5143L75.2595 73.4826ZM76.0982 81.9326C71.693 87.6878 65.6731 94.8584 62.0923 101.015C60.3061 104.087 59.0749 106.989 58.9986 109.388C58.96 110.602 59.2163 111.713 59.8692 112.647C60.5218 113.581 61.5363 114.288 62.9254 114.758L63.2458 113.811C62.0057 113.391 61.1906 112.792 60.6888 112.074C60.1874 111.357 59.9646 110.473 59.9981 109.42C60.066 107.285 61.1834 104.567 62.9567 101.518C66.4951 95.4341 72.4383 88.3594 76.8923 82.5404L76.0982 81.9326ZM62.9368 114.762C65.603 115.593 68.2909 114.359 69.5899 112.043L68.7177 111.554C67.6318 113.49 65.4155 114.487 63.2344 113.807L62.9368 114.762ZM69.5698 112.076C73.1703 106.677 79.0351 94.6754 91.4017 84.3728L90.7616 83.6044C78.2481 94.0295 72.2611 106.238 68.7378 111.521L69.5698 112.076ZM91.4017 84.3727C93.2287 82.8504 94.8704 82.2722 96.2163 82.2579C97.5579 82.2437 98.6546 82.7881 99.4153 83.6082C100.959 85.2728 101.098 88.0096 99.1032 89.6151L99.7301 90.3941C102.259 88.3593 102.012 84.9369 100.148 82.9281C99.2053 81.9114 97.8427 81.2406 96.2057 81.258C94.5728 81.2753 92.7163 81.9757 90.7616 83.6045L91.4017 84.3727ZM99.1453 89.5847C95.5652 91.8983 90.8439 97.1073 86.1381 103.441C81.4195 109.793 76.6741 117.333 73.0533 124.367L73.9424 124.825C77.5368 117.842 82.2528 110.348 86.9408 104.038C91.6415 97.7105 96.272 92.6322 99.688 90.4245L99.1453 89.5847ZM73.0534 124.367C70.9745 128.403 69.2604 132.282 68.1335 135.68C67.0121 139.062 66.4508 142.03 66.7384 144.216L67.7299 144.086C67.473 142.133 67.9719 139.345 69.0827 135.995C70.188 132.662 71.8781 128.832 73.9424 124.825L73.0534 124.367ZM66.7384 144.217C66.9575 145.876 67.8862 147.521 69.3418 148.324C70.846 149.154 72.7796 149.016 74.8136 147.352L74.1803 146.578C72.3886 148.044 70.8941 148.039 69.8249 147.449C68.7071 146.832 67.9172 145.505 67.7298 144.086L66.7384 144.217ZM74.8133 147.352C76.6532 145.849 77.9961 143.399 79.0325 140.992C79.5542 139.78 80.0057 138.561 80.4058 137.453C80.8085 136.337 81.1547 135.347 81.4739 134.566L80.5483 134.187C80.2187 134.994 79.8614 136.015 79.4652 137.113C79.0664 138.218 78.6233 139.414 78.114 140.597C77.0883 142.979 75.823 145.236 74.1806 146.578L74.8133 147.352ZM81.4741 134.565C83.7655 128.947 89.4935 119.136 93.7424 114.168L92.9825 113.518C88.6554 118.577 82.8746 128.483 80.5481 134.188L81.4741 134.565ZM93.7423 114.168C105.037 100.977 120.619 93.4509 134.981 85.3002C149.301 77.1733 162.398 68.4242 168.355 52.7717L167.421 52.416C161.601 67.7059 148.803 76.3062 134.487 84.4305C120.214 92.5313 104.422 100.158 92.9827 113.518L93.7423 114.168ZM168.355 52.7717C174.813 35.8074 170.826 19.8868 160.945 10.1651C151.058 0.437052 135.337 -3.01666 118.491 4.81284L118.912 5.71968C135.412 -1.94854 150.677 1.46566 160.244 10.8779C169.816 20.2965 173.75 35.7885 167.421 52.416L168.355 52.7717ZM118.491 4.81287C70.9705 26.9066 29.0768 52.7325 8.10607 103.186L9.02948 103.57C29.8479 53.4826 71.4365 27.7927 118.912 5.71965L118.491 4.81287ZM8.12472 103.147C6.68334 105.902 7.78656 108.691 9.76684 110.236C11.7491 111.784 14.7057 112.159 16.9995 110.028L16.3189 109.295C14.4567 111.025 12.0602 110.758 10.3821 109.448C8.70202 108.137 7.83749 105.853 9.01082 103.61L8.12472 103.147ZM17.0393 109.986C17.6661 109.253 18.506 107.92 19.5026 106.216C20.5057 104.501 21.6903 102.37 23.0074 100.017C25.6453 95.3025 28.8234 89.6789 32.1946 84.6048C35.5742 79.5183 39.1135 75.0378 42.4616 72.5689C44.1339 71.3357 45.711 70.6403 47.1608 70.5782C48.5836 70.5172 49.9537 71.0629 51.248 72.4649L51.9828 71.7866C50.518 70.2 48.8747 69.5038 47.118 69.5791C45.3882 69.6532 43.6195 70.4725 41.8681 71.7641C38.3687 74.3446 34.7485 78.9539 31.3617 84.0514C27.9667 89.1613 24.7716 94.816 22.1347 99.5283C20.8145 101.888 19.6363 104.007 18.6394 105.711C17.636 107.427 16.8386 108.682 16.2791 109.336L17.0393 109.986ZM51.2017 72.4066C52.6471 74.5356 52.303 76.8021 50.7296 78.4074L51.4437 79.1074C53.3394 77.1734 53.7507 74.3807 52.0291 71.8449L51.2017 72.4066ZM50.7544 78.3838C50.1042 78.962 48.9268 80.4575 47.4189 82.5768C45.8967 84.7163 44.0046 87.5398 41.916 90.8203C37.739 97.381 32.7687 105.781 28.393 114.211C24.021 122.634 20.2278 131.114 18.4225 137.826C17.5213 141.177 17.1019 144.134 17.3823 146.441C17.6649 148.766 18.6775 150.516 20.6955 151.243L21.0344 150.302C19.4927 149.747 18.63 148.418 18.375 146.32C18.1178 144.204 18.4984 141.394 19.3882 138.086C21.1647 131.481 24.9172 123.078 29.2806 114.672C33.6404 106.273 38.5953 97.898 42.7596 91.3573C44.8417 88.087 46.7241 85.2784 48.2338 83.1565C49.7578 81.0145 50.8695 79.6197 51.4189 79.131L50.7544 78.3838ZM103.603 59.4295C105.623 57.7718 107.593 57.3849 109.546 57.7992C111.534 58.2208 113.553 59.4831 115.607 61.2299L116.255 60.4681C114.157 58.6839 111.984 57.2941 109.754 56.821C107.488 56.3405 105.211 56.8161 102.969 58.6564L103.603 59.4295ZM115.607 61.2299C117.692 63.0029 118.744 64.2756 118.935 65.5821C119.123 66.8682 118.496 68.3624 116.658 70.644L117.436 71.2714C119.289 68.9722 120.179 67.1775 119.924 65.4373C119.673 63.7173 118.322 62.226 116.255 60.4681L115.607 61.2299ZM116.657 70.6442C113.613 74.4269 111.942 77.7443 111.345 80.4189C110.751 83.0839 111.212 85.2063 112.585 86.4267C113.958 87.6472 116.066 87.8078 118.411 86.9489C120.765 86.0865 123.446 84.1741 126.118 81.0795L125.361 80.426C122.764 83.4344 120.215 85.2227 118.067 86.0099C115.908 86.8006 114.24 86.5599 113.249 85.6793C112.258 84.7986 111.768 83.1203 112.321 80.6365C112.873 78.1621 114.449 74.9824 117.436 71.2712L116.657 70.6442ZM126.118 81.0794C132.383 73.8212 139.41 69.6063 145.823 65.3437C152.223 61.0904 158.015 56.7855 161.584 49.3594L160.683 48.9262C157.24 56.0889 151.654 60.2672 145.27 64.5109C138.899 68.7451 131.735 73.0408 125.361 80.4261L126.118 81.0794ZM161.584 49.3595C167.902 36.2189 164.661 23.9171 156.794 16.1645C148.939 8.42403 136.492 5.2389 124.454 10.2445L124.838 11.1678C136.492 6.32193 148.514 9.40901 156.092 16.8767C163.657 24.3322 166.814 36.1744 160.683 48.9262L161.584 49.3595ZM124.454 10.2445C121.445 11.4961 118.668 13.8768 115.244 16.6772C111.799 19.4944 107.633 22.7977 101.78 26.0068L102.261 26.8836C108.195 23.6296 112.418 20.2797 115.877 17.4513C119.356 14.6062 121.998 12.3489 124.838 11.1678L124.454 10.2445ZM101.78 26.0067C93.008 30.8152 85.0775 34.4362 78.0397 38.1233C71.0351 41.793 64.9857 45.4951 60.1652 50.3944L60.8781 51.0958C65.5864 46.3105 71.5229 42.6664 78.5038 39.0091C85.4514 35.3693 93.506 31.6826 102.261 26.8836L101.78 26.0067ZM60.1655 50.3942C58.7038 51.8779 57.9848 53.4016 57.9044 54.7871C57.8233 56.1828 58.3959 57.3907 59.4153 58.1831C61.4513 59.7655 65.0506 59.5865 68.5495 56.6168L67.9024 55.8544C64.6062 58.6521 61.5487 58.5747 60.029 57.3935C59.2707 56.8041 58.8406 55.9138 58.9027 54.8451C58.9653 53.7662 59.5349 52.4592 60.8778 51.096L60.1655 50.3942ZM68.5495 56.6168C70.7661 54.7363 78.8706 49.0413 86.8563 44.6247C90.8503 42.4156 94.7824 40.5447 97.9155 39.6256C99.4858 39.1649 100.814 38.956 101.832 39.0396C102.839 39.1222 103.466 39.4797 103.792 40.0868L104.673 39.6139C104.131 38.6043 103.122 38.1421 101.914 38.0429C100.717 37.9446 99.2506 38.1918 97.634 38.666C94.3932 39.6167 90.3838 41.5309 86.3723 43.7496C78.3467 48.1883 70.1832 53.9194 67.9025 55.8543L68.5495 56.6168ZM103.792 40.0873C104.181 40.8101 104.026 41.7293 103.297 42.9368C102.576 44.1314 101.378 45.4637 99.9692 46.9067C98.5794 48.3299 96.9744 49.8706 95.5284 51.4164C94.0769 52.9682 92.7359 54.5756 91.8451 56.1839L92.7198 56.6685C93.5497 55.1703 94.8224 53.635 96.2587 52.0995C97.7006 50.5581 99.2574 49.0669 100.685 47.6053C102.093 46.1634 103.366 44.7579 104.154 43.4535C104.933 42.1618 105.322 40.8207 104.673 39.6134L103.792 40.0873ZM91.845 56.1841C90.8613 57.9611 90.5056 59.5301 90.7534 60.7844C91.009 62.0777 91.8904 62.9527 93.1581 63.3136C94.3976 63.6664 95.9887 63.5284 97.7579 62.9015C99.535 62.2718 101.53 61.1359 103.604 59.4351L102.97 58.662C100.967 60.3046 99.0712 61.3752 97.4239 61.959C95.7686 62.5455 94.4019 62.6279 93.4319 62.3518C92.4902 62.0837 91.9103 61.4807 91.7345 60.5906C91.5509 59.6614 91.7937 58.3416 92.7199 56.6684L91.845 56.1841ZM103.779 58.9579L103.778 58.9523L102.794 59.1336L102.795 59.1392L103.779 58.9579ZM59.1578 124.48C59.4797 126.227 58.3408 127.9 56.6284 128.224L56.8145 129.206C59.078 128.778 60.561 126.577 60.1412 124.299L59.1578 124.48ZM56.6284 128.224C54.918 128.548 53.2638 127.408 52.9422 125.662L51.9587 125.844C52.3788 128.123 54.5489 129.636 56.8145 129.206L56.6284 128.224ZM52.9422 125.662C52.6202 123.915 53.7592 122.243 55.4716 121.918L55.2855 120.936C53.0219 121.365 51.539 123.566 51.9587 125.844L52.9422 125.662ZM55.4716 121.918C57.182 121.594 58.8362 122.735 59.1578 124.48L60.1412 124.299C59.7212 122.019 57.551 120.507 55.2855 120.936L55.4716 121.918ZM10.5339 120.982C10.9969 123.495 9.35903 125.905 6.89003 126.373L7.07614 127.355C10.0963 126.783 12.0782 123.845 11.5173 120.801L10.5339 120.982ZM6.89003 126.373C4.42303 126.84 2.04107 125.195 1.57834 122.684L0.5949 122.865C1.1561 125.91 4.05401 127.928 7.07614 127.355L6.89003 126.373ZM1.57834 122.684C1.11528 120.17 2.75317 117.761 5.22217 117.293L5.03605 116.311C2.01591 116.883 0.0340424 119.821 0.5949 122.865L1.57834 122.684ZM5.22217 117.293C7.68917 116.826 10.0711 118.471 10.5339 120.982L11.5173 120.801C10.9561 117.755 8.05818 115.738 5.03605 116.311L5.22217 117.293ZM87.7714 67.349C87.9957 68.5659 87.2021 69.7281 86.0135 69.9532L86.1996 70.9358C87.9394 70.6062 89.0769 68.9154 88.7549 67.1678L87.7714 67.349ZM86.0135 69.9532C84.8269 70.178 83.6765 69.3872 83.4526 68.1721L82.4692 68.3533C82.7916 70.1028 84.4579 71.2657 86.1996 70.9358L86.0135 69.9532ZM83.4526 68.1721C83.2284 66.9552 84.022 65.793 85.2106 65.5679L85.0244 64.5854C83.2847 64.9149 82.1472 66.6057 82.4692 68.3533L83.4526 68.1721ZM85.2106 65.5679C86.3972 65.3431 87.5476 66.1339 87.7714 67.349L88.7549 67.1678C88.4325 65.4183 86.7662 64.2554 85.0244 64.5854L85.2106 65.5679ZM105.737 112.314C111.284 106.951 118.392 102.691 125.55 98.6929C132.685 94.7076 139.89 90.9726 145.522 86.6831L144.916 85.8876C139.358 90.1212 132.246 93.8078 125.063 97.8198C117.903 101.819 110.691 106.132 105.042 111.595L105.737 112.314ZM102.383 113.953C102.131 113.521 102.131 113.521 102.131 113.521C102.131 113.521 102.131 113.522 102.131 113.522C102.13 113.522 102.13 113.522 102.13 113.522C102.129 113.523 102.128 113.523 102.126 113.524C102.124 113.526 102.12 113.528 102.116 113.531C102.106 113.536 102.093 113.544 102.076 113.554C102.043 113.575 101.994 113.604 101.933 113.643C101.811 113.72 101.638 113.832 101.431 113.977C101.016 114.266 100.46 114.684 99.8932 115.204C98.7836 116.222 97.5338 117.719 97.3897 119.453L98.3863 119.536C98.4973 118.2 99.4951 116.926 100.569 115.941C101.094 115.459 101.614 115.068 102.002 114.798C102.196 114.663 102.357 114.558 102.467 114.488C102.523 114.453 102.566 114.427 102.594 114.409C102.609 114.401 102.619 114.394 102.626 114.39C102.63 114.388 102.632 114.387 102.633 114.386C102.634 114.386 102.635 114.385 102.635 114.385C102.635 114.385 102.635 114.385 102.635 114.385C102.635 114.385 102.635 114.385 102.635 114.385C102.635 114.385 102.635 114.385 102.383 113.953ZM51.8337 36.378C56.2444 33.39 58.8445 30.816 67.0331 26.3041L66.5505 25.4283C58.3145 29.9663 55.578 32.6336 51.2729 35.5501L51.8337 36.378ZM22.9133 65.7752C29.7171 55.9937 39.4658 46.1753 46.4643 40.7522L45.8517 39.9617C38.7765 45.4443 28.9564 55.3359 22.0923 65.2042L22.9133 65.7752Z" fill="white"/>
</svg>
