<svg width="152" height="152" viewBox="0 0 152 152" fill="none" xmlns="http://www.w3.org/2000/svg">
<path d="M136.326 117.988C136.329 115.657 135.42 113.463 133.764 111.814L127.57 105.635C125.186 103.258 124.51 99.8545 125.807 96.7547C127.102 93.6535 130.006 91.7305 133.381 91.7351L142.197 91.7471C144.54 91.7502 146.744 90.8453 148.404 89.2003C150.063 87.5537 150.979 85.3634 150.982 83.0325L151 69.0792C151.008 64.268 147.077 60.348 142.238 60.3405L134.404 60.3299C131.027 60.3254 128.129 58.3948 126.843 55.2906C125.555 52.1878 126.24 48.786 128.63 46.4144L134.305 40.7874C137.73 37.3901 137.737 31.8538 134.32 28.4459L124.414 18.5666C120.998 15.1603 115.432 15.1512 112.007 18.55L105.482 25.0214C103.091 27.393 99.669 28.0652 96.5523 26.7752L96.5189 26.7616C93.422 25.4655 91.5021 22.5878 91.5067 19.2419L91.5204 9.75538C91.5264 4.94416 87.5957 1.02418 82.7581 1.01813L68.7285 1.00001C66.3849 0.996986 64.1811 1.90183 62.521 3.54686C60.8609 5.1934 59.9465 7.38376 59.9435 9.7146L59.9329 17.6029C59.9283 20.9594 57.9857 23.8416 54.866 25.1211C51.7447 26.4021 48.3243 25.7208 45.9412 23.3431L40.5964 18.0138C38.9409 16.3642 36.7385 15.4518 34.3949 15.4503C32.0514 15.4473 29.8475 16.3521 28.1874 17.9972L18.2541 27.8507C14.8291 31.248 14.82 36.7844 18.2374 40.1907L24.4328 46.3675C26.8174 48.7452 27.4933 52.1486 26.1962 55.2498C24.8991 58.3495 21.9981 60.2725 18.6217 60.268L9.80629 60.2559C7.46271 60.2529 5.25734 61.1577 3.59724 62.8043C1.93714 64.4493 1.02127 66.6396 1.01975 68.972L1.00001 82.9238C0.993932 87.735 4.92471 91.655 9.76225 91.6625L17.598 91.6731C20.9744 91.6776 23.8724 93.6082 25.1588 96.7109C26.4468 99.8152 25.7618 103.217 23.3711 105.587L17.6982 111.214C14.2732 114.611 14.2656 120.149 17.6815 123.556L27.589 133.435C31.0049 136.841 36.5714 136.849 39.9964 133.451L46.5214 126.979C48.9121 124.607 52.3341 123.935 55.4523 125.225L55.4857 125.238C58.5841 126.534 60.5039 129.412 60.4994 132.758L60.4872 142.243C60.4842 144.574 61.394 146.766 63.048 148.417C63.8667 149.234 64.8205 149.87 65.8579 150.304C66.918 150.746 68.0663 150.98 69.2495 150.982L83.2791 151C85.6227 151.003 87.828 150.098 89.4866 148.452C91.1467 146.807 92.0626 144.616 92.0656 142.285L92.0763 134.399C92.0808 131.042 94.0219 128.16 97.1431 126.879C100.264 125.598 103.685 126.279 106.068 128.657L111.413 133.986C113.068 135.636 115.269 136.547 117.614 136.55C119.958 136.553 122.163 135.648 123.822 134.001L133.755 124.149C135.415 122.504 136.331 120.312 136.334 117.983L136.326 117.988ZM102.257 79.8709C101.042 80.3497 98.9126 80.8271 96.5599 81.2576C89.8314 82.4857 84.6673 87.8725 83.6527 94.6006C83.0103 98.8635 82.2053 103.226 81.335 105.632C79.8434 109.716 73.0785 109.744 71.5323 105.675C70.6119 103.176 69.6672 98.7245 68.8956 94.5085C67.7504 88.2516 62.9599 83.2878 56.7296 81.8543C54.1126 81.2516 51.6718 80.6307 50.3353 80.1398C46.3513 78.6141 46.3285 73.685 50.3003 72.1427C51.5336 71.6608 53.7436 71.1442 56.1752 70.6638C62.7974 69.3557 67.8871 64.0716 68.9108 57.4341C69.5715 53.1501 70.4084 48.724 71.3227 46.2769C72.7838 42.2285 79.5488 42.1998 81.0752 46.2346C82.02 48.7286 82.9373 53.1909 83.677 57.4553C84.7888 63.8632 89.7068 68.9614 96.1012 70.3179C98.6073 70.8496 100.922 71.4161 102.224 71.9161C106.208 73.398 106.229 78.3527 102.259 79.8694L102.257 79.8709Z" stroke="white" stroke-width="2"/>
</svg>
