<svg width="222" height="152" viewBox="0 0 222 152" fill="none" xmlns="http://www.w3.org/2000/svg">
<path class="emailIcon" d="M8.1424 6.08643C11.6338 2.90987 16.1486 1 21.0647 1H201.415C212.23 1 220.999 10.4517 220.999 22.1251V129.875C220.999 141.548 212.23 151 201.415 151H20.6032C16.0884 151 11.9147 149.363 8.60391 146.596C3.96874 142.718 0.999023 136.676 0.999023 129.875V22.6318C0.999023 15.9864 3.76809 10.062 8.1424 6.08643ZM8.1424 6.08643L75.5831 76.0487M147.478 75.9708L125.406 98.8693C117.641 106.937 105.341 106.937 97.5751 98.8693L75.5831 76.0487M147.478 75.9708L213.374 7.56754M147.478 75.9708L213.374 145.368M75.5831 76.0487L8.60391 146.576L8.1424 147.083" stroke="white" stroke-width="2" stroke-miterlimit="10"/>
</svg>
