<?xml version="1.0" encoding="UTF-8"?><svg id="_ícones" xmlns="http://www.w3.org/2000/svg" viewBox="0 0 1000 1000"><path d="m897.19,777.93c.02-15.43-5.97-29.95-16.87-40.87l-40.78-40.9c-15.7-15.74-20.15-38.27-11.61-58.79,8.53-20.53,27.65-33.26,49.87-33.23l58.04.08c15.43.02,29.94-5.97,40.87-16.86,10.92-10.9,16.95-25.4,16.97-40.83l.12-92.37c.05-31.85-25.83-57.8-57.69-57.85l-51.58-.07c-22.23-.03-41.31-12.81-49.78-33.36-8.48-20.54-3.97-43.06,11.77-58.76l37.36-37.25c22.55-22.49,22.6-59.14.1-81.7l-65.22-65.4c-22.49-22.55-59.14-22.61-81.69-.11l-42.96,42.84c-15.74,15.7-38.27,20.15-58.79,11.61l-.22-.09c-20.39-8.58-33.03-27.63-33-49.78l.09-62.8c.04-31.85-25.84-57.8-57.69-57.84l-92.37-.12c-15.43-.02-29.94,5.97-40.87,16.86-10.93,10.9-16.95,25.4-16.97,40.83l-.07,52.22c-.03,22.22-12.82,41.3-33.36,49.77-20.55,8.48-43.07,3.97-58.76-11.77l-35.19-35.28c-10.9-10.92-25.4-16.96-40.83-16.97-15.43-.02-29.94,5.97-40.87,16.86l-65.4,65.23c-22.55,22.49-22.61,59.14-.11,81.69l40.79,40.89c15.7,15.74,20.15,38.27,11.61,58.8-8.54,20.52-27.64,33.25-49.87,33.22l-58.04-.08c-15.43-.02-29.95,5.97-40.88,16.87-10.93,10.89-16.96,25.39-16.97,40.83l-.13,92.36c-.04,31.85,25.84,57.8,57.69,57.85l51.59.07c22.23.03,41.31,12.81,49.78,33.35,8.48,20.55,3.97,43.07-11.77,58.76l-37.35,37.25c-22.55,22.49-22.6,59.15-.11,81.7l65.23,65.4c22.49,22.55,59.14,22.6,81.69.11l42.96-42.85c15.74-15.7,38.27-20.15,58.8-11.61l.22.09c20.4,8.58,33.04,27.63,33.01,49.78l-.08,62.79c-.02,15.43,5.97,29.94,16.86,40.87,5.39,5.41,11.67,9.62,18.5,12.49,6.98,2.93,14.54,4.48,22.33,4.49l92.37.12c15.43.02,29.95-5.97,40.87-16.87,10.93-10.89,16.96-25.39,16.98-40.82l.07-52.21c.03-22.22,12.81-41.3,33.36-49.78,20.55-8.48,43.07-3.97,58.76,11.77l35.19,35.28c10.9,10.92,25.39,16.95,40.83,16.97,15.43.02,29.95-5.97,40.87-16.87l65.4-65.22c10.93-10.89,16.96-25.4,16.98-40.82Zm-224.31-252.33c-8,3.17-22.02,6.33-37.51,9.18-44.3,8.13-78.3,43.79-84.98,88.33-4.23,28.22-9.53,57.1-15.26,73.03-9.82,27.03-54.36,27.22-64.54.28-6.06-16.54-12.28-46.01-17.36-73.92-7.54-41.42-39.08-74.28-80.1-83.77-17.23-3.99-33.3-8.1-42.1-11.35-26.23-10.1-26.38-42.73-.23-52.94,8.12-3.19,22.67-6.61,38.68-9.79,43.6-8.66,77.11-43.64,83.85-87.58,4.35-28.36,9.86-57.66,15.88-73.86,9.62-26.8,54.16-26.99,64.21-.28,6.22,16.51,12.26,46.05,17.13,74.28,7.32,42.42,39.7,76.17,81.8,85.15,16.5,3.52,31.74,7.27,40.31,10.58,26.23,9.81,26.37,42.61.23,52.65Z"/></svg>