<svg width="182" height="152" viewBox="0 0 182 152" fill="none" xmlns="http://www.w3.org/2000/svg">
<path d="M35.0694 71.5738C36.2429 71.5738 37.1942 72.5351 37.1942 73.7209C37.1942 74.9067 36.2429 75.8679 35.0694 75.8679C33.8959 75.8679 32.9445 74.9067 32.9445 73.7209C32.9445 72.5351 33.8959 71.5738 35.0694 71.5738Z" stroke="white"/>
<path d="M74.22 111.657C74.8519 111.657 75.3641 112.174 75.3641 112.813C75.3641 113.451 74.8519 113.969 74.22 113.969C73.5881 113.969 73.0759 113.451 73.0759 112.813C73.0759 112.174 73.5881 111.657 74.22 111.657Z" stroke="white"/>
<path d="M141.561 128.503C142.193 128.503 142.705 129.021 142.705 129.659C142.705 130.298 142.193 130.815 141.561 130.815C140.929 130.815 140.417 130.298 140.417 129.659C140.417 129.021 140.929 128.503 141.561 128.503Z" stroke="white"/>
<path d="M109.852 30.7287C110.484 30.7287 110.996 31.2463 110.996 31.8848C110.996 32.5233 110.484 33.0409 109.852 33.0409C109.22 33.0409 108.708 32.5233 108.708 31.8848C108.708 31.2463 109.22 30.7287 109.852 30.7287Z" stroke="white"/>
<path d="M77.489 1C78.6625 1 79.6138 1.96127 79.6138 3.14707C79.6138 4.33287 78.6625 5.29416 77.489 5.29416C76.3154 5.29416 75.3641 4.33287 75.3641 3.14707C75.3641 1.96127 76.3154 1 77.489 1Z" stroke="white"/>
<path d="M62.4445 76.262C61.1795 75.8972 61.1795 74.0857 62.4445 73.7209L92.2607 65.1227C92.9393 64.927 93.3418 64.2225 93.1702 63.5309L85.6313 33.1398C85.3114 31.8504 86.864 30.9447 87.8091 31.8693L110.086 53.6621C110.593 54.158 111.398 54.158 111.905 53.6621L134.183 31.8693C135.128 30.9447 136.68 31.8504 136.361 33.1398L128.822 63.5309C128.65 64.2225 129.052 64.927 129.731 65.1227L159.547 73.7209C160.812 74.0857 160.812 75.8972 159.547 76.262L129.731 84.8602C129.052 85.0559 128.65 85.7603 128.822 86.452L136.361 116.843C136.68 118.132 135.128 119.038 134.183 118.114L111.905 96.3208C111.398 95.8248 110.593 95.8248 110.086 96.3208L87.8091 118.114C86.864 119.038 85.3114 118.132 85.6313 116.843L93.1702 86.452C93.3418 85.7603 92.9393 85.0559 92.2607 84.8602L62.4445 76.262Z" stroke="white"/>
<path d="M31.9124 50.4116C30.6239 50.6795 29.7947 49.0734 30.7492 48.1587L39.835 39.4523C40.3471 38.9616 40.3814 38.149 39.9127 37.6159L31.5953 28.1578C30.7215 27.1642 31.6833 25.6355 32.9445 26.0134L44.9493 29.6112C45.6259 29.8139 46.3396 29.4376 46.562 28.7609L50.5094 16.7534C50.9242 15.4919 52.7153 15.5693 53.0219 16.8619L55.9409 29.1661C56.1054 29.8595 56.7847 30.2959 57.4759 30.1522L69.7407 27.6028C71.0292 27.335 71.8585 28.941 70.9039 29.8557L61.8181 38.5621C61.3061 39.0528 61.2717 39.8655 61.7404 40.3985L70.0578 49.8566C70.9316 50.8503 69.9698 52.379 68.7086 52.001L56.7038 48.4033C56.0273 48.2005 55.3136 48.5768 55.0911 49.2535L51.1437 61.261C50.729 62.5225 48.9379 62.4451 48.6312 61.1525L45.7123 48.8483C45.5478 48.1549 44.8684 47.7185 44.1772 47.8622L31.9124 50.4116Z" stroke="white"/>
<path d="M149.818 41.8192C150.774 41.8192 151.549 42.6025 151.549 43.5686C151.549 44.5348 150.774 45.318 149.818 45.318C148.861 45.318 148.086 44.5348 148.086 43.5686C148.086 42.6025 148.861 41.8192 149.818 41.8192Z" stroke="white"/>
<path d="M44.6218 121.125C47.73 121.125 50.2496 123.671 50.2496 126.811C50.2496 129.951 47.73 132.496 44.6218 132.496C41.5137 132.496 38.9941 129.951 38.9941 126.811C38.9941 123.671 41.5137 121.125 44.6218 121.125Z" stroke="white"/>
<path d="M172.906 52.3156C174.659 52.3156 176.081 53.7516 176.081 55.5229C176.081 57.2942 174.659 58.7301 172.906 58.7301C171.153 58.7301 169.731 57.2942 169.731 55.5229C169.731 53.7516 171.153 52.3156 172.906 52.3156Z" stroke="white"/>
<path d="M179.804 93.447C182.12 102.258 181.093 111.891 176.547 120.862C176.506 120.943 176.403 120.983 176.314 120.953C176.225 120.923 176.187 120.835 176.229 120.755C183.558 106.29 181.674 90.0823 171.311 78.4618C171.253 78.3952 171.268 78.2995 171.349 78.2431C171.426 78.1876 171.538 78.1925 171.596 78.2591C175.61 82.7597 178.361 87.9437 179.807 93.4461L179.804 93.447Z" stroke="white"/>
<path d="M175.918 87.9417C180.068 103.731 174.206 120.744 160.616 132.344C160.543 132.405 160.431 132.41 160.368 132.351C160.304 132.292 160.308 132.193 160.38 132.132C173.875 120.615 179.697 103.717 175.575 88.0337C170.671 69.3776 149.777 58.7371 128.999 64.3114C128.902 64.3372 128.81 64.2925 128.788 64.2098C128.767 64.1272 128.825 64.042 128.921 64.0162C149.888 58.3913 170.972 69.1232 175.918 87.9417Z" stroke="white"/>
<path d="M15.0287 87.2039C6.61032 78.6991 1.5447 66.9439 1.00015 53.5161C0.995737 53.3952 1.08955 53.2776 1.21207 53.2507C1.3346 53.2238 1.43559 53.2984 1.44 53.4193C2.31848 75.0687 15.0412 92.3539 34.6392 98.522C34.7499 98.5584 34.7944 98.6787 34.7372 98.7991C34.6835 98.916 34.5508 98.9874 34.4402 98.951C26.8487 96.5629 20.2821 92.5182 15.0253 87.2073L15.0287 87.2039Z" stroke="white"/>
<path d="M23.1232 90.8332C8.03786 75.593 3.79811 52.0342 12.0603 29.3445C12.105 29.2252 12.2326 29.1419 12.3444 29.1657C12.4562 29.1896 12.5165 29.3053 12.4718 29.4245C4.2673 51.9534 8.4784 75.3531 23.4622 90.4907C41.2859 108.497 72.4912 106.267 93.0252 85.5221C93.1201 85.4262 93.2567 85.4136 93.3357 85.4934C93.4147 85.5731 93.4021 85.7112 93.3072 85.8071C72.5868 106.74 41.102 108.997 23.1232 90.8332Z" stroke="white"/>
<path d="M147.356 12.4109L146.893 12.5775L146.66 12.6482C145.454 13.08 144.364 13.7491 143.459 14.6329C142.345 15.7338 141.535 17.168 141.187 18.7941L140.607 21.8318C140.538 22.2156 140.005 22.2383 139.912 21.8545L139.17 18.7916C138.776 17.2615 137.988 15.8247 136.899 14.7011C136.039 13.8148 134.997 13.0977 133.861 12.6912L133.56 12.5725L133.141 12.4285C132.794 12.3099 132.816 11.8074 133.163 11.7114C133.303 11.6887 133.418 11.6635 133.535 11.6155C136.34 10.7065 138.475 8.21932 139.148 5.25241L139.217 5.03778L139.89 2.28802C139.983 1.90422 140.516 1.90422 140.585 2.28802L141.119 5.01506L141.165 5.25494C141.792 8.36578 143.995 10.709 146.917 11.5953C147.057 11.6433 147.196 11.666 147.336 11.714C147.522 11.7619 147.615 11.9059 147.615 12.0725C147.615 12.2164 147.522 12.3604 147.36 12.4084L147.356 12.4109Z" stroke="white"/>
<path d="M99.8354 135.481L100.525 135.232L100.872 135.127C102.671 134.483 104.295 133.486 105.645 132.168C107.305 130.527 108.513 128.389 109.031 125.965L109.896 121.437C109.998 120.864 110.794 120.831 110.932 121.403L112.038 125.969C112.625 128.25 113.8 130.391 115.424 132.066C116.705 133.388 118.26 134.457 119.953 135.063L120.402 135.24L121.026 135.454C121.544 135.631 121.511 136.38 120.993 136.523C120.785 136.557 120.613 136.595 120.438 136.666C116.256 138.021 113.074 141.729 112.071 146.152L111.969 146.472L110.965 150.571C110.826 151.143 110.031 151.143 109.929 150.571L109.133 146.506L109.064 146.148C108.13 141.511 104.846 138.018 100.489 136.696C100.281 136.625 100.073 136.591 99.8646 136.519C99.5873 136.448 99.4486 136.233 99.4486 135.985C99.4486 135.77 99.5873 135.556 99.8281 135.484L99.8354 135.481Z" stroke="white"/>
</svg>
