<svg width="177" height="152" viewBox="0 0 177 152" fill="none" xmlns="http://www.w3.org/2000/svg">
<path d="M32.7792 53.7803C32.4373 53.7803 32.1533 53.5583 32.0722 53.2195L31.145 49.4753C30.6583 47.6237 29.6964 45.9415 28.3752 44.6097C27.2858 43.5115 26.0051 42.6821 24.6839 42.2206L23.7858 41.8994C23.4671 41.7942 23.2642 41.5022 23.2758 41.1692C23.2874 40.8363 23.5076 40.5501 23.8321 40.4625C24.0291 40.4274 24.1508 40.404 24.2667 40.3573C27.6624 39.2825 30.2816 36.3795 31.1161 32.7755L31.2088 32.4834L32.0432 29.1365C32.1301 28.7918 32.4546 28.5348 32.7907 28.564C33.1384 28.5757 33.4166 28.8094 33.4803 29.154L34.2046 32.7813C34.9522 36.4204 37.5714 39.2358 41.2046 40.3164C41.2916 40.3456 41.3727 40.3632 41.4538 40.3865C41.5465 40.4099 41.645 40.4332 41.7378 40.4683C42.0623 40.5501 42.2825 40.8304 42.2825 41.1868C42.2825 41.5022 42.0738 41.7826 41.7609 41.876L40.8859 42.1681C39.4025 42.6879 38.0929 43.4823 36.9977 44.5279C35.607 45.8714 34.6508 47.5828 34.2336 49.4695L33.5093 53.1786C33.4455 53.5291 33.1616 53.7686 32.8023 53.7803C32.7965 53.7803 32.7849 53.7803 32.7792 53.7803ZM32.7676 29.154C32.7328 29.154 32.6343 29.1657 32.5995 29.2825L31.6666 32.9332C30.7916 36.7066 28.0275 39.7732 24.4522 40.9064C24.3073 40.9648 24.1508 40.9998 23.948 41.0349C23.8611 41.0583 23.8495 41.1576 23.8495 41.1868C23.8495 41.2335 23.8611 41.3094 23.9654 41.3445L24.881 41.6716C26.2775 42.1622 27.6335 43.0326 28.7866 44.1949C30.1831 45.6027 31.1914 47.3784 31.7071 49.3293L32.6343 53.0793C32.6575 53.1845 32.7444 53.1962 32.7849 53.1962C32.8255 53.1962 32.9182 53.1786 32.9356 53.0676L33.6599 49.3468C34.1003 47.3375 35.1144 45.5267 36.5863 44.1015C37.7452 42.9975 39.1301 42.1564 40.7005 41.6073L41.5871 41.3094C41.6624 41.2861 41.6972 41.2276 41.6972 41.1809C41.6972 41.0933 41.6566 41.0466 41.5697 41.0232C41.4654 40.9882 41.3843 40.9706 41.3089 40.9473C41.2162 40.9239 41.1235 40.9005 41.0308 40.8713C37.2005 39.7382 34.4306 36.7533 33.6368 32.8982L32.9124 29.265C32.895 29.1715 32.8313 29.1481 32.7792 29.1481L32.7676 29.154Z" stroke="white"/>
<path d="M129.302 36.0469C129.087 36.0469 128.902 35.9009 128.85 35.6906L128.473 34.1836C128.282 33.4709 127.917 32.8167 127.401 32.3027C126.978 31.8763 126.486 31.5609 125.981 31.3798L125.622 31.2513C125.419 31.1812 125.292 31.0001 125.298 30.784C125.303 30.5737 125.443 30.3927 125.651 30.3342C125.732 30.3167 125.773 30.3109 125.802 30.2992C127.129 29.8786 128.137 28.7571 128.462 27.3669L128.502 27.2326L128.832 25.895C128.885 25.673 129.087 25.5328 129.308 25.5328C129.528 25.5387 129.707 25.6964 129.748 25.9125L130.038 27.3728C130.327 28.7747 131.336 29.8611 132.738 30.2758C132.773 30.2875 132.802 30.2934 132.831 30.2992C132.871 30.3109 132.912 30.3226 132.958 30.3342C133.155 30.381 133.3 30.5679 133.3 30.7899C133.3 30.9943 133.167 31.1695 132.97 31.2338L132.611 31.3506C132.043 31.5492 131.539 31.8588 131.11 32.2618C130.577 32.7817 130.206 33.4359 130.049 34.166L129.76 35.6555C129.719 35.8717 129.534 36.0294 129.313 36.041H129.302V36.0469ZM126.126 30.8074L126.184 30.8307C126.764 31.0352 127.332 31.3973 127.818 31.888C128.404 32.4779 128.827 33.2198 129.041 34.0375L129.296 35.0656L129.493 34.0551C129.678 33.2081 130.101 32.4487 130.722 31.8471C131.208 31.3856 131.788 31.0352 132.443 30.8015H132.454C130.919 30.2992 129.806 29.0726 129.481 27.4954L129.284 26.5141L129.024 27.5305C128.67 29.055 127.569 30.305 126.132 30.8132L126.126 30.8074ZM132.796 30.9008C132.796 30.9008 132.796 30.9008 132.802 30.9008C132.802 30.9008 132.802 30.9008 132.796 30.9008Z" stroke="white"/>
<path d="M68.6774 120.719C68.6774 120.719 68.6369 120.719 68.6195 120.719C44.9076 115.825 27.6915 94.5103 27.6915 70.0417C27.6915 66.3501 28.0044 62.6526 28.6129 59.0428C28.6418 58.8851 28.7867 58.78 28.949 58.8033C29.1054 58.8325 29.2155 58.9844 29.1865 59.1421C28.5781 62.7169 28.271 66.3851 28.271 70.0417C28.271 94.2299 45.29 115.305 68.7354 120.147C68.8918 120.182 68.9904 120.334 68.9614 120.492C68.9324 120.632 68.8107 120.725 68.6774 120.725V120.719Z" stroke="white"/>
<path d="M167.744 62.5008C167.622 62.5008 167.506 62.419 167.466 62.2963C157.093 28.6455 126.642 6.0344 91.6882 6.0344C69.3322 6.0344 48.3844 18.1197 37.021 37.5766C36.9399 37.7168 36.7602 37.7635 36.6269 37.6817C36.4879 37.6 36.4415 37.4189 36.5226 37.2845C47.9904 17.6466 69.1294 5.45028 91.6882 5.45028C109.084 5.45028 125.616 10.9935 139.506 21.4726C152.938 31.6069 163.062 46.0463 168.016 62.1211C168.062 62.273 167.975 62.4365 167.825 62.4891C167.796 62.5008 167.767 62.5008 167.738 62.5008H167.744Z" stroke="white"/>
<path d="M155.221 18.1665C155.158 18.1665 155.1 18.1489 155.047 18.1081C132.124 0.403533 101.481 -3.37569 75.0748 8.24819C74.9241 8.31245 74.7561 8.24819 74.6923 8.09632C74.6286 7.9503 74.6923 7.77506 74.843 7.71081C101.446 -4.00069 132.309 -0.192266 155.395 17.6408C155.523 17.7401 155.546 17.9211 155.447 18.0496C155.389 18.1256 155.302 18.1665 155.216 18.1665H155.221Z" stroke="white"/>
<path d="M46.165 65.0533C46.165 65.0533 46.1476 65.0533 46.1361 65.0533C45.9738 65.0358 45.8579 64.8956 45.8753 64.7379C47.5036 47.2028 58.4846 31.9165 74.5301 24.8546C74.6808 24.7903 74.8488 24.8546 74.9125 25.0064C74.9763 25.1525 74.9125 25.3277 74.7619 25.392C58.9076 32.3721 48.0599 47.4715 46.4548 64.7963C46.4432 64.9482 46.3157 65.0592 46.165 65.0592V65.0533Z" stroke="white"/>
<path d="M103.023 123.447C102.942 123.447 102.855 123.412 102.797 123.342C102.692 123.219 102.71 123.033 102.837 122.933C116.165 111.818 122.464 94.2883 119.271 77.1913C119.242 77.0335 119.346 76.8817 119.503 76.8525C119.659 76.8233 119.81 76.9284 119.839 77.0861C123.067 94.3934 116.692 112.139 103.202 123.389C103.15 123.436 103.081 123.453 103.017 123.453L103.023 123.447Z" stroke="white"/>
<path d="M62.9233 150.994C45.6261 150.994 28.468 145.334 14.2536 134.353C14.1261 134.253 14.1029 134.072 14.2014 133.944C14.3 133.815 14.4796 133.792 14.6071 133.891C37.5251 151.596 68.1733 155.375 94.5798 143.751C94.7304 143.687 94.8985 143.751 94.9622 143.903C95.026 144.049 94.9622 144.224 94.8116 144.289C84.5839 148.792 73.7246 151 62.9233 151V150.994Z" stroke="white"/>
<path d="M74.9299 147.116C43.9341 147.116 15.6212 130.679 1.03589 104.212C0.960555 104.072 1.00691 103.891 1.14598 103.815C1.28506 103.739 1.46469 103.786 1.54002 103.926C16.021 130.206 44.1427 146.532 74.9299 146.532C111.552 146.532 141.343 117.746 141.343 82.3665C141.343 82.203 141.47 82.0745 141.633 82.0745C141.795 82.0745 141.922 82.203 141.922 82.3665C141.922 118.068 111.871 147.116 74.9299 147.116Z" stroke="white"/>
<path d="M81.9705 121.648C81.8198 121.648 81.6923 121.531 81.6808 121.38C81.6692 121.216 81.7909 121.082 81.9473 121.064C102.965 119.51 119.427 101.613 119.427 80.3221C119.427 62.3314 104.923 47.6935 87.0988 47.6935C72.8728 47.6935 61.295 59.3758 61.295 73.7333C61.295 85.1878 70.5318 94.5103 81.8778 94.5103C82.9962 94.5103 84.1029 94.3993 85.1866 94.1715C79.5193 93.5465 75.2139 91.5897 72.3687 88.3303C69.2917 84.8081 67.9531 79.7906 68.3761 73.4237C68.7817 67.384 72.444 61.648 77.7172 58.8209C80.0814 57.7636 82.5847 57.2321 85.1923 57.2321C97.4018 57.2321 107.34 66.8407 107.34 78.6457C107.34 93.3654 94.9506 105.34 79.7279 105.34C60.7387 105.34 45.2842 90.4039 45.2842 72.0452C45.2842 49.1362 64.5632 30.4971 88.2635 30.4971C107.705 30.4971 125.668 40.7016 135.148 57.1269C135.23 57.2671 135.183 57.4423 135.044 57.5241C134.905 57.6059 134.725 57.5592 134.65 57.419C125.274 41.1747 107.502 31.0812 88.2635 31.0812C64.8819 31.0812 45.8637 49.4575 45.8637 72.0452C45.8637 90.0827 61.0516 104.756 79.7279 104.756C94.6319 104.756 106.76 93.0441 106.76 78.6457C106.76 67.162 97.0831 57.8162 85.1923 57.8162C82.6716 57.8162 80.2437 58.3302 77.9721 59.3466C72.896 62.0744 69.3496 67.6176 68.9556 73.4646C68.5384 79.6737 69.8364 84.5453 72.8033 87.9448C75.8165 91.3969 80.5682 93.3479 86.9192 93.7334C87.0582 93.7392 87.1741 93.8502 87.1915 93.9904C87.2089 94.1306 87.122 94.2649 86.9887 94.3058C85.3372 94.8315 83.6162 95.0944 81.872 95.0944C70.2014 95.0944 60.7097 85.5149 60.7097 73.7333C60.7097 59.0487 72.5483 47.1093 87.093 47.1093C105.236 47.1093 120.001 62.0101 120.001 80.3221C120.001 101.917 103.301 120.071 81.9879 121.648C81.9821 121.648 81.9763 121.648 81.9647 121.648H81.9705Z" stroke="white"/>
<path d="M137.466 69.5629C133.99 69.5629 131.162 66.7124 131.162 63.2077C131.162 59.703 133.99 56.8526 137.466 56.8526C140.943 56.8526 143.771 59.703 143.771 63.2077C143.771 66.7124 140.943 69.5629 137.466 69.5629ZM137.466 57.4308C134.308 57.4308 131.741 60.0185 131.741 63.2019C131.741 66.3853 134.308 68.9729 137.466 68.9729C140.625 68.9729 143.192 66.3853 143.192 63.2019C143.192 60.0185 140.625 57.4308 137.466 57.4308Z" stroke="white"/>
<path d="M154.196 78.699C152.463 78.699 151.049 77.2738 151.049 75.5273C151.049 73.7808 152.463 72.3555 154.196 72.3555C155.929 72.3555 157.342 73.7808 157.342 75.5273C157.342 77.2738 155.929 78.699 154.196 78.699ZM154.196 72.9397C152.782 72.9397 151.629 74.1021 151.629 75.5273C151.629 76.9525 152.782 78.1149 154.196 78.1149C155.61 78.1149 156.763 76.9525 156.763 75.5273C156.763 74.1021 155.61 72.9397 154.196 72.9397Z" stroke="white"/>
<path d="M90.8422 138.162C89.6601 138.162 88.6924 137.192 88.6924 135.995C88.6924 134.798 89.6543 133.828 90.8422 133.828C92.0301 133.828 92.9921 134.798 92.9921 135.995C92.9921 137.192 92.0301 138.162 90.8422 138.162ZM90.8422 134.418C89.9788 134.418 89.2719 135.125 89.2719 136.001C89.2719 136.877 89.973 137.584 90.8422 137.584C91.7114 137.584 92.4126 136.877 92.4126 136.001C92.4126 135.125 91.7114 134.418 90.8422 134.418Z" stroke="white"/>
<path d="M94.7061 96.456C93.524 96.456 92.5563 95.4864 92.5563 94.289C92.5563 93.0915 93.5182 92.1219 94.7061 92.1219C95.894 92.1219 96.856 93.0915 96.856 94.289C96.856 95.4864 95.894 96.456 94.7061 96.456ZM94.7061 92.7119C93.8427 92.7119 93.1358 93.4186 93.1358 94.2948C93.1358 95.171 93.8369 95.8778 94.7061 95.8778C95.5753 95.8778 96.2765 95.171 96.2765 94.2948C96.2765 93.4186 95.5753 92.7119 94.7061 92.7119Z" stroke="white"/>
<path d="M14.4333 74.1893C12.7006 74.1893 11.2867 72.764 11.2867 71.0175C11.2867 69.271 12.7006 67.8458 14.4333 67.8458C16.1659 67.8458 17.5798 69.271 17.5798 71.0175C17.5798 72.764 16.1659 74.1893 14.4333 74.1893ZM14.4333 68.4299C13.0193 68.4299 11.8662 69.5923 11.8662 71.0175C11.8662 72.4428 13.0193 73.6051 14.4333 73.6051C15.8472 73.6051 17.0003 72.4428 17.0003 71.0175C17.0003 69.5923 15.8472 68.4299 14.4333 68.4299Z" stroke="white"/>
<path d="M85.2041 42.7176C83.9756 42.7176 82.9789 41.7129 82.9789 40.4746C82.9789 39.2363 83.9756 38.2316 85.2041 38.2316C86.4325 38.2316 87.4292 39.2363 87.4292 40.4746C87.4292 41.7129 86.4325 42.7176 85.2041 42.7176ZM85.2041 38.8157C84.3001 38.8157 83.5584 39.5575 83.5584 40.4746C83.5584 41.3917 84.2943 42.1335 85.2041 42.1335C86.1138 42.1335 86.8498 41.3917 86.8498 40.4746C86.8498 39.5575 86.1138 38.8157 85.2041 38.8157Z" stroke="white"/>
<path d="M74.8081 130.16C74.8081 130.16 74.7966 130.16 74.785 130.16C74.4894 130.148 74.2577 129.949 74.2055 129.657L73.7014 126.912C73.4348 125.568 72.8264 124.324 71.9398 123.314C71.2096 122.478 70.3346 121.83 69.4133 121.445L68.7817 121.176C68.5209 121.071 68.3702 120.82 68.3992 120.545C68.4224 120.27 68.6252 120.043 68.8976 119.99C69.0482 119.973 69.1293 119.961 69.2047 119.938C71.6848 119.318 73.684 117.367 74.4373 114.832L74.5184 114.622L75.2717 112.251C75.3586 111.97 75.6252 111.789 75.9207 111.818C76.2105 111.848 76.4249 112.058 76.4596 112.344L76.8189 114.99C77.1898 117.619 78.934 119.751 81.4779 120.679C81.5416 120.703 81.5995 120.72 81.6517 120.738C81.7212 120.761 81.7908 120.784 81.8603 120.808C82.1211 120.89 82.2891 121.135 82.2717 121.427C82.2543 121.69 82.0689 121.912 81.8024 121.97L81.1534 122.145C80.0755 122.449 79.102 122.957 78.2734 123.652C77.2188 124.552 76.4654 125.726 76.083 127.052L75.3934 129.692C75.3239 129.967 75.0805 130.154 74.7966 130.154L74.8081 130.16ZM69.0019 120.627L69.6509 120.907C70.6476 121.328 71.5921 122.029 72.3802 122.928C73.3363 124.02 73.9911 125.358 74.275 126.807L74.7792 129.558H74.8429L75.5325 126.906C75.9439 125.463 76.7668 124.184 77.9083 123.214C78.8007 122.461 79.8495 121.912 81.0201 121.585L81.6749 121.409C81.6749 121.409 81.698 121.398 81.698 121.392L81.6459 121.351C81.5937 121.328 81.5358 121.31 81.4836 121.293C81.4141 121.269 81.3446 121.246 81.275 121.223C78.5341 120.218 76.6567 117.916 76.251 115.066L75.8918 112.414L75.828 112.426L74.9878 115.025C74.1823 117.73 72.0267 119.838 69.3669 120.498C69.251 120.539 69.112 120.557 68.9845 120.568L68.8918 120.913L69.0019 120.644V120.627Z" stroke="white"/>
<path d="M81.3485 66.1289C81.2078 65.4127 82.0517 64.9517 82.5323 65.4823L87.1072 70.5329C87.365 70.8176 87.792 70.8367 88.0721 70.5761L93.042 65.9527C93.5641 65.4669 94.3673 66.0016 94.1687 66.7027L92.2783 73.3758C92.1717 73.7519 92.3695 74.1487 92.725 74.2723L99.0345 76.4666C99.6973 76.6971 99.6567 77.6927 98.9775 77.8632L92.5122 79.4858C92.1478 79.5772 91.9185 79.9548 91.994 80.3391L93.3336 87.1568C93.4743 87.873 92.6304 88.334 92.1498 87.8034L87.5749 82.7528C87.3171 82.4682 86.8901 82.4491 86.61 82.7096L81.6402 87.3331C81.118 87.8188 80.3148 87.2841 80.5134 86.583L82.4038 79.9099C82.5104 79.5338 82.3127 79.1371 81.9571 79.0134L75.6476 76.8191C74.9848 76.5886 75.0254 75.593 75.7046 75.4225L82.17 73.7999C82.5343 73.7085 82.7636 73.3309 82.6881 72.9467L81.3485 66.1289Z" stroke="white"/>
<path d="M17.2294 109.236C16.8413 109.014 16.9693 108.43 17.4089 108.416L21.5934 108.283C21.8292 108.276 22.0107 108.082 22.0034 107.845L21.8742 103.638C21.8606 103.196 22.4325 103.031 22.6765 103.407L24.9981 106.981C25.1289 107.183 25.3923 107.249 25.5932 107.13L29.158 105.03C29.5325 104.809 29.9765 105.229 29.7808 105.618L27.9179 109.326C27.8129 109.535 27.8948 109.795 28.103 109.914L31.797 112.02C32.1851 112.241 32.0571 112.825 31.6175 112.839L27.433 112.972C27.1972 112.98 27.0157 113.174 27.023 113.411L27.1522 117.617C27.1658 118.059 26.5939 118.224 26.35 117.849L24.0283 114.274C23.8975 114.072 23.6341 114.006 23.4332 114.125L19.8684 116.225C19.4939 116.446 19.0499 116.027 19.2456 115.637L21.1085 111.929C21.2135 111.721 21.1316 111.46 20.9234 111.342L17.2294 109.236Z" stroke="white"/>
<path d="M175.714 22.9928L175.204 23.1766L174.948 23.2545C173.618 23.7306 172.418 24.4684 171.42 25.4428C170.192 26.6567 169.3 28.238 168.917 30.031L168.277 33.3802C168.202 33.8034 167.614 33.8285 167.511 33.4053L166.694 30.0282C166.26 28.341 165.391 26.7569 164.191 25.518C163.244 24.5408 162.095 23.7501 160.843 23.3019L160.512 23.171L160.05 23.0123C159.667 22.8815 159.691 22.3274 160.075 22.2216C160.228 22.1966 160.355 22.1687 160.485 22.1158C163.576 21.1136 165.928 18.3713 166.67 15.1L166.745 14.8633L167.487 11.8315C167.59 11.4083 168.178 11.4083 168.253 11.8315L168.841 14.8383L168.892 15.1027C169.583 18.5327 172.011 21.1164 175.231 22.0936C175.385 22.1465 175.539 22.1715 175.692 22.2244C175.897 22.2773 176 22.436 176 22.6198C176 22.7785 175.897 22.9372 175.719 22.9901L175.714 22.9928Z" stroke="white"/>
</svg>
