<svg width="172" height="152" viewBox="0 0 172 152" fill="none" xmlns="http://www.w3.org/2000/svg">
<path d="M13.0149 76.4499V76.4535M13.0149 76.4499L7.0871 79.2432M13.0149 76.4499L13.8627 76.0529M13.0149 76.4535L7.0871 79.2432M13.0149 76.4535L13.8627 76.0529M7.0871 79.2432L5.16838 80.1491H5.16472M2.12043 67.4492L2.24837 68.1493C2.28492 68.3406 2.39816 68.5102 2.55896 68.6077C2.66495 68.6762 2.78561 68.7015 2.89891 68.6907C2.95372 68.6871 3.00852 68.6726 3.05969 68.6474L6.28308 67.1316C6.33059 67.11 6.3744 67.0775 6.41094 67.0378C6.45845 66.9945 6.49502 66.9403 6.5206 66.879C6.54253 66.8357 6.55719 66.7852 6.5645 66.731C6.59008 66.5434 6.53154 66.3521 6.40728 66.2041L5.9468 65.6519M2.12043 67.4492L1.36033 63.3133C1.24338 62.671 1.44069 62.144 1.87194 61.9492C2.31414 61.7507 2.85141 61.9419 3.279 62.458L5.9468 65.6519M2.12043 67.4492C1.91211 67.6549 1.81343 67.9545 1.86825 68.254L3.81985 79.402L3.83082 79.467C3.83447 79.4778 3.83439 79.4923 3.83805 79.5031C3.85997 79.5969 3.89288 79.6871 3.94039 79.7702M5.9468 65.6519C6.23917 65.6303 6.53156 65.7458 6.72891 65.9768L14.1515 74.5841L14.1733 74.6094C14.1952 74.6346 14.2172 74.6635 14.2355 74.6924C14.2611 74.7321 14.2866 74.7718 14.3049 74.8115C14.3086 74.8151 14.3086 74.8187 14.3086 74.8223M13.8627 76.0529H13.8664C14.1259 75.923 14.3159 75.6884 14.378 75.4069C14.4218 75.2084 14.3963 75.0027 14.3086 74.8223M5.16472 80.1491C5.03681 80.2104 4.89789 80.2393 4.75902 80.2393M5.16472 80.1491C5.03681 80.2104 4.9052 80.2393 4.75902 80.2393M4.75902 80.2393C4.61283 80.2393 4.46302 80.2032 4.3278 80.1346C4.16334 80.0516 4.03175 79.9253 3.94039 79.7702M3.94039 79.7702L31.0723 135.666C31.2331 136.001 31.573 136.196 31.9239 136.196C32.0591 136.196 32.198 136.167 32.3259 136.102L41.0238 132.006C41.064 131.988 41.1006 131.966 41.1371 131.945C41.2066 131.898 41.2687 131.844 41.3272 131.782M14.3086 74.8223L36.4739 120.472M118.951 67.6585V67.6693L118.495 71.1015C118.242 73.007 118.688 74.797 119.591 76.0457C120.241 76.948 121.126 77.5687 122.16 77.7491M118.951 67.6585L120.505 56.0124L117.314 14.1594C117.171 12.3117 116.525 10.6155 115.516 9.19714C114.544 7.82935 113.239 6.71419 111.722 5.97074C110.147 5.19482 108.349 4.81227 106.471 4.95302L38.1915 10.0308C36.3496 10.168 34.621 10.7887 33.1446 11.8172C32.4721 12.29 31.8508 12.8458 31.2953 13.481C30.7398 14.1198 30.2756 14.8127 29.9029 15.5453C29.0916 17.1368 28.7298 18.9197 28.8687 20.735L36.4739 120.472M118.951 67.6585L127.097 6.49765C127.543 3.15215 129.988 0.698066 132.546 1.03009L145.422 2.70103C147.984 3.03666 149.705 6.02849 149.259 9.37398L140.758 73.2271M122.16 77.7491C122.215 77.76 122.27 77.7672 122.328 77.7744L127.152 78.4024M122.16 77.7491L122.16 77.7419L123.22 91.6219L122.829 92.932C122.807 93.0078 122.789 93.08 122.774 93.1558L90.1967 88.078L103.565 87.1721C104.081 87.136 104.475 86.6921 104.439 86.1796C104.402 85.6672 103.949 85.2738 103.434 85.3171L53.2778 88.7167C52.7588 88.7492 52.3642 89.1931 52.4007 89.7056C52.4336 90.1964 52.8503 90.5717 53.34 90.5717H53.4057L88.4645 88.1971C88.1721 88.2945 87.9016 88.4316 87.6422 88.6121C87.6166 88.6301 87.591 88.6482 87.5654 88.6698C86.9186 89.1318 86.4764 89.7886 86.29 90.5429C86.2644 90.6331 86.2461 90.7269 86.2315 90.8208L85.559 95.036L53.8991 97.1797C53.3802 97.2158 52.9891 97.6597 53.0256 98.1722C53.0585 98.663 53.4752 99.0383 53.9649 99.0383C53.9868 99.0383 54.0087 99.0383 54.0307 99.0347L85.2557 96.9199L84.6125 100.962L84.2653 103.12L54.4875 105.137C53.9685 105.174 53.5775 105.617 53.6141 106.13C53.647 106.621 54.0599 106.996 54.5496 106.996C54.5715 106.996 54.5935 106.996 54.6154 106.996L83.9656 105.008L82.8765 111.836L67.9621 112.825C67.4432 112.857 67.0484 113.301 67.0813 113.813C67.1142 114.304 67.5272 114.683 68.0205 114.683C68.0425 114.683 68.0607 114.683 68.0826 114.683L82.5769 113.723M127.152 78.4024L128.044 75.4069M127.152 78.4024L122.829 92.9392C122.807 93.015 122.789 93.0872 122.774 93.163L123.34 93.2496L123.699 93.3073L124.641 93.4517L156.524 98.4176C157.237 98.5259 157.899 98.8651 158.399 99.3776L158.407 99.3848C158.436 99.4101 158.461 99.4353 158.487 99.4642M128.044 75.4069L128.705 73.1874C129.224 71.4335 131.099 70.423 132.872 70.9391L139.614 72.8951M128.044 75.4069L121.458 74.5336C120.333 74.3856 119.562 73.2127 119.737 71.9207L121.002 62.5699V62.5627L122.014 55.0849C122.189 53.7929 123.238 52.8654 124.364 53.017L139.951 55.0813C141.073 55.2293 141.844 56.4022 141.672 57.6942L139.614 72.8951M139.614 72.8951L140.758 73.2271M140.758 73.2271L168.914 81.3906C169.772 81.6396 170.481 82.2062 170.913 82.9857C171.344 83.7653 171.443 84.6603 171.19 85.5084L165.317 105.26C165.065 106.108 164.491 106.808 163.702 107.234C163.198 107.505 162.649 107.646 162.094 107.646C161.776 107.646 161.458 107.599 161.147 107.509L158.593 106.769M36.4739 120.472L41.4698 130.765C41.5758 130.988 41.5903 131.245 41.5063 131.476C41.4661 131.591 41.404 131.696 41.3272 131.782M41.3272 131.782C41.6525 131.995 41.9887 132.187 42.3395 132.356C43.6991 133.027 45.2267 133.403 46.8311 133.403C47.0833 133.403 47.3391 133.396 47.5949 133.374L81.2356 130.873M81.2356 130.873C81.104 130.739 80.9834 130.595 80.8738 130.44M81.2356 130.873L81.2392 130.873C81.7326 131.367 82.3832 131.699 83.0885 131.808L149.54 142.158C149.716 142.183 149.891 142.198 150.067 142.198C150.966 142.198 151.828 141.84 152.46 141.194M80.8738 130.44C80.8519 130.411 80.83 130.382 80.8117 130.353C80.4462 129.805 80.2562 129.177 80.2525 128.538C80.2525 128.365 80.2672 128.188 80.2928 128.015L82.5769 113.723M80.8738 130.44C81.0127 130.602 81.199 130.714 81.411 130.754C81.4731 130.768 81.5353 130.772 81.5974 130.772C81.7801 130.772 81.9666 130.721 82.1201 130.617L82.2735 130.516L83.1689 129.92L106.632 114.373L114.303 124.121C114.394 124.236 114.489 124.348 114.588 124.453C114.624 124.489 114.653 124.525 114.69 124.557C114.964 124.832 115.264 125.066 115.582 125.265C115.742 125.366 115.907 125.452 116.079 125.535C116.207 125.597 116.338 125.651 116.473 125.698C116.539 125.723 116.601 125.745 116.667 125.766C116.795 125.81 116.923 125.846 117.054 125.874C117.117 125.893 117.182 125.907 117.248 125.918C117.314 125.932 117.38 125.943 117.446 125.954C117.46 125.954 117.475 125.961 117.493 125.961C117.559 125.972 117.625 125.979 117.69 125.986C117.774 125.997 117.862 126.004 117.95 126.012C118.049 126.015 118.151 126.019 118.25 126.019C119.196 126.019 120.154 125.755 120.991 125.21L131.834 118.137L150.439 140.289L151.112 141.086C151.284 141.292 151.539 141.415 151.81 141.422C151.821 141.425 151.828 141.425 151.836 141.425C152.066 141.425 152.285 141.342 152.457 141.194H152.46M82.5769 113.723L82.5879 113.723M82.8875 111.839H82.8765M98.5036 104.03L97.1113 102.258H97.115M98.5036 104.03L97.115 102.258M98.5036 104.03H98.5073M98.5036 104.03L105.477 112.9H105.48M97.115 102.258L95.5215 100.229L94.1291 98.4609M97.115 102.258L98.5073 104.03M97.115 102.258L97.1186 102.258L98.5073 104.03M92.5357 96.4363H92.5321L94.1254 98.4609L92.5357 96.4363ZM92.5357 96.4363L91.1469 94.6643L88.1611 90.8713L87.8285 90.4454L87.5179 90.0557L87.4375 89.951C87.2803 89.7489 87.2146 89.4927 87.2512 89.24C87.2877 89.0199 87.4009 88.8214 87.5691 88.677M92.5357 96.4363L94.1291 98.4609M92.5357 96.4363L92.5393 96.4363L94.1291 98.4609M98.5073 104.03L105.48 112.9M98.5073 104.03L98.5109 104.03L105.484 112.9M105.48 112.9H105.484M152.46 141.194C152.482 141.173 152.508 141.151 152.53 141.126C152.552 141.101 152.574 141.075 152.592 141.05C153.012 140.581 153.283 140.014 153.381 139.397L158.593 106.769M152.46 141.194C152.289 141.342 152.069 141.425 151.839 141.425C151.832 141.425 151.825 141.425 151.814 141.422C151.543 141.415 151.287 141.292 151.116 141.086L150.443 140.289L131.837 118.137H131.841L133.42 117.105H133.424M87.5691 88.677C86.9222 89.139 86.48 89.7958 86.2936 90.5501C86.268 90.6403 86.2498 90.7341 86.2352 90.828L85.5627 95.0432L85.2593 96.9271L84.6161 100.969L84.2689 103.127L80.2964 128.015C80.2708 128.188 80.2562 128.365 80.2562 128.538C80.2598 129.177 80.4499 129.805 80.8153 130.353C80.8336 130.382 80.8555 130.411 80.8774 130.44C81.0163 130.602 81.2027 130.714 81.4146 130.754C81.4768 130.768 81.5389 130.772 81.601 130.772C81.7838 130.772 81.9702 130.721 82.1237 130.617L82.2772 130.516L83.1725 129.92L106.635 114.373H106.642M87.5691 88.677C87.5946 88.6554 87.6202 88.6373 87.6457 88.6193C87.9052 88.4389 88.1757 88.3017 88.468 88.2043C88.468 88.2043 88.4705 88.2031 88.4753 88.2007H88.4863C88.9907 88.031 89.5352 87.9841 90.0761 88.0707L90.1784 88.0852H90.2003L122.778 93.163L123.344 93.2496L123.702 93.3073L124.645 93.4517L156.528 98.4176C157.241 98.5259 157.902 98.8651 158.403 99.3776L158.41 99.3848C158.439 99.4101 158.465 99.4353 158.491 99.4642M105.484 112.9L106.061 113.633L106.642 114.373M106.642 114.373L114.31 124.121C114.401 124.236 114.496 124.348 114.595 124.453C114.631 124.489 114.661 124.525 114.697 124.557C114.971 124.832 115.271 125.066 115.589 125.265C115.75 125.366 115.914 125.452 116.086 125.535C116.214 125.597 116.346 125.651 116.481 125.698C116.547 125.723 116.609 125.745 116.674 125.766C116.802 125.81 116.93 125.846 117.062 125.874C117.124 125.893 117.19 125.907 117.255 125.918C117.321 125.932 117.387 125.943 117.453 125.954C117.467 125.958 117.482 125.961 117.5 125.961C117.566 125.972 117.632 125.979 117.698 125.986C117.782 125.997 117.869 126.004 117.957 126.012C118.056 126.015 118.158 126.019 118.257 126.019C119.203 126.019 120.161 125.755 120.998 125.21L131.841 118.133H131.845L132.634 117.621L133.424 117.105M158.491 99.4642H158.487M158.491 99.4642C158.509 99.4858 158.531 99.5075 158.542 99.5292M158.491 99.4642L158.545 99.5292C158.695 99.7204 158.761 99.9658 158.728 100.204H158.724C158.71 100.33 158.67 100.449 158.604 100.554C158.534 100.68 158.432 100.785 158.311 100.864L158.275 100.886L157.475 101.409L157.453 101.424L133.427 117.101L133.424 117.105M158.487 99.4642L158.542 99.5292M158.542 99.5292C158.86 99.8864 159.086 100.298 159.218 100.738M159.346 101.969C159.346 102.048 159.331 102.131 159.32 102.211L158.889 104.917L158.739 105.841L158.593 106.769M159.346 101.969H159.342C159.382 101.547 159.335 101.132 159.214 100.738C159.083 100.298 158.856 99.8864 158.538 99.5292C158.688 99.7204 158.754 99.9658 158.721 100.204C158.706 100.33 158.666 100.449 158.6 100.554C158.531 100.68 158.428 100.785 158.308 100.864L158.271 100.886L157.471 101.409L157.449 101.424L133.424 117.105M159.346 101.969C159.386 101.547 159.338 101.132 159.218 100.738M159.346 101.969L162.266 102.842H162.273C162.576 102.932 162.898 102.759 162.989 102.46C163.081 102.156 162.909 101.839 162.602 101.749L159.218 100.738M147.958 90.5898C147.987 90.5898 148.016 90.5681 148.016 90.5429C148.027 90.5176 148.013 90.4887 147.987 90.4707V90.4671M147.958 90.5898H147.867L147.826 90.5934C147.593 90.6078 147.37 90.6656 147.169 90.7702C146.924 90.9002 146.712 91.1023 146.573 91.3585L146.328 91.8385C146.299 91.8962 146.2 91.8782 146.204 91.806L146.218 91.2574C146.222 90.9832 146.153 90.7053 146.017 90.4635C145.911 90.2758 145.765 90.1026 145.582 89.9799L145.535 89.9438L145.469 89.9005C145.414 89.868 145.444 89.7814 145.509 89.7814C145.535 89.7814 145.553 89.7814 145.575 89.7814C146.112 89.7633 146.606 89.453 146.865 88.9874L146.887 88.9549L147.132 88.5291C147.169 88.4677 147.264 88.4966 147.256 88.5616L147.22 89.0416V89.0849C147.176 89.637 147.45 90.1351 147.918 90.4274C147.943 90.4454 147.965 90.4563 147.987 90.4671M147.958 90.5898L147.958 90.5862C147.987 90.5862 148.016 90.5645 148.016 90.5393C148.027 90.514 148.013 90.4851 147.987 90.4671M46.9735 148.181L41.382 150.812C41.1189 150.939 40.8302 151 40.5341 151C40.0188 151 39.4706 150.816 38.9517 150.455C38.2792 149.986 37.6799 149.25 37.2596 148.38L32.9873 139.524C32.7644 139.058 32.9655 138.506 33.4332 138.282L42.1312 134.186C42.3578 134.078 42.6172 134.067 42.8511 134.15C43.0887 134.229 43.2788 134.402 43.3884 134.626L47.657 143.486C48.6364 145.514 48.3404 147.535 46.9735 148.181ZM146.021 9.48225L130.434 7.41432C129.312 7.26636 128.26 8.19386 128.084 9.48586L125.807 26.3216C125.632 27.6136 126.403 28.7865 127.529 28.9381L143.112 30.9988C144.234 31.1504 145.29 30.2229 145.462 28.9273L147.742 12.0951C147.914 10.7995 147.147 9.63022 146.021 9.48225ZM142.984 32.2836L127.401 30.2157C126.275 30.0641 125.223 30.9916 125.047 32.2872L122.77 49.1193C122.595 50.415 123.37 51.5879 124.492 51.7322L140.075 53.8002C141.201 53.9481 142.253 53.0206 142.425 51.7286L144.705 34.8929C144.877 33.6009 144.11 32.428 142.984 32.2836ZM138.467 3.5744C140.667 3.58523 140.711 6.95598 138.507 6.94516C136.307 6.93072 136.263 3.55996 138.467 3.5744ZM69.2923 27.7219L96.7641 25.755C97.8056 25.6792 98.6938 26.2494 98.7449 27.029C98.7961 27.8013 98.0067 28.4906 96.9724 28.57C96.9688 28.57 96.9614 28.5736 96.9541 28.5736L69.4861 30.5405C68.4445 30.6127 67.5564 30.0424 67.5016 29.2629C67.4505 28.487 68.2508 27.7616 69.2923 27.7219ZM93.3434 33.175C93.3873 33.8066 92.7404 34.366 91.9035 34.4309C91.8962 34.4345 91.8925 34.4345 91.8889 34.4345L69.5263 36.0333C68.6784 36.0946 67.9584 35.6291 67.9145 34.9975C67.8707 34.3623 68.5212 33.7741 69.3691 33.7416L91.7317 32.1392C92.5795 32.0779 93.2995 32.5434 93.3434 33.175ZM41.0093 34.1566C40.5232 28.1261 45.0805 22.8498 51.1874 22.3698C57.2906 21.8898 62.6373 26.3902 63.1197 32.4207C63.6058 38.4513 59.0485 43.7276 52.9453 44.2076C46.8384 44.6839 41.4954 40.1872 41.0093 34.1566ZM49.7072 63.8366C49.6378 62.8117 50.4199 61.9239 51.4578 61.8517L101.617 58.4557C102.648 58.3907 103.554 59.1558 103.624 60.1808C103.697 61.2057 102.911 62.0935 101.873 62.1657L51.7173 65.5617C51.6734 65.5653 51.6296 65.5689 51.5857 65.5689C50.6027 65.5689 49.7767 64.8183 49.7072 63.8366ZM51.1947 73.357C51.1581 72.8446 51.5529 72.4007 52.0718 72.3646L102.228 68.9686C102.739 68.9253 103.196 69.3186 103.233 69.8311C103.269 70.3436 102.875 70.7875 102.356 70.82L52.1997 74.2196C52.1778 74.2232 52.1559 74.2232 52.1339 74.2232C51.6442 74.2232 51.2276 73.8479 51.1947 73.357ZM102.977 79.2216L52.8173 82.6212H52.7515C52.2618 82.6212 51.8488 82.2459 51.8159 81.7551C51.7794 81.2426 52.1705 80.7987 52.6894 80.7662L102.849 77.3666C103.357 77.3233 103.818 77.7167 103.85 78.2291C103.887 78.7416 103.496 79.1855 102.977 79.2216ZM60.0023 31.1937C59.889 31.0926 59.7136 31.1071 59.6112 31.219L57.8826 33.1967C57.2796 32.345 56.4792 31.6556 55.5619 31.172L56.6729 28.8443C56.7387 28.7071 56.6766 28.5447 56.5414 28.4798C56.4025 28.4148 56.238 28.4725 56.1723 28.6097L55.0649 30.9339C54.1366 30.5333 53.1134 30.3312 52.0755 30.3745L51.8561 27.6425C51.8452 27.4909 51.7099 27.379 51.5564 27.3899C51.4029 27.4007 51.2933 27.5342 51.3043 27.6858L51.5236 30.4178C50.4747 30.5405 49.4843 30.905 48.6218 31.4535C48.6181 31.4138 48.6035 31.3741 48.578 31.3381L47.0612 29.1474C46.9772 29.0211 46.8055 28.9922 46.6776 29.0752C46.5497 29.1582 46.5204 29.3279 46.6044 29.4542L48.1175 31.6448C48.1431 31.6809 48.176 31.7098 48.2162 31.7314C47.3573 32.3666 46.652 33.2075 46.1878 34.1783L44.2984 32.6084C44.1815 32.511 44.006 32.5254 43.9073 32.6409C43.8087 32.7564 43.827 32.9296 43.9439 33.0234L46.1294 34.846C47.445 36.9103 49.89 38.1121 52.4007 37.9172C54.9626 37.7151 57.2211 36.0874 58.1604 33.7705L58.1933 33.6911L60.0351 31.5835C60.1338 31.4716 60.1229 31.2984 60.006 31.1973L60.0023 31.1937ZM54.111 33.9148L53.9832 33.969L53.921 33.9906C53.5884 34.1278 53.2961 34.3263 53.0549 34.5825C52.7625 34.8929 52.5578 35.2935 52.4884 35.741L52.3787 36.5638C52.3678 36.6649 52.2143 36.6829 52.185 36.5782L51.9219 35.7735C51.783 35.3693 51.5382 34.9975 51.2166 34.7124C50.9644 34.4923 50.6575 34.3154 50.3322 34.2288L50.2445 34.2L50.1275 34.1711C50.0288 34.1494 50.0215 34.0087 50.1202 33.9798C50.1604 33.9726 50.1896 33.9618 50.2189 33.9473C50.9937 33.655 51.5528 32.9476 51.688 32.1392L51.7027 32.0815L51.8415 31.3308C51.8598 31.2262 52.0133 31.219 52.0352 31.3164L52.2326 32.0382L52.2472 32.0995C52.4738 32.926 53.1316 33.5179 53.9649 33.7055C54.0087 33.7163 54.0453 33.7236 54.0855 33.7308C54.133 33.7416 54.1659 33.7777 54.1695 33.821C54.1695 33.8607 54.1476 33.9004 54.1074 33.9148H54.111ZM104.439 86.1869C104.475 86.6993 104.081 87.1432 103.565 87.1793L90.1967 88.0852H90.1749L90.0725 88.0707C89.5316 87.9841 88.9871 88.031 88.4827 88.2007H88.4718C88.4718 88.2007 88.4681 88.2007 88.4644 88.2043L53.4057 90.579H53.34C52.8503 90.579 52.4336 90.2036 52.4007 89.7128C52.3642 89.2003 52.7588 88.7564 53.2778 88.724L103.434 85.3243C103.949 85.281 104.402 85.6744 104.439 86.1869ZM148.839 82.3758C145.009 81.3798 141.084 83.6353 140.075 87.4175C139.063 91.1997 141.35 95.0757 145.18 96.0718C149.01 97.0715 152.936 94.8123 153.944 91.0301C154.957 87.2479 152.669 83.3719 148.839 82.3758ZM152.077 90.4129L150.498 91.3116L150.461 91.3549C149.383 92.5711 147.655 93.0872 146.047 92.6685C144.471 92.2571 143.24 91.0084 142.885 89.471L141.946 87.8975C141.895 87.8145 141.921 87.7062 142.008 87.6557C142.092 87.6052 142.202 87.6341 142.253 87.7171L143.064 89.0776C143.561 88.5796 144.172 88.2187 144.833 88.0094C144.815 87.9877 144.8 87.9661 144.793 87.9372L144.344 86.2807C144.318 86.1833 144.376 86.0858 144.471 86.0642C144.566 86.0389 144.665 86.093 144.691 86.1869L145.14 87.847C145.148 87.8723 145.148 87.9011 145.144 87.9264C145.787 87.7712 146.474 87.7604 147.139 87.9083L147.596 86.1905C147.622 86.0966 147.72 86.0425 147.815 86.0642C147.91 86.0894 147.969 86.1869 147.943 86.2807L147.483 87.9949C148.13 88.1934 148.707 88.5327 149.19 88.973L150.366 87.7856C150.436 87.7171 150.549 87.7171 150.622 87.7856C150.692 87.8542 150.692 87.9661 150.622 88.0347L149.442 89.222C149.895 89.7092 150.235 90.3011 150.418 90.9471L151.901 90.1062C151.985 90.0593 152.095 90.0881 152.142 90.1748C152.194 90.2578 152.164 90.366 152.077 90.4129ZM163.662 98.1794L155.589 95.765C155.286 95.6604 154.96 95.8444 154.865 96.1476C154.774 96.4471 154.946 96.7683 155.253 96.8585L163.329 99.2729H163.333C163.636 99.3631 163.958 99.1935 164.049 98.8904C164.144 98.5908 163.969 98.2696 163.662 98.1794Z" stroke="white" stroke-miterlimit="10"/>
</svg>
