<svg width="152" height="152" viewBox="0 0 152 152" fill="none" xmlns="http://www.w3.org/2000/svg">
<path d="M108.145 1H43.8546C20.2806 1 1 20.2807 1 43.8549V108.145C1 131.719 20.2806 151 43.8546 151H108.145C131.719 151 150.999 131.719 150.999 108.145V43.8549C150.999 20.2807 131.719 1 108.145 1ZM79.1279 111.561C59.7994 113.476 43.6791 97.3556 45.5944 78.027C47.0149 63.7261 58.5864 52.1545 72.8873 50.734C92.2157 48.8187 108.336 64.9392 106.421 84.2677C105 98.5687 93.4288 110.14 79.1279 111.561ZM130.107 36.864L129.261 37.1673L128.83 37.295C126.627 38.0611 124.632 39.2422 122.972 40.8223C120.929 42.7695 119.461 45.3233 118.822 48.1962L117.769 53.575C117.641 54.2613 116.668 54.2933 116.492 53.6229L115.135 48.1962C114.417 45.4829 112.981 42.9451 110.986 40.95C109.421 39.3859 107.506 38.109 105.431 37.3908L104.873 37.1833L104.107 36.9279C103.468 36.7204 103.516 35.8266 104.154 35.651C104.41 35.6031 104.617 35.5712 104.841 35.4755C109.964 33.8634 113.874 29.4582 115.103 24.1911L115.231 23.8081L116.46 18.9241C116.636 18.2378 117.609 18.2378 117.737 18.9241L118.711 23.7602L118.79 24.1911C119.94 29.6976 123.962 33.8634 129.309 35.4275C129.564 35.5073 129.819 35.5552 130.075 35.635C130.41 35.7148 130.585 35.9702 130.585 36.2735C130.585 36.5289 130.41 36.7842 130.123 36.864H130.107Z" stroke="white" stroke-width="2" stroke-miterlimit="10"/>
</svg>
