<svg width="152" height="152" viewBox="0 0 152 152" fill="none" xmlns="http://www.w3.org/2000/svg">
<path d="M58.8198 66.248C58.8198 68.496 56.9525 70.316 54.6462 70.316C52.3398 70.316 50.4726 68.496 50.4726 66.248C50.4726 65.3711 50.7582 64.5568 51.2437 63.8921L48.4411 59.4936M58.8198 66.248H58.8269C58.8269 64.2123 57.2917 62.5245 55.2888 62.2253H55.2852L48.4839 51.5386V51.5282L47.2843 49.6595C47.5735 49.1062 47.7378 48.4798 47.7378 47.8152C47.7378 45.5707 45.867 43.7472 43.5606 43.7472C42.3324 43.7472 41.2256 44.2657 40.4616 45.0904C39.794 45.8108 39.387 46.7677 39.387 47.8152C39.387 47.8395 39.387 47.8604 39.387 47.8848L39.2085 47.9961L37.966 48.7582L34.8064 50.7035C34.0495 49.9762 33.0141 49.5273 31.8681 49.5273C31.4468 49.5273 31.0398 49.5899 30.6542 49.7047L20.1613 34.804L13.41 25.21C13.2279 25.3492 13.0529 25.5023 12.8816 25.6624C11.9176 26.5637 11.1786 27.6598 10.7251 28.8638L17.5907 38.6179L18.3405 39.6862L27.7337 53.0245C27.7087 53.2125 27.6945 53.4004 27.6945 53.5952C27.6945 55.8432 29.5617 57.6632 31.8681 57.6632C33.6175 57.6632 35.1134 56.6157 35.7311 55.1298M58.8198 66.248C58.8198 64.2123 57.2846 62.5246 55.2817 62.2253H55.2782M48.4411 59.4936L43.5963 51.8866H43.5534C42.8858 51.8866 42.2539 51.7335 41.6933 51.4586H41.6898M48.4411 59.4936L48.3805 73.7437C48.3769 74.8885 49.323 75.8177 50.4976 75.8246L81.5337 75.9499C82.7083 75.9569 83.6687 75.0312 83.6687 73.8863L83.7722 49.6735C83.7793 48.5251 82.8297 47.596 81.6551 47.589L50.619 47.4638C49.4444 47.4568 48.4912 48.3824 48.484 49.5273L48.4769 51.5282V51.5387L55.2782 62.2253M41.6898 51.4586L40.4259 52.2416L35.7346 55.1298H35.7311M41.6898 51.4586L41.6862 51.4587L40.4223 52.2416L37.9411 53.7694M41.6898 51.4586C42.2503 51.7335 42.8822 51.8867 43.5498 51.8867H43.5927L48.4375 59.4937M35.7311 55.1298L35.7275 55.13C35.1099 56.6159 33.6139 57.6633 31.8645 57.6633C29.5581 57.6633 27.6909 55.8434 27.6909 53.5954C27.6909 53.4005 27.7052 53.2126 27.7302 53.0247L16.8553 37.5776C15.3058 39.481 14.3811 41.8856 14.3811 44.4955V111.173M35.7311 55.1298L37.9411 53.7694M117.261 33.1232C117.261 33.6209 116.847 34.0245 116.336 34.0245M117.261 33.1232C117.265 32.6256 116.85 32.2185 116.336 32.215L49.473 31.9436H49.4658C48.9553 31.9436 48.5447 32.3472 48.5411 32.8449M117.261 33.1232C117.257 33.6209 116.847 34.0245 116.336 34.0245M116.336 34.0245H116.329L49.4658 33.7531M49.4658 33.7531C48.9517 33.7496 48.5376 33.3425 48.5411 32.8449M49.4658 33.7531C48.9517 33.7496 48.5411 33.3425 48.5411 32.8449M55.2782 62.2253L55.2745 62.2253L48.4732 51.5387V51.5283M55.2782 62.2253C57.2811 62.5246 58.8161 64.2124 58.8161 66.2481C58.8161 68.4961 56.9489 70.316 54.6425 70.316C52.3362 70.316 50.4689 68.4961 50.4689 66.2481C50.4689 65.3712 50.7546 64.5569 51.2401 63.8922L48.4375 59.4937M151.203 111.173V115.85C151.203 121.922 146.066 126.864 139.75 126.864H25.8344C19.4115 126.864 14.3811 122.027 14.3811 115.85V111.173M151.203 111.173C151.203 111.841 150.65 112.381 149.964 112.381H15.62C14.9345 112.381 14.3811 111.841 14.3811 111.173M151.203 111.173V44.4955C151.203 38.3397 146.066 33.3321 139.75 33.3321H127.797V34.5362L127.79 35.7437M37.9411 53.7694L37.7018 112.339H127.472L127.79 35.7437M127.79 35.7437L127.8 34.5361V33.3321L127.882 14.0919H127.875C127.907 7.0452 122.052 1.28949 114.822 1.26165L51.2722 1.00066C47.7663 0.965863 44.4888 2.30562 41.9968 4.71369C39.5012 7.12523 38.1231 10.3232 38.1052 13.723L38.0231 33.3321L38.0124 34.5361V35.7436L37.9553 48.7583L39.1977 47.9962L39.3762 47.8849C39.3762 47.8605 39.3762 47.8396 39.3762 47.8153C39.3762 46.7678 39.7832 45.8108 40.4509 45.0905C41.2149 44.2658 42.3217 43.7473 43.5498 43.7473C45.8562 43.7473 47.727 45.5707 47.727 47.8153C47.727 48.4799 47.5628 49.1063 47.2736 49.6596L48.4732 51.5283M38.0481 21.9599V24.3749M48.4732 51.5283L48.4803 49.5273C48.4875 48.3825 49.4407 47.4568 50.6153 47.4638L81.6514 47.5891C82.826 47.596 83.7756 48.5252 83.7685 49.6735L83.665 73.8864C83.6614 75.0312 82.7046 75.9569 81.53 75.9499L50.4939 75.8247C49.3193 75.8177 48.3732 74.8886 48.3768 73.7437L48.4375 59.4937M127.864 23.6789H38.0481M17.2301 22.9237C17.2373 23.216 17.048 23.477 16.7588 23.571L16.0055 23.8111C15.0773 24.1034 14.1918 24.5836 13.4064 25.21C13.2243 25.3492 13.0494 25.5023 12.878 25.6624C11.914 26.5637 11.175 27.6598 10.7216 28.8638C10.6359 29.0831 10.5609 29.3058 10.4966 29.532L9.63265 32.5351C9.54697 32.8309 9.28634 33.0223 8.97573 33.0223H8.9436C8.61871 33.0084 8.36165 32.7891 8.30095 32.4794L7.76899 29.4519C7.46909 27.9243 6.70863 26.5323 5.56973 25.4292C4.68074 24.5627 3.6061 23.905 2.3708 23.4666L1.65675 23.2126C1.3747 23.1151 1.19619 22.8646 1.20333 22.5723C1.21047 22.2591 1.42826 22.0016 1.74244 21.9355C1.88168 21.9041 2.02092 21.8728 2.16015 21.838C5.19842 21.0481 7.42268 18.8349 8.10816 15.9188L8.78651 13.0061C8.86148 12.6964 9.12925 12.4876 9.45414 12.4876H9.46128C9.78974 12.4911 10.0575 12.7034 10.1253 13.0166L10.8358 15.9675C11.4678 18.8975 13.5849 21.2743 16.359 22.1825C16.4804 22.2208 16.6017 22.2591 16.7267 22.2939C17.023 22.3739 17.223 22.6279 17.2301 22.9237ZM44.246 143.156H121.335C121.93 143.156 122.413 143.627 122.413 144.207V149.949C122.413 150.529 121.93 151 121.335 151H44.246C43.6506 151 43.1678 150.529 43.1678 149.949V144.207C43.1678 143.627 43.6506 143.156 44.246 143.156ZM105.965 143.156H59.6017L68.6772 126.864H96.4144L105.965 143.156ZM117.093 75.494C117.09 75.9951 116.675 76.3988 116.161 76.3953L91.2947 76.2944C90.7806 76.2909 90.3664 75.8873 90.37 75.3862C90.37 74.8816 90.7877 74.4779 91.3018 74.4814L116.168 74.5858C116.683 74.5893 117.097 74.9929 117.093 75.494ZM117.143 64.0279C117.143 64.529 116.725 64.9326 116.211 64.9292L91.3447 64.8282C90.8305 64.8248 90.4164 64.4211 90.42 63.92C90.42 63.4154 90.8377 63.0118 91.3518 63.0152L116.218 63.1197C116.733 63.1231 117.147 63.5268 117.143 64.0279ZM117.19 53.1672C117.186 53.6683 116.772 54.072 116.258 54.0685L91.3911 53.9641C90.877 53.9607 90.4628 53.557 90.4664 53.0559C90.4664 52.5583 90.8805 52.1546 91.3911 52.1546H91.3982L116.265 52.259C116.779 52.2625 117.193 52.6661 117.19 53.1672ZM117.236 42.3031C117.232 42.8077 116.818 43.2114 116.304 43.2079L49.4408 42.933C48.9267 42.9295 48.5126 42.5258 48.5161 42.0247C48.5161 41.5271 48.9303 41.1235 49.4408 41.1235H49.448L116.311 41.3949C116.825 41.3949 117.24 41.802 117.236 42.3031ZM117.636 93.2588L117.614 98.1619C117.611 99.3067 116.654 100.232 115.479 100.229L50.3941 99.961C49.2195 99.961 48.2734 99.0249 48.2769 97.88L48.2984 92.9734C48.2984 91.8285 49.2588 90.9064 50.4334 90.9099L115.519 91.1778C116.693 91.1813 117.643 92.1139 117.636 93.2588ZM38.0304 33.332L38.0232 34.5361V35.7436L37.9625 48.7583L34.8029 50.7035C34.046 49.9762 33.0106 49.5273 31.8646 49.5273C31.4433 49.5273 31.0363 49.59 30.6507 49.7048L20.1578 34.804C21.8322 33.8679 23.7709 33.332 25.8345 33.332H38.0304ZM112.698 16.1589C114.408 16.1659 115.801 14.8192 115.808 13.1524C115.815 11.4855 114.433 10.1318 112.723 10.1249C111.017 10.1179 109.624 11.4611 109.617 13.128C109.61 14.7948 110.988 16.152 112.698 16.1589ZM73.654 16.1589C75.3642 16.1659 76.7566 14.8192 76.7637 13.1524C76.7708 11.4855 75.3892 10.1318 73.679 10.1249C71.9725 10.1179 70.5801 11.4611 70.5729 13.128C70.5658 14.7948 71.9439 16.152 73.654 16.1589ZM63.9251 16.1589C65.6353 16.1659 67.0277 14.8192 67.0348 13.1524C67.042 11.4855 65.6603 10.1318 63.9501 10.1249C62.2436 10.1179 60.8512 11.4611 60.844 13.128C60.8369 14.7948 62.215 16.152 63.9251 16.1589ZM54.1963 16.1589C55.9064 16.1659 57.2988 14.8192 57.3059 13.1524C57.3131 11.4855 55.9314 10.1318 54.2248 10.1249C52.5147 10.1179 51.1223 11.4611 51.1152 13.128C51.108 14.7948 52.4861 16.152 54.1963 16.1589ZM76.7673 13.1524C76.7601 14.8192 75.3678 16.1659 73.6576 16.1589C71.9475 16.152 70.5694 14.7948 70.5765 13.128C70.5836 11.4611 71.976 10.1179 73.6826 10.1249C75.3927 10.1318 76.7744 11.4855 76.7673 13.1524ZM67.0384 13.1524C67.0313 14.8192 65.6389 16.1659 63.9287 16.1589C62.2186 16.152 60.8405 14.7948 60.8476 13.128C60.8548 11.4611 62.2471 10.1179 63.9537 10.1249C65.6638 10.1318 67.0455 11.4855 67.0384 13.1524ZM57.3095 13.1524C57.3024 14.8192 55.91 16.1659 54.1998 16.1589C52.4897 16.152 51.1116 14.7948 51.1187 13.128C51.1259 11.4611 52.5183 10.1179 54.2284 10.1249C55.935 10.1318 57.3166 11.4855 57.3095 13.1524ZM112.727 10.1249C114.437 10.1318 115.818 11.4855 115.811 13.1524C115.804 14.8192 114.412 16.1659 112.702 16.1589C110.992 16.152 109.613 14.7948 109.621 13.128C109.628 11.4611 111.02 10.1179 112.727 10.1249Z" stroke="white" stroke-miterlimit="10"/>
</svg>
