<svg width="142" height="152" viewBox="0 0 142 152" fill="none" xmlns="http://www.w3.org/2000/svg">
<path d="M8.37535 150.983H21.1087C25.1807 150.983 28.485 147.114 28.485 142.341V51.2959C28.485 46.5226 25.1807 42.6536 21.1087 42.6536H8.37535C4.30335 42.6536 0.999023 46.5226 0.999023 51.2959V142.341C0.999023 147.114 4.30335 150.983 8.37535 150.983Z" stroke="white" stroke-width="2" stroke-miterlimit="10"/>
<path d="M70.8739 51.2959V59.3854C77.0152 49.3531 88.063 42.6704 100.596 42.6704H105.987C109.658 42.6704 113.196 43.2398 116.55 44.3117C130.686 48.8171 140.999 62.1657 140.999 77.7921V142.358C140.999 147.131 137.695 151 133.623 151H120.889C116.801 151 113.513 147.131 113.513 142.358V84.6255C113.513 79.6177 110.409 76.5862 107.438 74.4591C101.731 70.339 92.7191 68.3794 83.7741 70.6739C77.7662 72.2316 73.2603 75.5813 70.8739 79.6847V142.358C70.8739 147.131 67.5695 151 63.4975 151H50.7642C46.6922 151 43.3879 147.131 43.3879 142.358V51.2959C43.3879 46.5226 46.6922 42.6536 50.7642 42.6536H63.4975C67.5695 42.6536 70.8739 46.5226 70.8739 51.2959Z" stroke="white" stroke-width="2" stroke-miterlimit="10"/>
<path d="M22.5272 1H6.9902C3.69058 1 1.01571 3.68449 1.01571 6.99598V22.5889C1.01571 25.9004 3.69058 28.5849 6.9902 28.5849H22.5272C25.8268 28.5849 28.5017 25.9004 28.5017 22.5889V6.99598C28.5017 3.68449 25.8268 1 22.5272 1Z" stroke="white" stroke-width="2" stroke-miterlimit="10"/>
</svg>
