<svg width="127" height="152" viewBox="0 0 127 152" fill="none" xmlns="http://www.w3.org/2000/svg">
<path d="M80.4356 77.0425L80.4438 77.0343L80.4356 77.0234M80.4356 77.0425V77.0234M80.4356 77.0425L80.3593 83.182C82.161 83.3672 83.9137 83.7976 85.5928 84.4649C86.1515 84.6883 86.7022 84.9334 87.2419 85.2085C87.3427 85.2603 87.4436 85.312 87.5444 85.3638L87.9915 84.6502L91.9711 78.3145C92.1046 78.0966 92.32 77.9441 92.5707 77.8842C92.8242 77.827 93.0805 77.8705 93.2958 78.0067C93.5139 78.1429 93.6665 78.3554 93.7237 78.606C93.7837 78.8566 93.7401 79.1126 93.6038 79.3332L89.2044 86.3417C89.8068 86.7366 90.3847 87.1615 90.9326 87.6191C91.1751 87.8153 91.4096 88.0195 91.6386 88.232C91.8702 88.4417 92.0992 88.6596 92.32 88.8803M80.4356 77.0234L80.4547 75.4654M80.4547 75.4136V75.4654M80.4547 75.4136L80.4737 75.4409L80.4547 75.4654M80.4547 75.4136L80.4629 74.828M80.4547 75.4654V75.4109L80.4629 74.828M79.9204 105.338L79.9531 105.294M79.9204 105.338C79.9204 105.338 79.9313 105.294 79.9531 105.294M79.9204 105.338L79.3289 106.122M79.9531 105.294C80.2966 105.275 80.6373 105.251 80.978 105.215C86.4105 104.651 91.4096 101.846 94.6532 97.5421C94.8522 97.2806 95.0457 97.0109 95.2284 96.7358C95.4192 96.458 95.5991 96.172 95.7735 95.8805M79.9531 105.294L79.3289 106.122M79.9531 105.294C79.9531 105.294 78.4212 105.31 78.2495 105.305M79.9531 105.294C79.9313 105.294 78.4212 105.31 78.2495 105.305M78.5167 76.4868L78.4976 78.0639L78.4758 79.6438L78.4321 83.0785H78.3504C77.4836 83.0785 76.6168 83.1357 75.7582 83.2528C75.3084 83.31 74.8641 83.3863 74.4198 83.4762C73.9373 83.5742 73.4603 83.6914 72.9888 83.8248M78.5167 76.4868L72.9888 83.8248M78.5167 76.4868L78.5384 74.9043C78.5303 74.7436 78.5657 74.5802 78.6447 74.4358C78.6802 74.3595 78.7293 74.2887 78.7892 74.2233C78.9528 74.0436 79.1735 73.9319 79.4161 73.9128C79.4298 73.9101 79.4407 73.9101 79.4543 73.9101C79.7596 73.8937 80.0322 74.0218 80.2175 74.2315M72.9888 83.8248C71.8494 84.1435 70.7427 84.5657 69.6769 85.0832L66.1553 78.3772C66.0353 78.1484 65.8336 77.9795 65.5883 77.9032C65.343 77.827 65.0813 77.8515 64.8551 77.9686C64.6261 78.0884 64.4571 78.29 64.3808 78.5379C64.3045 78.783 64.3263 79.0445 64.4462 79.2706L67.9897 86.0093C67.8507 86.0938 67.7117 86.181 67.5726 86.2736C67.311 86.4397 67.0548 86.6168 66.8013 86.7993C66.5478 86.979 66.2997 87.167 66.0571 87.3631M79.3289 106.122L98.4012 133.072C98.5838 133.328 98.87 133.467 99.1644 133.467C99.3498 133.467 99.5378 133.412 99.7014 133.295L113.728 123.421C114.148 123.127 114.249 122.55 113.957 122.127L95.7735 95.8805M79.3289 106.122L60.5865 130.996C60.4366 131.195 60.2158 131.326 59.9704 131.358C59.9268 131.367 59.8832 131.369 59.8396 131.369C59.6379 131.369 59.4389 131.304 59.2754 131.179L46.0308 121.15C45.622 120.839 45.5402 120.256 45.8482 119.845L62.9606 97.1335M95.7735 95.8805C95.9125 95.649 96.0461 95.412 96.1769 95.1723L96.2833 94.9762L102.209 89.5394C102.416 89.3488 102.523 89.0873 102.523 88.8258C102.523 88.5943 102.441 88.3627 102.272 88.1775C102.095 87.9868 101.855 87.8752 101.596 87.8643C101.34 87.8534 101.097 87.946 100.909 88.1203L95.4955 93.0886C94.6451 91.5523 93.5739 90.136 92.32 88.8803M62.9606 97.1335C63.1487 97.395 63.345 97.6537 63.5494 97.9043C63.7456 98.1549 63.9528 98.4001 64.1654 98.6398C67.5427 102.456 72.4136 104.915 77.6308 105.272C77.8352 105.286 78.0424 105.297 78.2495 105.305M62.9606 97.1335C62.3228 96.2455 61.7586 95.3003 61.2816 94.3061L55.6992 88.3791C55.5247 88.1911 55.432 87.946 55.4402 87.69C55.4457 87.4312 55.5547 87.1942 55.7401 87.0199C55.9281 86.8428 56.1735 86.7557 56.4297 86.7584C56.6886 86.7666 56.9258 86.8728 57.1029 87.0608L61.8076 92.0535C62.9388 90.2803 64.3835 88.6869 66.0571 87.3631M117.438 55.5406C117.479 55.4779 117.512 55.4125 117.539 55.3444L117.547 55.3172L123.53 38.9987H123.533M117.438 55.5406C117.318 55.7203 117.138 55.8565 116.923 55.9192C116.838 55.9437 116.748 55.9573 116.661 55.9573C116.459 55.9573 116.263 55.8919 116.1 55.7694C116.1 55.7666 116.1 55.7666 116.1 55.7666L102.855 45.7402H102.852C102.615 45.5577 102.479 45.2744 102.484 44.9775C102.487 44.7896 102.547 44.6125 102.651 44.4627C102.67 44.4328 102.694 44.4055 102.719 44.3783C102.765 44.3238 102.822 44.2748 102.882 44.2312L102.942 44.1904L117.212 34.1912M117.438 55.5406C117.43 55.5542 117.419 55.5705 117.408 55.5841L92.32 88.8803M117.438 55.5406H117.435C117.315 55.7203 117.135 55.8565 116.92 55.9192C116.836 55.9437 116.746 55.9573 116.658 55.9573C116.457 55.9573 116.26 55.8919 116.097 55.7694C116.097 55.7666 116.097 55.7666 116.097 55.7666L103.597 46.3041L102.852 45.7375H102.85C102.613 45.5577 102.476 45.2744 102.482 44.9775C102.484 44.7896 102.544 44.6125 102.648 44.4627L80.5065 73.8474M117.212 34.1912C116.975 34.3655 116.836 34.6379 116.83 34.932C116.827 35.1309 116.887 35.3216 117.002 35.4768C117.054 35.5558 117.122 35.6266 117.198 35.6865L117.743 36.0979L122.102 39.3991C122.175 39.4563 122.26 39.4999 122.344 39.5299C122.448 39.568 122.557 39.5871 122.666 39.5871C122.751 39.5871 122.835 39.5762 122.917 39.5544C123.2 39.47 123.427 39.2711 123.533 38.9987M117.212 34.1912C117.214 34.1884 117.22 34.1857 117.223 34.183H117.228L123.372 29.7895C124.192 29.2066 125.108 29.1548 125.757 29.6587C126.414 30.1708 126.597 31.0778 126.229 32.0339H126.226L123.538 38.9742L123.533 38.9906C123.533 38.9906 123.533 38.996 123.533 38.9987M21.7496 67.7488L20.1496 68.8737M21.7496 67.7488C17.2875 53.5903 21.368 38.2742 32.2684 28.6836M21.7496 67.7488L24.1102 66.0927L28.406 72.2458L21.965 76.7701L17.6692 70.6143L20.1496 68.8737M20.1496 68.8737C15.9546 56.2133 18.3233 42.5969 26.1163 32.5215L8.93849 44.5853M8.93849 44.5853C8.83491 44.2939 8.69042 44.0133 8.50779 43.7491C8.32244 43.4849 8.10984 43.2534 7.8727 43.0545M8.93849 44.5853C9.51363 46.1624 8.93848 48.031 7.43657 49.0878C5.65664 50.3353 3.25252 49.9703 2.06681 48.2707C0.881096 46.571 1.36081 44.1822 3.13802 42.9319C4.63992 41.8778 6.58886 41.9759 7.8727 43.0545M7.8727 43.0545L30.9764 26.8286M30.9764 26.8286L31.1945 27.1446L32.0449 28.3594L32.2684 28.6836M30.9764 26.8286L29.3627 24.5188L35.801 19.9946L37.4147 22.3071M32.2684 28.6836L33.6585 30.672L40.0995 26.1504L38.7094 24.1593M78.9173 27.6049L76.3251 29.4245L80.6209 35.5776L87.062 31.056L82.7634 24.9029L80.5037 26.4909M78.9173 27.6049L80.5037 26.4909M78.9173 27.6049C67.172 18.5319 51.4524 17.1345 38.7094 24.1593M80.5037 26.4909C74.6815 21.8903 67.6844 18.9677 60.3303 18.1342C54.8896 17.5186 49.4517 18.0715 44.3599 19.7113L61.3579 7.77544M38.7094 24.1593L38.4832 23.8379L37.6382 22.6258L37.4147 22.3071M37.4147 22.3071L60.2921 6.24192M60.2921 6.24192C60.393 6.53337 60.5374 6.81665 60.7228 7.08086C60.9081 7.34507 61.1207 7.5766 61.3579 7.77544M60.2921 6.24192C59.717 4.66482 60.2921 2.79627 61.794 1.74215C63.574 0.491909 65.9754 0.859627 67.1638 2.55657C68.3495 4.25625 67.8698 6.64777 66.0925 7.89529C64.5906 8.95213 62.6417 8.85408 61.3579 7.77544M73.921 64.3413L73.8937 64.3004C73.752 64.0961 73.5339 63.9572 73.2886 63.9136C73.0842 63.8782 72.8743 63.9109 72.6889 64.009C72.6535 64.0253 72.6208 64.0471 72.5881 64.0689L58.6539 73.8665L57.9861 74.3377C57.9534 74.3622 57.9207 74.3868 57.8907 74.4167C57.738 74.5529 57.6372 74.7381 57.6018 74.9424C57.5609 75.1848 57.6154 75.4354 57.7599 75.6397M73.921 64.3413L65.2094 47.9574C65.2067 47.952 65.1985 47.9465 65.1985 47.9384C64.4953 46.6854 63.4894 45.6013 62.2846 44.8032L41.5088 31.0016C41.0808 30.721 40.5139 30.7809 40.1541 31.1486C39.797 31.5136 39.7506 32.0829 40.0396 32.4969L53.7257 52.0976C53.9519 52.4218 54.3581 52.5689 54.7397 52.4626C55.6965 52.1984 56.6995 52.5389 57.2365 53.307C57.7735 54.0779 57.7489 55.1429 57.1629 55.9682C57.0048 56.2025 56.7949 56.4095 56.5469 56.5838C56.3288 56.739 56.0917 56.8535 55.8354 56.9352C54.8487 57.2484 53.8102 56.9188 53.2487 56.1153C52.6844 55.309 52.7335 54.2141 53.3659 53.3887C53.614 53.0673 53.6248 52.6206 53.3932 52.2856L39.7125 32.6931C39.4236 32.2818 38.8784 32.1292 38.415 32.3335C37.9489 32.5378 37.69 33.0444 37.799 33.5374L43.1851 58.0274C43.5204 59.5528 44.2427 60.9719 45.284 62.1459L57.7871 75.6779L57.7599 75.6397M73.921 64.3413L73.9264 64.3467L80.5065 73.8474M57.7599 75.6397L57.7898 75.6779V75.6833L66.0571 87.3631M80.4629 74.828C80.452 74.5992 80.362 74.3922 80.2175 74.2315M80.2175 74.2315L80.5065 73.8474M85.3665 94.4805L84.7069 94.6902C83.592 95.0715 82.6026 95.6599 81.7794 96.4416C80.7327 97.4331 80.0131 98.7024 79.7024 100.108L79.1872 102.687L79.1572 102.845C79.1136 103.071 78.9146 103.238 78.672 103.243H78.6584C78.5548 103.243 78.4567 103.213 78.3776 103.156H78.3749C78.2795 103.096 78.2114 103.001 78.1787 102.881C78.1787 102.881 78.1759 102.867 78.1732 102.862L77.5572 100.386L77.4863 100.102C77.1292 98.7514 76.396 97.4658 75.4256 96.4798C74.9704 96.0249 74.4798 95.6354 73.9755 95.3221C73.5503 95.0579 73.1114 94.8509 72.6698 94.7038L72.3755 94.584L72.2883 94.554L72.002 94.4614C71.784 94.3933 71.6422 94.1917 71.6504 93.9602C71.6531 93.8785 71.6722 93.7995 71.7077 93.7341C71.7731 93.6116 71.8876 93.5217 72.032 93.4835C72.1574 93.4699 72.2501 93.4481 72.3564 93.4046C72.4273 93.3828 72.4981 93.3583 72.5663 93.3337C75.0222 92.4894 76.9003 90.3866 77.5108 87.7935L77.579 87.5892L78.2059 85.1132C78.2659 84.879 78.4758 84.7183 78.7265 84.7292C78.9637 84.74 79.149 84.9007 79.1872 85.1323L79.7269 87.7989C80.272 90.5091 82.221 92.6092 84.9413 93.4209C85.0476 93.459 85.1348 93.4808 85.2221 93.5053L85.3366 93.5353C85.5682 93.6088 85.7127 93.7913 85.7181 94.012M85.3665 94.4805V94.4832C85.5737 94.4205 85.7181 94.2299 85.7181 94.012M85.3665 94.4805C85.5737 94.4178 85.7181 94.2271 85.7181 94.0092V94.012M56.7077 136.264L47.6854 148.162C46.8377 149.279 45.7419 150.123 44.6053 150.537C44.101 150.719 43.6022 150.809 43.1279 150.809C42.4164 150.809 41.765 150.605 41.2362 150.207L32.7236 143.763C30.9791 142.439 31.0799 139.473 32.9498 137.005L41.9721 125.107C42.1221 124.908 42.3429 124.78 42.5882 124.745C42.8335 124.71 43.0815 124.778 43.2805 124.927L56.5251 134.957C56.9367 135.267 57.0184 135.853 56.7077 136.264ZM124.43 144.035L115.415 150.379C114.835 150.788 114.137 151 113.398 151C113.172 151 112.94 150.981 112.709 150.94C111.414 150.714 110.185 149.889 109.337 148.679L101.953 138.143C101.658 137.721 101.762 137.141 102.182 136.844L116.209 126.97C116.41 126.829 116.658 126.769 116.906 126.815C117.152 126.856 117.367 126.995 117.512 127.199L124.893 137.732C126.439 139.941 126.231 142.766 124.43 144.035Z" stroke="white" stroke-miterlimit="10"/>
</svg>
