<svg width="131" height="152" viewBox="0 0 131 152" fill="none" xmlns="http://www.w3.org/2000/svg">
<path d="M29.1815 60.5739V120.298C29.1815 126.575 34.2582 131.67 40.5159 131.67H63.9398C66.599 131.67 69.0106 132.745 70.7547 134.497C72.4927 136.248 73.5739 138.659 73.5739 141.334C73.5739 146.672 69.2597 151 63.9398 151H34.8336C21.1178 151 9.89811 139.742 9.89811 125.982V54.3411C9.89811 53.6215 9.92831 52.9094 9.98871 52.2049C10.5731 55.1289 11.1152 57.25 11.6407 58.6635L11.6588 58.7104C12.8608 61.8405 15.893 63.8449 19.4069 63.8449C19.4462 63.8449 19.4854 63.8449 19.5247 63.8449C23.0809 63.8009 26.1085 61.7132 27.2395 58.5271L27.2441 58.515C27.8239 56.8712 28.3645 54.2623 28.8976 50.5384C29.2071 48.3719 30.8319 46.6478 32.943 46.2463C35.0329 45.8478 36.4222 45.4857 37.4399 45.0767C40.5204 43.8571 42.4895 41.0043 42.4563 37.8015C42.4231 34.6003 40.3981 31.7899 37.295 30.6324C36.2968 30.2552 34.8336 29.8718 32.6923 29.4249C32.6818 29.4234 32.6727 29.4204 32.6636 29.4189C33.3794 29.3552 34.1042 29.3234 34.8351 29.3234H63.9413C69.2612 29.3234 73.5754 33.6443 73.5754 38.9893V39.5347C73.5754 44.8797 69.2612 49.2006 63.9413 49.2006H40.5174C34.2598 49.2006 29.183 54.2956 29.183 60.5724L29.1815 60.5739Z" stroke="white" stroke-width="2"/>
<path d="M128.587 92.9077L93.6788 117.694C91.9241 118.942 89.4929 117.681 89.4929 115.52V100.281H64.3536C58.7815 100.281 54.2679 95.7453 54.2679 90.1625C54.2679 84.5796 58.783 80.0436 64.3536 80.0436H89.4929V64.7993C89.4929 62.6374 91.9241 61.3769 93.6788 62.6253L128.587 87.4112C130.471 88.7535 130.471 91.5639 128.587 92.9062V92.9077Z" stroke="white" stroke-width="2"/>
<path d="M35.5871 40.3998C34.823 40.7089 33.4851 41.0194 32.0053 41.3028C27.7741 42.1087 24.5441 45.5479 23.931 49.8248C23.5414 52.5352 23.0522 55.3092 22.5131 56.8409C21.5904 59.4392 17.3321 59.4831 16.343 56.9045C15.7541 55.3213 15.1425 52.4973 14.6412 49.8233C14.2908 47.9568 13.4346 46.2751 12.2191 44.9252C10.8464 43.4026 9.01624 42.3012 6.93539 41.8315C5.28641 41.4588 3.74767 41.074 2.90355 40.7664C0.390829 39.8135 0.357607 36.6819 2.85221 35.688C3.62687 35.3775 5.01611 35.0396 6.5458 34.726C10.709 33.87 13.8937 30.496 14.5128 26.2767C14.913 23.5527 15.4219 20.7392 15.9881 19.1818C16.8927 16.6062 21.151 16.5608 22.128 19.1182C22.7305 20.6983 23.327 23.5284 23.8087 26.2343C24.1605 28.2083 25.0756 29.984 26.3879 31.3823C27.7756 32.8655 29.6058 33.9261 31.6791 34.3563C33.2601 34.6851 34.7173 35.0351 35.5403 35.3487C38.053 36.2744 38.0862 39.4211 35.5916 40.3983L35.5871 40.3998Z" stroke="white" stroke-width="2"/>
<path d="M43.8486 12.9656C43.4545 13.1247 42.7629 13.2853 42.0003 13.4307C39.8152 13.8474 38.1481 15.623 37.831 17.8304C37.6302 19.2288 37.378 20.662 37.0987 21.4513C36.6215 22.7921 34.4228 22.8148 33.9124 21.4846C33.6089 20.6665 33.2933 19.2091 33.0336 17.8289C32.6485 15.779 31.0826 14.161 29.0546 13.7034C28.2029 13.511 27.4087 13.3126 26.9723 13.1535C25.6751 12.6611 25.6585 11.0446 26.9451 10.531C27.3452 10.3704 28.0625 10.1962 28.8523 10.034C31.0026 9.59166 32.6455 7.84937 32.9656 5.67227C33.1725 4.26633 33.4353 2.81341 33.7267 2.01045C34.1933 0.680251 36.392 0.657525 36.8963 1.97712C37.2074 2.79372 37.5154 4.25421 37.7631 5.65106C38.1361 7.74938 39.7458 9.41137 41.8266 9.84467C42.642 10.0144 43.3956 10.1946 43.8199 10.3567C45.117 10.8355 45.1336 12.4596 43.8471 12.9641L43.8486 12.9656Z" stroke="white" stroke-width="2"/>
</svg>
