<svg width="152" height="152" viewBox="0 0 152 152" fill="none" xmlns="http://www.w3.org/2000/svg">
<path d="M76.7298 93.9262L76.6013 150.999M76.7298 93.9262L70.5274 107.572M76.7298 93.9262L84.1746 107.859C84.8478 109.122 86.4053 109.702 87.7914 109.209L125.692 95.7865L125.774 132.449H125.771C125.771 133.955 124.777 135.299 123.289 135.792L77.8987 150.808C77.4795 150.946 77.0389 151.01 76.6013 150.999M76.7298 93.9262H76.7329L32.1897 76.6715L24.6868 89.4207C23.8178 90.8942 24.5032 92.7603 26.1403 93.3931L32.4009 95.807M76.6013 150.999C76.1699 150.99 75.7354 150.908 75.3253 150.75L35.1181 135.352C33.7319 134.819 32.8201 133.542 32.8048 132.112L32.4009 95.807M32.4009 95.807L66.7514 109.054M66.7514 109.054C68.2202 109.622 69.894 108.966 70.5274 107.572M66.7514 109.054C68.2202 109.62 69.897 108.963 70.5274 107.572M125.483 77.1903L125.563 76.9501L125.581 76.8944L136.664 43.8028M136.664 43.8028C136.38 43.9405 135.979 43.8204 135.893 43.4542L134.89 39.1655C134.382 36.9918 133.243 34.9675 131.664 33.3504C130.41 32.0702 128.88 31.0478 127.16 30.4151L126.095 30.0225C125.603 29.8409 125.655 29.1524 126.172 29.0411H126.181C126.368 28.9972 126.554 28.9532 126.735 28.9034C130.994 27.7697 134.293 24.3774 135.437 20.2644L136.686 16.1513C136.836 15.6211 137.637 15.6533 137.735 16.1953L138.485 20.3464C138.965 22.9859 140.336 25.265 142.31 26.9524M136.664 43.8028L137.328 41.8223M136.664 43.8028C136.793 43.7443 136.897 43.6328 136.94 43.4658L137.328 41.8223M142.31 26.9524L151 1M142.31 26.9524C143.595 28.0539 145.134 28.9032 146.854 29.4334C147.056 29.4949 147.258 29.5535 147.463 29.6063C147.735 29.6766 147.867 29.8992 147.861 30.1189C147.854 30.324 147.729 30.5232 147.478 30.5964L146.78 30.7986L146.435 30.9011C144.577 31.4431 142.907 32.3395 141.53 33.523C140.599 34.3228 139.804 35.2514 139.18 36.2914C138.629 37.1995 138.21 38.1868 137.937 39.2472L137.328 41.8223M1 1L15.9048 36.901M15.9048 36.901C15.9048 36.857 15.9048 36.8101 15.9048 36.7662C15.9324 35.3044 17.1931 34.1384 18.72 34.1619C20.2499 34.1882 21.4647 35.3952 21.4402 36.857M15.9048 36.901C15.9232 37.5367 16.1802 38.1197 16.5933 38.565C17.0921 39.1041 17.8142 39.4468 18.622 39.4615C20.1489 39.4878 21.4096 38.3219 21.4371 36.8571L21.4402 36.857M21.4402 36.857C21.4127 38.3218 20.152 39.4877 18.6251 39.4613C17.8173 39.4467 17.0951 39.1039 16.5964 38.5649L23.5791 55.3773C24.9132 54.2377 25.8955 52.7173 26.3667 51.0211L26.434 50.7985L27.2571 48.0916C27.3612 47.7108 27.9334 47.7342 28.0037 48.1209L28.4964 50.8366L28.5392 51.0797C29.1053 54.1908 31.3972 56.596 34.506 57.5598C34.6499 57.6037 34.7937 57.6447 34.9406 57.6828C35.1333 57.7326 35.2282 57.8937 35.2251 58.049C35.219 58.1955 35.1303 58.3361 34.9528 58.3888L34.454 58.5353L34.2062 58.6056C32.8843 58.9923 31.6909 59.6309 30.7118 60.4746C29.4725 61.5409 28.5668 62.9324 28.1476 64.5583L27.8722 65.7243L32.3855 76.5985L32.462 76.7772L32.511 76.8973M125.649 76.9205L76.7298 93.9292L32.1867 76.6744L77.4367 59.6804C78.3057 59.3553 79.2696 59.3553 80.1386 59.6804L125.649 76.9176V76.9205ZM132.417 93.4077H132.414C134.164 92.7867 134.868 90.7799 133.868 89.2742L125.646 76.9205L76.7268 93.9292L84.1715 107.862C84.8447 109.124 86.3992 109.704 87.7884 109.212L132.417 93.4077ZM137.937 39.2476C138.209 38.1871 138.629 37.1999 139.179 36.2947L137.328 41.8226L137.937 39.2476ZM128.742 66.1256C128.712 67.7573 127.304 69.058 125.6 69.0317C123.892 69.0024 122.534 67.6548 122.561 66.0231C122.592 64.3884 123.999 63.0877 125.704 63.117C127.411 63.1434 128.77 64.4909 128.742 66.1256ZM35.222 58.049C35.2159 58.1955 35.1272 58.3361 34.9497 58.3888L34.4509 58.5353L34.2031 58.6056C32.8812 58.9923 31.6878 59.6309 30.7087 60.4746C29.4694 61.541 28.5637 62.9325 28.1444 64.5583L27.4345 67.5669C27.3397 67.9419 26.7767 67.936 26.6879 67.5581L25.9719 64.4997C25.6108 62.95 24.8 61.5058 23.6709 60.3545C22.7804 59.4405 21.688 58.7111 20.461 58.2599L20.155 58.1457L19.7021 57.9787C19.3503 57.8498 19.387 57.3606 19.7572 57.2785H19.7633C19.898 57.2492 20.0296 57.217 20.1581 57.1819C21.4432 56.8391 22.6029 56.2122 23.576 55.3802C24.9101 54.2377 25.8924 52.7173 26.3636 51.0211L26.4309 50.7985L27.254 48.0916C27.3581 47.7108 27.9303 47.7342 28.0006 48.1209L28.4933 50.8366L28.5361 51.0797C29.1022 54.1909 31.3941 56.596 34.5029 57.5598C34.6468 57.6037 34.7906 57.6447 34.9375 57.6828C35.1302 57.7326 35.2251 57.8937 35.222 58.049ZM29.5337 26.0943L29.1512 27.7113C29.0992 27.9135 28.7963 27.9105 28.7504 27.7084L28.3648 26.065C28.169 25.233 27.7345 24.4567 27.1286 23.8356C26.6482 23.3464 26.0607 22.9538 25.4028 22.7107L25.2376 22.6492L24.9959 22.5584C24.8062 22.4881 24.8276 22.2244 25.0234 22.1834H25.0265C25.0969 22.1687 25.1703 22.1512 25.2376 22.1307C26.8685 21.6971 28.1323 20.3964 28.5729 18.8203L28.6096 18.7002L29.0503 17.2443C29.1084 17.0392 29.4144 17.0538 29.4511 17.2618L29.7143 18.7207L29.7387 18.8496C30.0447 20.5224 31.2748 21.8143 32.9455 22.3328C33.022 22.3562 33.1016 22.3797 33.1781 22.4002C33.2821 22.4265 33.3311 22.5115 33.3311 22.5964C33.3311 22.6755 33.2821 22.7517 33.1842 22.7781L32.9149 22.8572L32.7834 22.8953C32.0735 23.1032 31.4309 23.446 30.9046 23.9001C30.2375 24.4713 29.751 25.2213 29.5276 26.0943H29.5337ZM120.119 55.1603L119.737 56.7774C119.685 56.9796 119.382 56.9766 119.336 56.7745L118.951 55.1311C118.755 54.2991 118.32 53.5228 117.714 52.9017C117.234 52.4125 116.646 52.0199 115.989 51.7768L115.823 51.7153L115.582 51.6244C115.392 51.5541 115.413 51.2905 115.609 51.2495H115.612C115.683 51.2348 115.756 51.2172 115.823 51.1967C117.454 50.7632 118.718 49.4625 119.159 47.8864L119.195 47.7663L119.636 46.3103C119.694 46.1053 120 46.1199 120.037 46.3279L120.3 47.7868L120.324 47.9157C120.63 49.5884 121.861 50.8804 123.531 51.3989C123.608 51.4223 123.687 51.4457 123.764 51.4663C123.868 51.4926 123.917 51.5776 123.917 51.6625C123.917 51.7416 123.868 51.8178 123.77 51.8442L123.501 51.9233L123.369 51.9613C122.659 52.1693 122.017 52.5121 121.49 52.9662C120.823 53.5374 120.337 54.2874 120.113 55.1603H120.119ZM128.739 66.1258C128.709 67.7575 127.301 69.0582 125.597 69.0319C123.889 69.0026 122.531 67.655 122.558 66.0233C122.589 64.3886 123.996 63.0879 125.701 63.1172C127.408 63.1436 128.767 64.4912 128.739 66.1258ZM142.9 51.8997C142.9 52.6488 142.266 53.2561 141.484 53.2561C140.701 53.2561 140.067 52.6488 140.067 51.8997C140.067 51.1506 140.701 50.5434 141.484 50.5434C142.266 50.5434 142.9 51.1506 142.9 51.8997ZM41.198 39.8218C41.198 40.5709 40.5637 41.1782 39.7813 41.1782C38.9989 41.1782 38.3646 40.5709 38.3646 39.8218C38.3646 39.0728 38.9989 38.4655 39.7813 38.4655C40.5637 38.4655 41.198 39.0728 41.198 39.8218ZM107.112 71.6183C107.112 72.3674 106.477 72.9747 105.695 72.9747C104.912 72.9747 104.278 72.3674 104.278 71.6183C104.278 70.8692 104.912 70.262 105.695 70.262C106.477 70.262 107.112 70.8692 107.112 71.6183ZM97.8432 50.6667C97.8432 51.4158 97.2089 52.0231 96.4264 52.0231C95.644 52.0231 95.0097 51.4158 95.0097 50.6667C95.0097 49.9176 95.644 49.3103 96.4264 49.3103C97.2089 49.3103 97.8432 49.9176 97.8432 50.6667ZM95.5238 80.2455C95.5238 81.2664 94.6593 82.094 93.593 82.094C92.5266 82.094 91.6622 81.2664 91.6622 80.2455C91.6622 79.2246 92.5266 78.397 93.593 78.397C94.6593 78.397 95.5238 79.2246 95.5238 80.2455ZM113.804 35.1376C113.804 36.1585 112.939 36.9861 111.873 36.9861C110.806 36.9861 109.942 36.1585 109.942 35.1376C109.942 34.1167 110.806 33.2891 111.873 33.2891C112.939 33.2891 113.804 34.1167 113.804 35.1376ZM46.091 67.183C46.091 68.2039 45.2265 69.0315 44.1601 69.0315C43.0938 69.0315 42.2293 68.2039 42.2293 67.183C42.2293 66.1621 43.0938 65.3344 44.1601 65.3344C45.2265 65.3344 46.091 66.1621 46.091 67.183Z" stroke="white" stroke-linecap="round" stroke-linejoin="round"/>
</svg>
