<?xml version="1.0" encoding="UTF-8"?><svg id="_ícones" xmlns="http://www.w3.org/2000/svg" viewBox="0 0 1000 1000"><defs><style>.cls-1{fill:#010101;}</style></defs><g id="saida"><path class="cls-1" d="m259.5,398.17v394.21c0,41.43,33.62,75.06,75.06,75.06h155.12c17.61,0,33.58,7.1,45.13,18.66,11.51,11.56,18.67,27.47,18.67,45.13,0,35.23-28.57,63.8-63.8,63.8h-192.75c-90.83,0-165.13-74.31-165.13-165.13v-472.87c0-4.75.2-9.45.6-14.1,3.87,19.3,7.46,33.3,10.94,42.63l.12.31c7.96,20.66,28.04,33.89,51.31,33.89.26,0,.52,0,.78,0,23.55-.29,43.6-14.07,51.09-35.1l.03-.08c3.84-10.85,7.42-28.07,10.95-52.65,2.05-14.3,12.81-25.68,26.79-28.33,13.84-2.63,23.04-5.02,29.78-7.72,20.4-8.05,33.44-26.88,33.22-48.02-.22-21.13-13.63-39.68-34.18-47.32-6.61-2.49-16.3-5.02-30.48-7.97-.07-.01-.13-.03-.19-.04,4.74-.42,9.54-.63,14.38-.63h192.75c35.23,0,63.8,28.52,63.8,63.8v3.6c0,35.28-28.57,63.8-63.8,63.8h-155.12c-41.44,0-75.06,33.63-75.06,75.06Z"/><path class="cls-1" d="m917.79,611.59l-231.17,163.6c-11.62,8.24-27.72-.08-27.72-14.35v-100.58h-166.48c-36.9,0-66.79-29.94-66.79-66.79s29.9-66.79,66.79-66.79h166.48v-100.62c0-14.27,16.1-22.59,27.72-14.35l231.17,163.6c12.48,8.86,12.48,27.41,0,36.27Z"/><path class="cls-1" d="m301.92,265.01c-5.06,2.04-13.92,4.09-23.72,5.96-28.02,5.32-49.41,28.02-53.47,56.25-2.58,17.89-5.82,36.2-9.39,46.31-6.11,17.15-34.31,17.44-40.86.42-3.9-10.45-7.95-29.09-11.27-46.74-2.32-12.32-7.99-23.42-16.04-32.33-9.09-10.05-21.21-17.32-34.99-20.42-10.92-2.46-21.11-5-26.7-7.03-16.64-6.29-16.86-26.96-.34-33.52,5.13-2.05,14.33-4.28,24.46-6.35,27.57-5.65,48.66-27.92,52.76-55.77,2.65-17.98,6.02-36.55,9.77-46.83,5.99-17,34.19-17.3,40.66-.42,3.99,10.43,7.94,29.11,11.13,46.97,2.33,13.03,8.39,24.75,17.08,33.98,9.19,9.79,21.31,16.79,35.04,19.63,10.47,2.17,20.12,4.48,25.57,6.55,16.64,6.11,16.86,26.88.34,33.33Z"/><path class="cls-1" d="m356.63,83.93c-2.61,1.05-7.19,2.11-12.24,3.07-14.47,2.75-25.51,14.47-27.61,29.04-1.33,9.23-3,18.69-4.85,23.9-3.16,8.85-17.72,9-21.1.22-2.01-5.4-4.1-15.02-5.82-24.13-2.55-13.53-12.92-24.21-26.35-27.23-5.64-1.27-10.9-2.58-13.79-3.63-8.59-3.25-8.7-13.92-.18-17.31,2.65-1.06,7.4-2.21,12.63-3.28,14.24-2.92,25.12-14.42,27.24-28.79,1.37-9.28,3.11-18.87,5.04-24.17,3.09-8.78,17.65-8.93,20.99-.22,2.06,5.39,4.1,15.03,5.74,24.25,2.47,13.85,13.13,24.82,26.91,27.68,5.4,1.12,10.39,2.31,13.2,3.38,8.59,3.16,8.7,13.88.18,17.21Z"/></g></svg>