<svg width="152" height="152" viewBox="0 0 152 152" fill="none" xmlns="http://www.w3.org/2000/svg">
<path d="M132.872 112.226V116.78C132.872 122.691 127.923 127.503 121.843 127.503H12.1585C5.97493 127.503 1.12988 122.793 1.12988 116.78V112.226M132.872 112.226C132.872 112.877 132.338 113.402 131.681 113.402H2.32048C1.66324 113.402 1.12988 112.877 1.12988 112.226M132.872 112.226V102.615H90.2606M1.12988 112.226V50.8361C1.12988 44.844 6.07817 39.9709 12.1585 39.9709H36.1119M130.883 84.1811C130.883 84.5304 130.731 84.8424 130.487 85.056M130.883 84.1811C130.883 83.8352 130.731 83.5232 130.487 83.3096M130.883 84.1811C130.883 83.8318 130.731 83.5232 130.487 83.3096M130.883 84.1811C130.883 84.527 130.731 84.8424 130.487 85.056M130.487 85.056V83.3096M130.487 85.056C130.277 85.2425 129.995 85.3578 129.692 85.3578H96.4236C95.7629 85.3578 95.2295 84.8322 95.2295 84.1811C95.2295 83.53 95.7629 83.0078 96.4236 83.0078H129.692C129.995 83.0078 130.277 83.1231 130.487 83.3096M130.883 76.88C130.883 77.2293 130.731 77.5413 130.487 77.7515M130.883 76.88C130.883 76.5341 130.731 76.2221 130.487 76.0085M130.883 76.88C130.883 76.5307 130.731 76.2221 130.487 76.0085M130.883 76.88C130.883 77.2259 130.731 77.5413 130.487 77.7515M130.487 77.7515V76.0085M130.487 77.7515C130.277 77.9414 129.995 78.0567 129.692 78.0567H96.4236C95.7629 78.0567 95.2295 77.5311 95.2295 76.88C95.2295 76.2289 95.7629 75.7066 96.4236 75.7066H129.692C129.995 75.7066 130.277 75.822 130.487 76.0085M130.883 69.5789C130.883 69.9282 130.731 70.2401 130.487 70.4538M130.883 69.5789C130.883 69.233 130.731 68.921 130.487 68.7074M130.883 69.5789C130.883 69.2296 130.731 68.921 130.487 68.7074M130.883 69.5789C130.883 69.9248 130.731 70.2401 130.487 70.4538M130.487 70.4538V68.7074M130.487 70.4538C130.277 70.6403 129.995 70.7556 129.692 70.7556H96.4236C95.7629 70.7556 95.2295 70.23 95.2295 69.5789C95.2295 68.9278 95.7629 68.4056 96.4236 68.4056H129.692C129.995 68.4056 130.277 68.5209 130.487 68.7074M130.883 62.2778C130.883 62.6271 130.731 62.9391 130.487 63.1493M130.883 62.2778C130.883 61.9319 130.731 61.6199 130.487 61.4063M130.883 62.2778C130.883 61.9285 130.731 61.6199 130.487 61.4063M130.883 62.2778C130.883 62.6237 130.731 62.9391 130.487 63.1493M130.487 63.1493V61.4063M130.487 63.1493C130.277 63.3392 129.995 63.4545 129.692 63.4545H96.4236C95.7629 63.4545 95.2295 62.9289 95.2295 62.2778C95.2295 61.6267 95.7629 61.1044 96.4236 61.1044H129.692C129.995 61.1044 130.277 61.2198 130.487 61.4063M13.1324 67.7748V67.8189C13.129 67.846 13.129 67.8766 13.129 67.9037V99.7668C13.129 101.337 14.4228 102.615 16.016 102.615H66.8682C68.4614 102.615 69.7587 101.337 69.7587 99.7668V69.5687C69.7587 67.9986 68.4614 66.7235 66.8682 66.7235M13.1324 67.7748C13.1978 67.1848 13.7036 66.7235 14.3196 66.7235M13.1324 67.7748L13.621 60.6263M14.3196 66.7235H66.8682M14.3196 66.7235H36.1601M14.3196 66.7235C13.7036 66.7235 13.1978 67.1848 13.1358 67.7748L13.621 60.6263M66.8682 66.7235H36.1601M36.1601 66.7235L33.3762 60.2431C32.7809 58.8629 31.4148 57.9676 29.8904 57.9676H16.5046C14.9871 57.9676 13.7208 59.1342 13.621 60.6263M90.2606 102.615C88.4403 102.615 86.9606 101.144 86.9606 99.3395M90.2606 102.615H135.851C137.672 102.615 139.151 101.144 139.151 99.3395V50.8802M86.9606 99.3395V39.9709H65.8669M86.9606 99.3395V38.1634C86.9606 36.3559 88.4403 34.8842 90.2606 34.8842H123.102M65.8669 39.9709L66.6239 41.1442L67.3775 42.3176L78.0036 58.8154M65.8669 39.9709L61.4038 33.0394M78.0036 58.8154C79.9478 59.0935 81.4412 60.7416 81.4412 62.7356C81.4412 64.9228 79.6415 66.6964 77.422 66.6964C75.2025 66.6964 73.4028 64.9228 73.4028 62.7356C73.4028 61.8946 73.6678 61.1146 74.1255 60.4737M78.0036 58.8154C77.8143 58.7883 77.6181 58.7747 77.422 58.7747C76.0559 58.7747 74.8481 59.4462 74.1255 60.4737M74.1255 60.4737L60.9048 39.9709M60.9048 39.9709H47.7737M60.9048 39.9709L57.8561 35.2403M47.7737 39.9709L56.0082 34.83C54.7109 34.189 53.8128 32.8767 53.7852 31.354L42.8151 38.2041M47.7737 39.9709L44.0161 42.3176L43.7098 42.5109M43.7098 42.5109C43.111 43.9589 41.6692 44.9796 39.9865 44.9796C38.3038 44.9796 36.7347 43.8673 36.1911 42.3176C36.0603 41.9479 35.9811 41.5546 35.9708 41.1442C35.9673 41.1035 35.9673 41.0595 35.9673 41.0188C35.9673 40.8289 35.9811 40.6423 36.0052 40.4592C36.0328 40.2931 36.0672 40.1303 36.1119 39.9709M43.7098 42.5109C43.7373 42.4498 43.7614 42.3854 43.782 42.3176C43.9128 41.9479 43.992 41.5546 44.0023 41.1442C44.0057 41.1035 44.0057 41.0595 44.0057 41.0188C44.0057 40.6559 43.9575 40.3066 43.8611 39.9709C43.6753 39.2927 43.3072 38.6857 42.8151 38.2041M36.1119 39.9709C36.4732 38.6619 37.5021 37.6208 38.8166 37.2309M36.1119 39.9709H35.6646L19.6257 16.9451C20.0661 15.7684 20.775 14.7036 21.7041 13.8253M42.8151 38.2041C42.0856 37.4954 41.0876 37.0579 39.9865 37.0579C39.5804 37.0579 39.1882 37.119 38.8166 37.2309M38.8166 37.2309L22.2099 13.3878M21.7041 13.8253C21.8658 13.6727 22.0344 13.5234 22.2099 13.3878M21.7041 13.8253C20.775 14.7036 20.0662 15.7684 19.6257 16.9417C19.5466 17.1588 19.4743 17.3758 19.4124 17.5928L18.5796 20.516C18.5005 20.8042 18.2459 20.9907 17.9465 20.9907H17.9189C17.6058 20.9772 17.358 20.7635 17.2995 20.4617L16.7868 17.5148C16.4978 16.0295 15.7648 14.673 14.6706 13.598C13.8138 12.757 12.778 12.1127 11.5874 11.6888L10.8992 11.4413C10.6273 11.3463 10.4587 11.0988 10.4656 10.8173C10.4725 10.5121 10.679 10.2612 10.9852 10.1968C11.1194 10.1662 11.2536 10.1357 11.3843 10.1018C14.3127 9.332 16.453 7.17864 17.1137 4.34026L17.7676 1.50528C17.8364 1.20346 18.0944 1 18.4075 1H18.4144C18.731 1.00339 18.9891 1.21024 19.0545 1.51544L19.7393 4.38774C20.3484 7.23968 22.3855 9.55582 25.0592 10.4375C25.1727 10.4748 25.2932 10.5121 25.4102 10.5426C25.6992 10.624 25.8919 10.8682 25.8953 11.1564C25.9022 11.4447 25.7199 11.699 25.4412 11.7872L24.7151 12.0212C23.8204 12.3094 22.967 12.774 22.2099 13.3878M57.8561 35.2403C59.4114 35.2233 60.7535 34.3314 61.4038 33.0394M57.8561 35.2403C57.8388 35.2403 57.8181 35.2403 57.8009 35.2403C57.1575 35.2403 56.5484 35.0911 56.0082 34.8266C54.7109 34.1856 53.8128 32.8733 53.7852 31.3506C53.7818 31.3269 53.7818 31.2998 53.7818 31.276C53.7818 29.0887 55.5814 27.3152 57.8009 27.3152C60.0204 27.3152 61.8202 29.0887 61.8202 31.276V31.2794C61.8202 31.9136 61.6688 32.5104 61.4038 33.0394M151.13 39.5945V88.0538C151.13 89.8613 149.65 91.333 147.83 91.333H139.151V50.8802M151.13 39.5945C151.13 39.7471 151.099 39.9031 151.037 40.0489C150.851 40.4863 150.418 40.7712 149.936 40.7712H137.19C135.37 40.7712 133.89 39.2995 133.89 37.492V24.7752C133.89 24.3005 134.183 23.8698 134.63 23.6901C134.778 23.629 134.926 23.6019 135.081 23.6019M151.13 39.5945C151.13 39.5504 151.126 39.5097 151.12 39.4656C151.116 39.4046 151.102 39.3435 151.085 39.2859C151.071 39.2418 151.058 39.1977 151.04 39.1536C150.982 39.0112 150.899 38.8824 150.786 38.7704L135.931 23.9512C135.872 23.8935 135.81 23.8427 135.745 23.802C135.71 23.7782 135.679 23.7579 135.642 23.7409C135.621 23.7274 135.6 23.7172 135.576 23.7104C135.559 23.7002 135.538 23.6901 135.518 23.6833C135.463 23.6629 135.408 23.646 135.353 23.6358C135.322 23.629 135.291 23.6188 135.26 23.6188C135.201 23.6053 135.139 23.6019 135.081 23.6019M139.151 50.8802C139.151 50.8361 139.151 50.7954 139.141 50.7513C139.138 50.7174 139.134 50.6801 139.127 50.6462C139.12 50.6089 139.11 50.575 139.1 50.5411C139.086 50.497 139.072 50.4529 139.052 50.4122M139.151 50.8802C139.151 51.0328 139.124 51.1854 139.062 51.3312C138.876 51.7686 138.443 52.0535 137.961 52.0535H125.212C123.395 52.0535 121.912 50.5852 121.912 48.7777V36.0609C121.912 35.5828 122.204 35.1555 122.652 34.9724C122.799 34.9147 122.951 34.8842 123.102 34.8842M139.052 50.4122L139.048 50.4054M139.052 50.4122C139.052 50.4088 139.048 50.4054 139.048 50.4054M139.048 50.4054C139.034 50.3681 139.014 50.3308 138.99 50.2935C138.942 50.2053 138.88 50.1274 138.807 50.0528L123.952 35.2335C123.894 35.1758 123.832 35.125 123.766 35.0843C123.704 35.0402 123.636 35.0063 123.567 34.9758C123.529 34.9622 123.491 34.9486 123.446 34.9351C123.412 34.9249 123.378 34.9147 123.343 34.9079C123.264 34.8944 123.185 34.8842 123.102 34.8842M123.102 34.8842H98.9356V26.8777C98.9356 25.0703 100.415 23.6019 102.236 23.6019H135.081M105.154 144.387V149.976C105.154 150.542 104.686 151 104.111 151H29.887C29.3158 151 28.8478 150.542 28.8478 149.976V144.387C28.8478 143.821 29.3158 143.363 29.887 143.363H104.111C104.686 143.363 105.154 143.821 105.154 144.387ZM89.3109 143.363H44.6698L53.4067 127.503H80.1164L89.3109 143.363Z" stroke="white" stroke-miterlimit="10"/>
</svg>
