<svg width="162" height="152" viewBox="0 0 162 152" fill="none" xmlns="http://www.w3.org/2000/svg">
<path d="M96.4733 53.8425L96.3005 53.8025M96.4733 53.8425L96.4671 53.8025H96.3005M96.4733 53.8425L97.5254 54.0857L135.66 62.9446L136.682 63.1848L137.7 63.4189L149.854 66.2435C150.844 66.4745 151.459 67.4602 151.227 68.449L149.471 75.9864C149.24 76.9721 148.253 77.585 147.265 77.3571L137.7 75.1331L136.682 74.899L74.4174 60.431C74.0039 60.3356 73.6552 60.1045 73.4053 59.7996C73.0628 59.3745 72.9085 58.8016 73.0443 58.2286L73.0875 58.0377L73.4701 56.4051L74.5501 51.7663L74.6735 51.2303L74.8 50.6913C75.0314 49.7025 76.0188 49.0895 77.0093 49.3205L96.3005 53.8025M119.621 94.5851C119.89 94.6252 120.146 94.4527 120.211 94.1878C120.276 93.9075 120.1 93.6272 119.819 93.5625L108.84 91.0121C108.553 90.9443 108.279 91.1199 108.214 91.4002C108.149 91.6805 108.322 91.9607 108.603 92.0254L119.584 94.5759M119.621 94.5851C119.609 94.5851 119.597 94.579 119.584 94.5759M119.621 94.5851C119.609 94.5821 119.584 94.5759 119.584 94.5759M120.748 89.7522C121.016 89.7922 121.275 89.6229 121.337 89.3549C121.402 89.0746 121.226 88.7943 120.945 88.7296L109.967 86.1791C109.683 86.1083 109.405 86.2869 109.34 86.5672C109.275 86.8475 109.448 87.1278 109.729 87.1925L120.711 89.743M120.748 89.7522C120.735 89.7491 120.723 89.7461 120.711 89.743M120.748 89.7522C120.735 89.7491 120.711 89.743 120.711 89.743M87.7102 82.221C87.9756 82.261 88.2347 82.0916 88.2964 81.8236C88.3612 81.5433 88.1854 81.263 87.9046 81.1983L76.926 78.6479C76.6421 78.577 76.3644 78.7557 76.2996 79.036C76.2348 79.3163 76.4076 79.5966 76.6884 79.6613L87.6701 82.2117M87.7102 82.221C87.6948 82.2179 87.6824 82.2148 87.6701 82.2117M87.7102 82.221C87.6948 82.2179 87.6701 82.2117 87.6701 82.2117M80.9095 65.5074L80.4343 65.3966C79.8357 65.2549 79.234 65.4273 78.8051 65.8062M80.9095 65.5074L90.518 67.7374C91.5085 67.9684 92.1225 68.9541 91.8911 69.9429L90.1046 77.6128C89.941 78.3243 89.3825 78.8387 88.716 78.9865C88.4538 79.0482 88.1761 79.0512 87.8953 78.9865L77.8146 76.6425C77.5431 76.5809 77.2993 76.4607 77.0957 76.3006C76.5495 75.8724 76.2718 75.1547 76.4384 74.4401L77.5338 69.7458L78.0584 67.491L78.2281 66.7671C78.3176 66.379 78.5274 66.0496 78.8051 65.8062M80.9095 65.5074C80.9095 65.5074 80.2194 65.2924 79.7804 65.3625C79.1559 65.4621 78.8051 65.8062 78.8051 65.8062M137.771 107.923L137.7 117.413M137.771 107.923L136.753 107.689L135.731 107.458L98.3462 98.9345M137.771 107.923L144.815 109.527C144.889 109.543 144.963 109.558 145.037 109.57C145.766 109.681 146.5 109.53 147.129 109.133C147.821 108.699 148.305 108.021 148.487 107.223L161.363 50.9253C161.659 49.6286 160.397 48.2702 158.49 47.8358L120.346 39.1403M137.7 117.413C137.7 117.977 137.243 118.429 136.682 118.429H26.06C25.4953 118.429 25.0386 117.977 25.0386 117.413M137.7 117.413V121.356C137.7 126.478 133.47 130.646 128.27 130.646H34.4713C29.1826 130.646 25.0386 126.564 25.0386 121.356V117.413M25.0386 117.413V109.641L98.3462 98.9345M98.3462 98.9345L95.6401 98.3184M95.6401 98.3184H95.5723L98.2783 98.9345L25.0417 109.641L17.8245 110.698C17.806 110.701 17.7875 110.704 17.772 110.704C16.3558 110.883 15.0475 109.897 14.8407 108.48L1.44306 17.1843C1.30113 16.2171 1.57265 15.2591 2.2052 14.4798C2.81923 13.7221 3.70482 13.2261 4.69838 13.0814L87.0282 1.0437C87.9724 0.898925 88.9413 1.11761 89.722 1.64433C90.5242 2.19262 91.0457 3.00889 91.1815 3.93913L92.5823 13.4849C92.2953 13.9284 92.0238 14.3843 91.7708 14.8556C91.6535 15.0743 91.5394 15.2961 91.4314 15.5271C91.274 15.8413 91.129 16.1585 90.9932 16.482C90.9778 16.5189 90.9624 16.5559 90.9501 16.5929C90.5458 17.5662 90.2188 18.5827 89.9781 19.6392C88.9382 24.1919 89.6942 28.7414 91.6751 32.6041M95.6401 98.3184L62.7507 90.8211C62.0781 90.6671 61.4887 90.3036 61.066 89.7769C60.9796 89.6783 60.9055 89.5736 60.8376 89.4657C60.5661 89.0376 60.4118 88.5571 60.3748 88.0673M60.3748 88.0673L27.0813 92.7863L26.063 92.928H26.0507L26.0384 92.931C25.6156 92.9865 25.2268 92.6908 25.1651 92.2657C25.1034 91.8406 25.4027 91.4433 25.8285 91.3817L26.063 91.3478L60.6062 86.4563M60.3748 88.0673C60.3532 87.7654 60.3778 87.4604 60.4457 87.1585L60.6062 86.4563M60.6062 86.4563L61.9238 80.6993M61.9238 80.6993L27.0813 85.637L26.063 85.7787L25.054 85.9234H25.0417C24.6159 85.9789 24.2271 85.6832 24.1685 85.2581C24.1068 84.833 24.403 84.4357 24.8319 84.3771L25.0417 84.3463L62.2971 79.0698M61.9238 80.6993L62.2971 79.0698M62.2971 79.0698L63.6116 73.3128M63.6116 73.3128L45.959 75.8079C45.959 75.8079 45.9497 75.8109 45.9466 75.8109C45.5239 75.8633 45.132 75.5676 45.0734 75.1456C45.0117 74.7174 45.311 74.3232 45.7368 74.2616L63.985 71.6803M63.6116 73.3128L63.985 71.6803M63.985 71.6803L64.5033 69.4255L65.3025 65.9264M65.3025 65.9264L44.9592 68.8033H44.9469C44.5241 68.8557 44.1354 68.5631 44.0768 68.138C44.015 67.7098 44.3113 67.3156 44.7402 67.254L65.6759 64.2938M65.3025 65.9264L65.6759 64.2938M65.6759 64.2938L66.1048 62.4241L66.475 60.7946L66.9039 58.9249M66.9039 58.9249L44.015 62.1654H44.0027C43.58 62.2177 43.1912 61.9251 43.1295 61.5C43.0677 61.0749 43.3671 60.6776 43.796 60.616L67.2773 57.2954M66.9039 58.9249L67.2773 57.2954M67.2773 57.2954L68.0764 53.8024L68.3078 52.7829L68.4591 52.1237M68.4591 52.1237L68.5423 51.7663L73.3065 30.9313C73.4669 30.226 74.0501 29.6623 74.9079 29.3943C75.6268 29.1633 76.5031 29.1479 77.3733 29.345L81.2766 30.2353M68.4591 52.1237L26.6709 58.044L23.1811 58.5399C22.1752 58.6816 21.2434 57.9854 21.1014 56.9813L18.096 35.8722C17.951 34.8681 18.6514 33.9378 19.6573 33.7961L78.6632 25.4209C79.6691 25.2792 80.6009 25.9753 80.7429 26.9795L81.2766 30.2353M81.2766 30.2353L91.6751 32.6041M91.6751 32.6041C91.8356 32.9244 92.0082 33.2354 92.1903 33.5434C92.3785 33.8668 92.576 34.1872 92.7858 34.4983C93.1438 35.0343 93.5264 35.5548 93.9368 36.0538C94.3194 36.5189 94.7236 36.9656 95.1494 37.3937C95.5228 37.7695 95.9115 38.133 96.3188 38.478C98.596 40.4186 101.361 41.854 104.477 42.5655C104.937 42.6702 105.4 42.7565 105.863 42.8273C110.253 43.5019 114.681 42.6456 118.523 40.3662C118.665 40.283 118.804 40.1968 118.942 40.1105C119.121 39.9966 119.3 39.8826 119.476 39.7625C119.772 39.5622 120.062 39.3559 120.346 39.1403M91.6535 14.717L2.75134 27.2783M120.232 39.131C119.948 39.3466 119.658 39.553 119.362 39.7532C119.051 39.9627 118.733 40.1629 118.406 40.3539L118.449 40.3662M120.232 39.131H120.229L120.272 39.1403C119.989 39.3559 119.698 39.5622 119.402 39.7625C119.226 39.8826 119.047 39.9966 118.868 40.1105C118.73 40.1968 118.591 40.283 118.449 40.3662M120.232 39.131L120.346 39.1403M118.449 40.3662C114.607 42.6456 110.18 43.5019 105.789 42.8273C105.326 42.7564 104.863 42.6702 104.403 42.5655C101.287 41.8539 98.5222 40.4185 96.245 38.478C95.8377 38.133 95.449 37.7695 95.0756 37.3937C94.6498 36.9655 94.2456 36.5189 93.8629 36.0538C93.4526 35.5548 93.0699 35.0342 92.712 34.4983C92.5022 34.1871 92.3047 33.8668 92.1165 33.5434C91.9344 33.2353 91.7617 32.9242 91.6012 32.6039C89.6203 28.7412 88.9353 24.1917 89.9751 19.6391C90.2158 18.5825 90.5429 17.566 90.9471 16.5927C90.9594 16.5557 90.9748 16.5188 90.9903 16.4818C91.126 16.1584 91.271 15.8411 91.4284 15.5238C91.5364 15.2959 91.6506 15.0741 91.7678 14.8554C92.0208 14.3841 92.2924 13.9282 92.5793 13.4847C96.8405 6.94529 104.888 3.40608 112.941 5.23884C123.25 7.58908 129.721 17.871 127.366 28.1622C126.354 32.5885 123.932 36.4327 120.346 39.1403M70.8195 41.6076L158.827 61.888M136.99 93.4545L136.682 93.3837L126.009 90.9041C125.728 90.8394 125.555 90.5591 125.62 90.2788C125.685 89.9985 125.959 89.826 126.246 89.8876L137.225 92.4412C137.505 92.5058 137.681 92.7861 137.617 93.0664C137.552 93.3313 137.296 93.5038 137.027 93.4607M136.99 93.4545C136.99 93.4545 137.015 93.4607 137.027 93.4607M136.99 93.4545C137.003 93.4576 137.015 93.4607 137.027 93.4607M104.175 85.9756C104.175 85.9756 104.203 85.9818 104.215 85.9818M104.175 85.9756C104.187 85.9787 104.203 85.9818 104.215 85.9818M104.175 85.9756L93.1963 83.4252C92.9155 83.3575 92.7397 83.0802 92.8045 82.7999C92.8693 82.5196 93.1408 82.341 93.4308 82.4087L100.92 84.1491L101.972 84.3924L104.412 84.9592C104.693 85.0239 104.866 85.3042 104.801 85.5845C104.74 85.8525 104.48 86.0219 104.215 85.9818M103.283 89.7921L102.746 89.6689L101.694 89.4225M103.283 89.7921C103.564 89.8568 103.74 90.1371 103.675 90.4174C103.613 90.6854 103.354 90.8548 103.089 90.8148M103.283 89.7921L102.746 89.6658L101.694 89.4225M101.694 89.4225L92.3046 87.2417C92.0114 87.1739 91.743 87.3525 91.6782 87.6297C91.6134 87.9101 91.7862 88.1904 92.067 88.2551L102.907 90.7747L103.049 90.8086M103.049 90.8086C103.049 90.8086 103.073 90.8086 103.089 90.8148M103.049 90.8086C103.061 90.8117 103.073 90.8117 103.089 90.8148M100.448 144.384H62.2757L69.7459 130.646H92.5855L100.448 144.384ZM124.932 77.4743L123.145 85.1441C122.914 86.1329 121.926 86.7459 120.936 86.5179L110.855 84.1739C109.865 83.9428 109.251 82.9571 109.479 81.9715L111.269 74.2985C111.5 73.3098 112.488 72.6968 113.475 72.9278L123.559 75.2688C124.549 75.4999 125.163 76.4855 124.932 77.4743ZM87.1671 86.6566C87.1054 86.9245 86.8493 87.0939 86.5809 87.0539C86.5685 87.0508 86.5562 87.0478 86.5407 87.0447L75.5622 84.4942C75.2814 84.4295 75.1086 84.1492 75.1734 83.8689C75.2382 83.5886 75.5128 83.413 75.7998 83.4808L86.7783 86.0313C87.0591 86.0959 87.235 86.3762 87.1671 86.6566ZM63.911 71.6803L63.5376 73.3128L45.9559 75.8079C45.9559 75.8079 45.9466 75.8109 45.9435 75.8109C45.5208 75.8633 45.129 75.5676 45.0703 75.1456C45.0086 74.7175 45.3079 74.3232 45.7337 74.2616L63.911 71.6803ZM65.6019 64.2938L65.2285 65.9264L44.9562 68.8033H44.9438C44.5211 68.8557 44.1323 68.5631 44.0737 68.138C44.012 67.7099 44.3082 67.3156 44.7371 67.254L65.6019 64.2938ZM67.2033 57.2955L66.83 58.9249L44.012 62.1654H43.9996C43.5769 62.2177 43.1881 61.9251 43.1264 61.5C43.0647 61.075 43.364 60.6776 43.7929 60.616L67.2033 57.2955ZM113.996 145.314V150.07C113.996 150.584 113.577 151 113.061 151H49.6771C49.1618 151 48.7453 150.584 48.7453 150.07V145.314C48.7453 144.802 49.1618 144.384 49.6771 144.384H113.061C113.577 144.384 113.996 144.802 113.996 145.314ZM69.0361 92.8109C68.9744 92.3827 68.5856 92.0963 68.1506 92.1486L26.7727 98.0196C26.3438 98.0812 26.0476 98.4755 26.1062 98.9037C26.1679 99.3287 26.5567 99.6213 26.9794 99.569H26.9918L68.3696 93.6949C68.7985 93.6333 69.0947 93.239 69.0361 92.8109ZM42.5586 75.0932L40.769 62.5288C40.627 61.5246 39.6952 60.8254 38.6893 60.9702L23.5606 63.1171C22.5578 63.2588 21.8573 64.1891 22.0024 65.1902L23.792 77.7576C23.8939 78.4723 24.3937 79.0329 25.0386 79.2423C25.2978 79.3286 25.5786 79.3563 25.8686 79.3162L26.0599 79.2885L40.9973 77.1693C42.0032 77.0276 42.7036 76.0974 42.5586 75.0932ZM28.0625 15.5086C29.1085 15.3577 30.0774 16.0846 30.2286 17.1319C30.3767 18.1761 29.6485 19.1433 28.5994 19.2943C27.5534 19.4421 26.5845 18.7152 26.4333 17.6679C26.2852 16.6237 27.0134 15.6565 28.0625 15.5086ZM21.9037 16.408C22.9497 16.2602 23.9217 16.9871 24.0698 18.0313C24.2179 19.0755 23.4897 20.0458 22.4436 20.1937C21.3945 20.3415 20.4257 19.6146 20.2776 18.5704C20.1294 17.5231 20.8576 16.5559 21.9037 16.408ZM10.5302 21.934C9.48415 22.085 8.51218 21.358 8.36407 20.3107C8.21596 19.2665 8.94417 18.2993 9.99019 18.1484C11.0393 18.0005 12.0081 18.7275 12.1562 19.7748C12.3044 20.819 11.5762 21.7862 10.5302 21.934ZM16.4853 21.0654C15.4393 21.2133 14.4704 20.4863 14.3192 19.4421C14.1711 18.3948 14.8993 17.4276 15.9485 17.2798C16.9945 17.1288 17.9634 17.8558 18.1145 18.9031C18.2627 19.9473 17.5344 20.9145 16.4853 21.0654ZM78.5397 10.3399C78.5397 11.3964 77.6819 12.2528 76.6236 12.2528C75.5653 12.2528 74.7075 11.3964 74.7075 10.3399C74.7075 9.28349 75.5653 8.42707 76.6236 8.42707C77.6819 8.42707 78.5397 9.28349 78.5397 10.3399ZM84.495 9.46821C84.495 10.5246 83.6371 11.3811 82.5788 11.3811C81.5205 11.3811 80.6626 10.5246 80.6626 9.46821C80.6626 8.41177 81.5205 7.55535 82.5788 7.55535C83.6371 7.55535 84.495 8.41177 84.495 9.46821ZM60.5322 86.4563L60.3718 87.1586C60.3039 87.4605 60.2792 87.7654 60.3008 88.0673L27.0782 92.7863L26.0599 92.9279H26.0476L26.0353 92.931C25.6125 92.9865 25.2237 92.6908 25.162 92.2657C25.1003 91.8406 25.3996 91.4433 25.8254 91.3816L26.0599 91.3478L60.5322 86.4563ZM62.2231 79.0698L61.8498 80.6993L27.0782 85.6369L26.0599 85.7787L25.0509 85.9234H25.0386C24.6128 85.9789 24.224 85.6832 24.1654 85.2581C24.1037 84.833 24.3999 84.4357 24.8288 84.3771L25.0386 84.3463L62.2231 79.0698ZM81.2026 30.2353L77.2994 29.3451C76.4292 29.148 75.5529 29.1634 74.8339 29.3944C73.9761 29.6624 73.393 30.2261 73.2325 30.9315L68.4683 51.7664L68.3851 52.1237L26.6678 58.044L23.178 58.5399C22.1721 58.6816 21.2402 57.9854 21.0983 56.9812L18.0929 35.8722C17.9479 34.868 18.6483 33.9378 19.6542 33.7961L78.6601 25.4209C79.666 25.2792 80.5978 25.9753 80.7398 26.9795L81.2026 30.2353ZM143.3 49.9273C142.27 49.6902 141.239 50.3278 140.998 51.3566C140.761 52.3854 141.399 53.4142 142.43 53.6545C143.461 53.8916 144.491 53.254 144.732 52.2252C144.969 51.1964 144.331 50.1676 143.3 49.9273ZM150.44 51.5507C149.41 51.3104 148.382 51.9511 148.141 52.9799C147.901 54.0087 148.543 55.0375 149.573 55.2747C150.604 55.5149 151.631 54.8742 151.872 53.8454C152.113 52.8166 151.471 51.7909 150.44 51.5507ZM139.838 78.9804C140.826 79.2083 141.443 80.1971 141.211 81.1828L139.422 88.8557C139.233 89.6812 138.511 90.2449 137.7 90.2726C137.543 90.2788 137.379 90.2634 137.215 90.2264L136.682 90.1032L127.132 87.8854C126.144 87.6544 125.53 86.6687 125.759 85.68L127.548 78.0101C127.78 77.0213 128.767 76.4084 129.754 76.6363L139.838 78.9804ZM136.098 97.271C136.379 97.3388 136.555 97.616 136.487 97.8963C136.426 98.1643 136.169 98.3368 135.901 98.2937C135.889 98.2937 135.876 98.2906 135.861 98.2875L135.66 98.2413L124.882 95.737C124.602 95.6693 124.429 95.3889 124.494 95.1086C124.558 94.8314 124.83 94.6497 125.12 94.7205L136.098 97.271ZM107.023 71.5015C108.013 71.7294 108.627 72.7182 108.399 73.7039L106.609 81.3768C106.378 82.3625 105.391 82.9786 104.403 82.7475L101.635 82.1038L100.583 81.8604L94.3195 80.4035C93.329 80.1755 92.715 79.1898 92.9464 78.2011L94.733 70.5282C94.9644 69.5425 95.9517 68.9295 96.9422 69.1574L107.023 71.5015ZM114.126 61.6539C114.256 61.0933 114.814 60.7421 115.376 60.8715C115.937 60.9978 116.289 61.5584 116.162 62.119C116.033 62.6796 115.474 63.0308 114.913 62.9014C114.351 62.7751 113.999 62.2145 114.126 61.6539ZM106.184 65.187L111.337 61.3736L112.568 63.7916L114.08 63.4251L116.696 67.5834L106.184 65.187ZM115.058 21.2069C114.783 20.5077 114.394 19.8516 113.91 19.2787C113.24 18.484 112.38 17.8402 111.389 17.4213C111.025 17.2642 110.642 17.1379 110.238 17.0455C109.837 16.9562 109.436 16.9007 109.041 16.8853C107.964 16.833 106.912 17.0424 105.962 17.4675C105.277 17.7755 104.641 18.1944 104.089 18.7057C103.333 19.4142 102.728 20.3044 102.364 21.3209C102.259 21.5858 102.179 21.863 102.117 22.1403C102.015 22.5869 101.96 23.0335 101.944 23.4802C101.923 24.5552 102.154 25.6025 102.601 26.5419C102.879 27.1334 103.246 27.6816 103.684 28.1745C104.376 28.9445 105.252 29.5606 106.258 29.958C106.569 30.075 106.887 30.1736 107.22 30.2506C107.551 30.3245 107.881 30.3738 108.211 30.4015C109.291 30.4816 110.349 30.306 111.306 29.9087C111.914 29.6592 112.484 29.3234 112.991 28.9107C113.805 28.2576 114.469 27.4137 114.916 26.4372C115.095 26.0275 115.24 25.6025 115.342 25.1558C115.407 24.8755 115.456 24.5921 115.478 24.3088C115.589 23.2337 115.431 22.1741 115.058 21.2069ZM120.924 23.3662L118.643 23.7605C118.634 24.4535 118.554 25.1497 118.393 25.852C118.196 26.7144 117.894 27.5276 117.492 28.273L119.476 29.693C120.18 30.1951 120.34 31.1746 119.838 31.8769C119.461 32.4037 118.81 32.6254 118.214 32.4899C118.017 32.4437 117.826 32.3636 117.653 32.2373L115.604 30.7773C114.54 31.7969 113.256 32.5731 111.852 33.0413L112.296 35.5979C112.407 36.2263 112.12 36.8362 111.621 37.1688H111.617C111.445 37.2859 111.241 37.3691 111.022 37.406C110.809 37.443 110.602 37.4337 110.405 37.3875C109.988 37.2921 109.624 37.0302 109.405 36.6637C109.309 36.5035 109.242 36.3248 109.208 36.1308L108.757 33.5434C108.023 33.5495 107.27 33.4664 106.523 33.2969C105.773 33.1275 105.061 32.875 104.403 32.5515L102.87 34.6861C102.756 34.8463 102.617 34.9788 102.459 35.0804C102.105 35.3176 101.663 35.3977 101.247 35.3022C101.049 35.256 100.858 35.1759 100.682 35.0496C100.5 34.9202 100.355 34.757 100.25 34.5753C99.9385 34.0578 99.9478 33.3894 100.321 32.8657L101.83 30.7588C100.772 29.7269 99.9508 28.4702 99.4355 27.0933L96.9578 27.5215C96.7449 27.5584 96.5382 27.5492 96.3407 27.503C95.7452 27.3674 95.2546 26.8869 95.1435 26.2462C94.9954 25.3961 95.5662 24.586 96.4209 24.4381L98.8215 24.0192C98.7876 23.1721 98.8647 22.3097 99.0622 21.4441C99.2226 20.7449 99.4571 20.0826 99.7502 19.4542L97.868 18.1112C97.1645 17.6092 97.001 16.6296 97.504 15.9273C98.0069 15.225 98.9881 15.0649 99.6916 15.5669L101.512 16.8699C102.589 15.724 103.934 14.8493 105.412 14.3225L105.045 12.2064C104.897 11.3562 105.468 10.5461 106.323 10.3983C107.168 10.2504 107.986 10.8203 108.134 11.6735L108.498 13.7527C109.3 13.7342 110.118 13.8112 110.936 13.9991C111.756 14.187 112.525 14.4673 113.24 14.8338L114.472 13.1181C114.975 12.4128 115.956 12.2526 116.659 12.7547C117.363 13.2568 117.523 14.2332 117.02 14.9386L115.771 16.682C116.875 17.8001 117.708 19.1709 118.177 20.6679L120.387 20.2828C121.238 20.135 122.05 20.7048 122.198 21.5581C122.346 22.4082 121.775 23.2183 120.924 23.3662ZM111.281 23.9021C111.281 25.3413 110.112 26.5081 108.671 26.5081C107.229 26.5081 106.06 25.3413 106.06 23.9021C106.06 22.4629 107.229 21.2963 108.671 21.2963C110.112 21.2963 111.281 22.4629 111.281 23.9021Z" stroke="white" stroke-miterlimit="10"/>
</svg>
