<svg width="132" height="152" viewBox="0 0 132 152" fill="none" xmlns="http://www.w3.org/2000/svg">
<path d="M130.999 46.1852V57.4076C130.999 59.9566 128.794 61.9446 126.305 61.6079C125.422 61.4957 124.461 61.3675 123.516 61.2392C113.497 59.9086 100.832 50.2252 94.1998 43.3154C94.1998 43.3154 93.8847 73.1028 94.1998 83.0106C95.0977 111.852 89.8362 127.291 79.0138 138.305C59.1176 158.553 23.4368 154 7.79399 128.782C-2.98113 111.419 -0.72844 88.4775 13.0398 73.4556C20.6013 65.1991 30.4154 60.4537 40.5604 59.2352C43.8371 58.8344 46.6884 61.5118 46.6884 64.8625V77.8804C46.6884 80.5738 44.8925 83.0268 42.2933 83.5718C38.9064 84.2772 35.6297 85.8322 32.7627 88.221C23.4841 96.0446 22.1923 110.04 29.8798 119.499C37.5674 128.942 51.9657 129.247 62.0004 122.433C70.5228 116.646 71.9406 105.103 71.3578 84.3253C70.8064 64.7182 71.3578 8.18939 71.3578 8.18939C71.3578 4.16536 74.0988 1.13538 77.47 1.13538C77.47 1.13538 84.1178 0.830774 88.1033 1.13538C89.7259 1.26364 91.1122 2.3538 91.6163 3.92493C92.3094 6.13734 93.1758 8.26956 94.1998 10.3056C99.9497 21.9448 115.183 38.7624 127.864 42.049C129.707 42.53 130.999 44.2132 130.999 46.137V46.1852Z" stroke="white" stroke-width="2" stroke-miterlimit="10"/>
</svg>
