<svg width="152" height="152" viewBox="0 0 152 152" fill="none" xmlns="http://www.w3.org/2000/svg">
<path d="M70.7054 1.37587C36.7574 4.70848 9.19942 32.0216 5.57226 65.9716C3.85785 81.954 7.32917 97.057 14.4985 109.763C15.8162 112.089 15.8587 114.926 14.7252 117.351L1.33584 146.096C-0.0385147 149.031 3.05024 152.066 5.95481 150.634L33.7536 136.977C36.2473 135.758 39.1802 135.8 41.5889 137.19C53.2071 143.926 66.8515 147.557 81.3885 146.904C118.978 145.231 151.07 111.494 150.999 73.8281C150.9 31.1708 114.231 -2.90689 70.7195 1.36168L70.7054 1.37587ZM109.485 110.657C103.435 115.252 92.5534 113.011 84.4064 108.913C71.7255 102.559 62.2184 96.2204 46.4629 77.2175C41.518 71.2188 38.0609 63.7594 37.5225 55.6335C36.8566 45.4513 46.3637 37.2545 49.5375 35.9215C58.1236 32.3052 60.5323 40.0482 63.6777 46.9971C65.3213 50.6417 67.8008 55.9455 66.5681 60.0014C65.548 63.4332 61.2407 64.0288 61.2407 67.872C61.2407 73.8423 66.5965 79.1319 70.3086 83.2586C72.8165 86.0523 84.4206 93.0296 90.754 93.0296C94.0552 93.0296 95.0045 86.4353 98.7734 85.2299C103.123 83.8684 106.481 85.7971 110.349 87.8676C120.182 93.1997 118.241 103.992 109.499 110.657H109.485Z" stroke="white" stroke-width="2" stroke-miterlimit="10"/>
</svg>
