<svg width="222" height="152" viewBox="0 0 222 152" fill="none" xmlns="http://www.w3.org/2000/svg">
<path d="M201.415 1H21.0647C16.1486 1 11.6338 2.90992 8.1424 6.08649C3.76809 10.0621 0.999023 15.9864 0.999023 22.6319V129.875C0.999023 136.676 3.96874 142.718 8.60391 146.596C11.9147 149.363 16.0884 151 20.6032 151H201.415C212.23 151 220.999 141.548 220.999 129.875V22.1252C220.999 10.4518 212.23 1 201.415 1Z" stroke="white" stroke-width="2" stroke-miterlimit="10"/>
<path class="playYoutube" d="M94.6856 40.7558L142.281 70.3582C146.295 72.8527 146.295 79.0889 142.281 81.6029L94.6856 111.205C90.6725 113.7 85.6561 110.582 85.6561 105.593V46.3684C85.6561 41.3794 90.6725 38.2613 94.6856 40.7558Z" stroke="white" stroke-width="2" stroke-miterlimit="10"/>
</svg>
